<?xml version="1.0" standalone="no"?>
<!DOCTYPE svg PUBLIC "-//W3C//DTD SVG 1.1//EN" "http://www.w3.org/Graphics/SVG/1.1/DTD/svg11.dtd" >
<svg>
<metadata>
Created by FontForge 20090914 at Mon May 18 10:48:01 2020
 By www-data
a_Empirial* Arsenal Company &#194;&#169;1997* FAX: (095)924-3775; e-Mail: arsenal@itco.msk.su; Phone: (095)924-5811 (Design and Featuring W.Chufarofsky)
</metadata>
<defs>
<font id="AEmpirial" horiz-adv-x="251" >
  <font-face 
    font-family="a_Empirial"
    font-weight="400"
    font-stretch="normal"
    units-per-em="1000"
    panose-1="4 5 3 2 5 8 2 2 2 4"
    ascent="800"
    descent="-200"
    x-height="735"
    cap-height="735"
    bbox="-25 -123 1136 834"
    underline-thickness="45"
    underline-position="-98"
    unicode-range="U+0020-U+2122"
  />
<missing-glyph horiz-adv-x="500" 
d="M63 0v834h375v-834h-375zM125 63h250v709h-250v-709z" />
    <glyph glyph-name=".notdef" horiz-adv-x="500" 
d="M63 0v834h375v-834h-375zM125 63h250v709h-250v-709z" />
    <glyph glyph-name="space" unicode=" " horiz-adv-x="200" 
 />
    <glyph glyph-name="exclam" unicode="!" horiz-adv-x="135" 
d="M77 132h-20l-16 603h52zM93 0h-52v60h52v-60z" />
    <glyph glyph-name="quotedbl" unicode="&#x22;" horiz-adv-x="292" 
d="M198 438v281h38v-281h-38zM57 438v281h38v-281h-38z" />
    <glyph glyph-name="numbersign" unicode="#" horiz-adv-x="500" 
d="M308 410h-80l-33 -106h82zM195 443l61 194h45l-62 -194h82l61 194h45l-61 -194h113l-11 -33h-114l-32 -106h122l-10 -33h-123l-62 -192h-44l62 192h-84l-61 -192h-46l62 192h-116l9 33h117l35 106h-127l8 33h131z" />
    <glyph glyph-name="dollar" unicode="$" 
d="M209 508l-41 -0.00292969v154c0 23.333 -3.5 38 -10.5 44s-21.833 9 -44.5 9c-20 0 -30 -17.667 -30 -53v-108c0 -26 6.66699 -51.667 20 -77c2 -2.66699 16.667 -25.334 44 -68.001c41.333 -63.333 62 -124.666 62 -183.999v-142c0 -28 -5 -48.167 -15 -60.5
s-28.667 -19.833 -56 -22.5v-76h-23v77c-27.333 2 -46.333 9.16699 -57 21.5s-16 32.5 -16 60.5v163h41v-174c0 -20 2.33301 -33.333 7 -40c6 -9.33301 14.333 -14 25 -14c22.667 0 37.167 3.33301 43.5 10s9.5 21.334 9.5 44.001v173c0 30 -10 62.333 -30 97
c-40 68.667 -60.333 103.334 -61 104.001c-23.333 46 -35 84.333 -35 115v91c0 28.667 5.16699 49 15.5 61s29.5 19.333 57.5 22v47h23v-49c27.333 -1.33301 46 -8.16602 56 -20.499s15 -32.5 15 -60.5v-144z" />
    <glyph glyph-name="percent" unicode="%" horiz-adv-x="438" 
d="M157 693v-331c0 -32.667 -19.333 -49 -58 -49s-58 16.333 -58 49v331c0 32.667 19.333 49 58 49c20 0 34 -2.66699 42 -8c10.667 -7.33301 16 -21 16 -41zM397 374v-332c0 -32.667 -19.333 -49 -58 -49s-58 16.333 -58 49v332c0 32.667 19.333 49 58 49
c20 0 34 -2.66699 42 -8c10.667 -7.33301 16 -21 16 -41zM315 45c0 -20 8 -30 24 -30c16.667 0 25 7 25 21v334c0 20.667 -8.33301 31 -25 31c-16 0 -24 -9.66699 -24 -29v-327zM75 364c0 -19.333 8 -29 24 -29s24 6.33301 24 19v336c0 20 -8 30 -24 30s-24 -9 -24 -27v-329
zM61 -7l284 749h33l-284 -749h-33z" />
    <glyph glyph-name="ampersand" unicode="&#x26;" horiz-adv-x="272" 
d="M126 440c-26 0 -39 -18.668 -39 -56.001v-306c0 -37.333 13 -56 39 -56c16.667 0 33.667 12.667 51 38c-7.33301 12.667 -11 33.334 -11 62.001v262c0 37.333 -13.333 56 -40 56zM176 502.999l32.9961 -16.001c-12 -18 -29.333 -30 -52 -36
c22 -5.33301 36.333 -13.666 43 -24.999s10 -29.333 10 -54v-265c12.667 30 29.334 52.333 50.001 67l13 -24c-24 -12 -43.333 -34.667 -58 -68c8.66699 -28 27.667 -42 57 -42v-40c-29.333 0 -56.666 13.667 -81.999 41c-18.667 -32 -43.667 -48 -75 -48
c-48.667 0 -73 27.667 -73 83v296c0 44 16.667 70.333 50 79c-33.333 8 -50 35.333 -50 82v127c0 30.667 6.33301 52 19 64s34.334 18 65.001 18c44 0 70.667 -14.333 80 -43c2.66699 -9.33301 4 -44 4 -104h-44v71c0 37.333 -13.333 56 -40 56c-26 0 -39 -18.667 -39 -56
v-148c0 -37.333 13 -56 39 -56c24.667 0 41.334 13.667 50.001 41z" />
    <glyph glyph-name="quotesingle" unicode="'" horiz-adv-x="150" 
d="M56 438v281h39v-281h-39z" />
    <glyph glyph-name="parenleft" unicode="(" horiz-adv-x="138" 
d="M126 742l0.000976562 -20.002c-18 -1.33301 -29.333 -6.66602 -34 -15.999c-4 -6.66699 -6 -20 -6 -40v-598c0 -18.667 2 -31.667 6 -39c5.33301 -9.33301 16.666 -14.666 33.999 -15.999v-20c-31.333 0.666992 -53.333 7 -66 19s-19 33.333 -19 64v584
c0 31.333 6.66699 53 20 65c12 10 33.667 15.667 65 17z" />
    <glyph glyph-name="parenright" unicode=")" horiz-adv-x="138" 
d="M12 -7l0.00195312 20.0029c17.333 1.33301 28.666 6.66602 33.999 15.999c4 7.33301 6 20.333 6 39v598c0 20 -2 33.333 -6 40c-4.66699 9.33301 -16 14.666 -34 15.999v20c31.333 -1.33301 52.666 -7 63.999 -17c14 -11.333 21 -33 21 -65v-584
c0 -31.333 -6.16699 -52.833 -18.5 -64.5s-34.5 -17.834 -66.5 -18.501z" />
    <glyph glyph-name="asterisk" unicode="*" horiz-adv-x="228" 
d="M102 641l-2 94h29l-2 -94l88 31l9 -29l-90 -25l56 -76l-24 -16l-52 76l-52 -76l-24 16l55 76l-89 25l10 29z" />
    <glyph glyph-name="plus" unicode="+" horiz-adv-x="500" 
d="M230 400v155h40v-155h141v-37h-141v-153h-40v153h-140v37h140z" />
    <glyph glyph-name="comma" unicode="," horiz-adv-x="126" 
d="M37 -3v57h53v-55l-35 -86h-24l34 84h-28z" />
    <glyph glyph-name="hyphen" unicode="-" horiz-adv-x="225" 
d="M182 353h-140v41h140v-41z" />
    <glyph glyph-name="hyphen" unicode="&#x2010;" horiz-adv-x="225" 
d="M182 353h-140v41h140v-41z" />
    <glyph glyph-name="period" unicode="." horiz-adv-x="125" 
d="M89 -3h-53v60h53v-60z" />
    <glyph glyph-name="slash" unicode="/" 
d="M9 -95h-34l250 837h34z" />
    <glyph glyph-name="zero" unicode="0" 
d="M42 76v584c0 30.667 6.33301 52 19 64s34.334 18 65.001 18s52.167 -6 64.5 -18s18.5 -33.333 18.5 -64v-584c0 -31.333 -6 -53 -18 -65s-33.667 -18 -65 -18c-30.667 0 -52.334 6.16699 -65.001 18.5s-19 33.833 -19 64.5zM86 666v-598c0 -36.667 13.333 -55 40 -55
s40 18.333 40 55v598c0 37.333 -13.333 56 -40 56s-40 -18.667 -40 -56z" />
    <glyph glyph-name="one" unicode="1" 
d="M220 0h-183v27h73v671l-46 -10v30c35.333 6.66699 63.333 14.667 84 24h7v-715h65v-27z" />
    <glyph glyph-name="two" unicode="2" 
d="M205 0h-164v87c0 68 7.33301 120.667 22 158c8 20 22.333 48.667 43 86c40 71.333 60 134 60 188v147c0 37.333 -13.333 56 -40 56c-26 0 -39 -18.667 -39 -56v-148h-44v142c0 30 6.33301 51.167 19 63.5s34 18.5 64 18.5c30.667 0 52.167 -6 64.5 -18
s18.5 -33.333 18.5 -64v-141c0 -56.667 -26.667 -134.334 -80 -233.001c-22 -41.333 -36 -82.666 -42 -123.999c-3.33301 -23.333 -5 -67.333 -5 -132h84v127h39v-157z" />
    <glyph glyph-name="three" unicode="3" 
d="M42 76l0.00195312 162.002h41v-170c0 -36.667 14.333 -55 43 -55c26.667 0 40 18.333 40 55v252c0 23.333 -3.83301 38.666 -11.5 45.999s-20.167 11 -37.5 11h-22c-10 -0.666992 -18.333 -1 -25 -1v27c6 0 14 -0.333008 24 -1h21c18 0 31 3.66699 39 11
s12 22.666 12 45.999v256h-83v-197h-41v217h167v-266c0 -22.667 -3 -39.667 -9 -51c-7.33301 -14 -21.333 -23.667 -42 -29c21.333 -5.33301 35.666 -15 42.999 -29c5.33301 -10.667 8 -28 8 -52v-232c0 -30.667 -6.16699 -52.167 -18.5 -64.5s-33.833 -18.5 -64.5 -18.5
s-52.334 6.16699 -65.001 18.5s-19 33.833 -19 64.5z" />
    <glyph glyph-name="four" unicode="4" 
d="M195 0h-45v216h-120v318l142 208h53l-154 -228v-276h79v280h45v-280h44v-22h-44v-216z" />
    <glyph glyph-name="five" unicode="5" 
d="M50 484l0.00195312 251h142v-31h-109v-184c10.667 2.66699 25 4 43 4c31.333 0 53 -6 65 -18s18 -33.667 18 -65v-365c0 -30.667 -6.16699 -52.167 -18.5 -64.5s-33.833 -18.5 -64.5 -18.5s-52.334 6.16699 -65.001 18.5s-19 33.833 -19 64.5v220h44v-228
c0 -36.667 13.333 -55 40 -55s40 18.333 40 55v373c0 22 -3 37.167 -9 45.5s-20 12.5 -42 12.5c-26.667 0 -48.334 -5 -65.001 -15z" />
    <glyph glyph-name="six" unicode="6" 
d="M86 360v-292c0 -36.667 13.333 -55 40 -55s40 18.333 40 55v260c0 32 -12 48 -36 48c-15.333 0 -30 -5.33301 -44 -16zM209 660v-147h-43v153c0 37.333 -13.333 56 -40 56s-40 -18.667 -40 -56v-281c22.667 12 43 18 61 18c41.333 0 62 -27 62 -81v-246
c0 -31.333 -6 -53 -18 -65s-33.667 -18 -65 -18c-30.667 0 -52.334 6.16699 -65.001 18.5s-19 33.833 -19 64.5v584c0 30.667 6.33301 52 19 64s34.334 18 65.001 18s52.167 -6 64.5 -18s18.5 -33.333 18.5 -64z" />
    <glyph glyph-name="seven" unicode="7" 
d="M160 0l-44 0.000976562v378l74 330h-110v-113h-40v140h197l-51 -225c-7.33301 -22.667 -16 -60.334 -26 -113.001v-397z" />
    <glyph glyph-name="eight" unicode="8" 
d="M86 322v-254c0 -36.667 13.333 -55 40 -55s40 18.333 40 55v254c0 37.333 -13.333 56 -40 56s-40 -18.667 -40 -56zM209 660v-191c0 -13.333 -0.666992 -24 -2 -32c-5.33301 -23.333 -21.666 -39 -48.999 -47c21.333 -6 35.666 -16 42.999 -30
c5.33301 -10.667 8 -27.667 8 -51v-233c0 -31.333 -6 -53 -18 -65s-33.667 -18 -65 -18c-30.667 0 -52.334 6.16699 -65.001 18.5s-19 33.833 -19 64.5v233c0 45.333 16 72.333 48 81c-32 8 -48 34.333 -48 79v191c0 30.667 6.33301 52 19 64s34.334 18 65.001 18
s52.167 -6 64.5 -18s18.5 -33.333 18.5 -64zM86 666v-211c0 -18.667 2 -31.667 6 -39c6 -10 17.333 -15 34 -15c26.667 0 40 18 40 54v211c0 37.333 -13.333 56 -40 56s-40 -18.667 -40 -56z" />
    <glyph glyph-name="nine" unicode="9" 
d="M166 375v291c0 37.333 -13.333 56 -40 56s-40 -18.667 -40 -56v-260c0 -31.333 11.667 -47 35 -47c14 0 29 5.33301 45 16zM42 76v146h44v-154c0 -36.667 13.333 -55 40 -55s40 18.333 40 55v283c-21.333 -12.667 -42.333 -19 -63 -19c-40.667 0 -61 26.667 -61 80v248
c0 30.667 6.33301 52 19 64s34.334 18 65.001 18s52.167 -6 64.5 -18s18.5 -33.333 18.5 -64v-584c0 -31.333 -6 -53 -18 -65s-33.667 -18 -65 -18c-30.667 0 -52.334 6.16699 -65.001 18.5s-19 33.833 -19 64.5z" />
    <glyph glyph-name="colon" unicode=":" horiz-adv-x="125" 
d="M89 420h-53v60h53v-60zM89 -1h-53v59h53v-59z" />
    <glyph glyph-name="semicolon" unicode=";" horiz-adv-x="126" 
d="M37 419v61h53v-61h-53zM37 -1v57h53v-55l-35 -87h-24l34 85h-28z" />
    <glyph glyph-name="less" unicode="&#x3c;" horiz-adv-x="500" 
d="M441 150l-385 142v27l385 141v-40l-317 -115l317 -115v-40z" />
    <glyph glyph-name="equal" unicode="=" horiz-adv-x="500" 
d="M70 198v38h360v-38h-360zM70 374v38h360v-38h-360z" />
    <glyph glyph-name="greater" unicode="&#x3e;" horiz-adv-x="500" 
d="M57 150v40l317 115l-317 115v40l385 -141v-27z" />
    <glyph glyph-name="question" unicode="?" 
d="M149 0h-52v60h52v-60zM139 132h-31v109c0 29.333 9.66699 69.666 29 120.999s29 93 29 125v179c0 37.333 -13.333 56 -40 56s-40 -18.667 -40 -56v-156h-44v150c0 30.667 6.33301 52 19 64s34.334 18 65.001 18s52.167 -6 64.5 -18s18.5 -33.333 18.5 -64v-159
c0 -31.333 -1.33301 -54.666 -4 -69.999s-11.334 -40 -26.001 -74c-16.667 -38.667 -27 -64.667 -31 -78c-6 -20 -9.33301 -44.333 -10 -73c0.666992 22 1 -2.66699 1 -74z" />
    <glyph glyph-name="at" unicode="@" horiz-adv-x="822" 
d="M488 230c-26 -54 -64.332 -81.001 -114.999 -81.001c-84 0 -126 49 -126 147c0 60 15.667 114 47 162c35.333 55.333 81.333 83 138 83c51.333 0 86 -26.667 104 -80l25 61h27l-56 -246c-6.66699 -29.333 -10 -47.333 -10 -54c0 -26 16.667 -39 50 -39c18 0 37 5 57 15
c40 20 70.667 54.667 92 104c18.667 42.667 28 89 28 139c0 83.333 -28.667 149.666 -86 198.999c-54.667 46 -124.334 69 -209.001 69c-107.333 0 -194.333 -38 -261 -114c-64.667 -73.333 -97 -164.666 -97 -273.999c0 -97.333 30.167 -175.166 90.5 -233.499
s139.5 -87.5 237.5 -87.5c91.333 -0 176 28.333 254 85l11 -16c-78.667 -66 -165.667 -99 -261 -99c-100.667 0 -182.667 27.333 -246 82c-80.667 69.333 -121 161.333 -121 276c0 116.667 37.167 214.667 111.5 294s169.5 119 285.5 119c91.333 0 167.333 -27 228 -81
c63.333 -56.667 95 -130 95 -220c0 -104.667 -32.333 -184.667 -97 -240c-38.667 -33.333 -78.667 -50 -120 -50c-50.667 0 -76 21.667 -76 65v15zM529.001 416.999c-12.667 60.667 -45.667 91 -99 91c-47.333 0 -84.666 -25 -111.999 -75c-22.667 -40.667 -34 -87 -34 -139
c0 -74 29.667 -111 89 -111c33.333 0 61.666 12 84.999 36c21.333 21.333 36 49 44 83z" />
    <glyph glyph-name="A" unicode="A" 
d="M42 0l0.000976562 653c0 31.333 6.16699 52.833 18.5 64.5s34.166 17.5 65.499 17.5h83v-735h-43v374h-82v-374h-42zM84.001 401h82v312h-40c-28 0 -42 -18 -42 -54v-258z" />
    <glyph glyph-name="B" unicode="B" 
d="M121 0l-79 0.00195312v735h79c33.333 0 56.333 -5.33301 69 -16s19 -32.334 19 -65.001v-182c0 -24 -2.33301 -41.333 -7 -52c-6.66699 -15.333 -20 -25.333 -40 -30c20 -4 33.333 -14 40 -30c4.66699 -10.667 7 -28.334 7 -53.001v-225c0 -32 -6.5 -53.667 -19.5 -65
s-35.833 -17 -68.5 -17zM115 715.002l-28.998 0.000976562v-314h29c19.333 0 32.666 4.16699 39.999 12.5s11 22.166 11 41.499v205c0 20.667 -3.33301 35 -10 43s-20.334 12 -41.001 12zM115.002 379.003l-28.998 0.000976562v-359h29c19.333 0 32.666 4.16699 39.999 12.5
s11 22.166 11 41.499v250c0 20.667 -3.33301 35 -10 43s-20.334 12 -41.001 12z" />
    <glyph glyph-name="C" unicode="C" horiz-adv-x="242" 
d="M42 76v584c0 30.667 6.33301 52 19 64s34.334 18 65.001 18s52.167 -6 64.5 -18s18.5 -33.333 18.5 -64v-147h-43v153c0 37.333 -13.333 56 -40 56s-40 -18.667 -40 -56v-598c0 -36.667 13.333 -55 40 -55s40 18.333 40 55v170h43v-162c0 -31.333 -6 -53 -18 -65
s-33.667 -18 -65 -18c-30.667 0 -52.334 6.16699 -65.001 18.5s-19 33.833 -19 64.5z" />
    <glyph glyph-name="D" unicode="D" 
d="M121 0l-79 0.000976562v735h79c33.333 0 56.333 -5.33301 69 -16s19 -32.334 19 -65.001v-572c0 -32 -6.5 -53.667 -19.5 -65s-35.833 -17 -68.5 -17zM86 715.001l0.00195312 -694.999h29c19.333 0 32.666 4.16699 39.999 12.5s11 22.166 11 41.499v586
c0 20.667 -3.33301 35 -10 43s-20.334 12 -41.001 12h-29z" />
    <glyph glyph-name="E" unicode="E" horiz-adv-x="182" 
d="M167 0h-125v735h121v-27h-77v-307h71v-27h-71v-346h81v-28z" />
    <glyph glyph-name="F" unicode="F" horiz-adv-x="177" 
d="M86 0h-45v735h122v-27h-77v-307h71v-27h-71v-374z" />
    <glyph glyph-name="G" unicode="G" 
d="M42 76v584c0 30.667 6.33301 52 19 64s34.334 18 65.001 18s52.167 -6 64.5 -18s18.5 -33.333 18.5 -64v-147h-43v153c0 37.333 -13.333 56 -40 56s-40 -18.667 -40 -56v-598c0 -36.667 13.333 -55 40 -55s40 18.333 40 55v306h-51v27h94v-325c0 -31.333 -6 -53 -18 -65
s-33.667 -18 -65 -18c-30.667 0 -52.334 6.16699 -65.001 18.5s-19 33.833 -19 64.5z" />
    <glyph glyph-name="H" unicode="H" 
d="M85 0h-43v735h43v-334h81v334h43v-735h-43v374h-81v-374z" />
    <glyph glyph-name="I" unicode="I" horiz-adv-x="127" 
d="M41 0v735h45v-735h-45z" />
    <glyph glyph-name="J" unicode="J" horiz-adv-x="238" 
d="M151 735h45.001v-659c0 -30.667 -6.33301 -52.167 -19 -64.5s-34.334 -18.5 -65.001 -18.5c-30 0 -51.333 6.33301 -64 19s-19 34 -19 64v251h43v-259c0 -36.667 13.333 -55 40 -55c16.667 0 27.667 5.33301 33 16c4 7.33301 6 20.333 6 39v667z" />
    <glyph glyph-name="K" unicode="K" horiz-adv-x="241" 
d="M166 735h44l-69 -334c45.333 0 68 -27.667 68 -83v-318h-43v324c0 18.667 -2.33301 31.667 -7 39s-15.667 11 -33 11h-40v-374h-44v735h44v-334h21z" />
    <glyph glyph-name="L" unicode="L" horiz-adv-x="177" 
d="M167 0h-125v735h44v-707h81v-28z" />
    <glyph glyph-name="M" unicode="M" horiz-adv-x="311" 
d="M83 0h-41v735h35l79 -336l77 336h36v-735h-41v579l-72 -264l-73 264v-579z" />
    <glyph glyph-name="N" unicode="N" 
d="M82 0l-39.999 -0.000976562v735h34l93 -328v328h40v-735h-40v327c-2 14.667 -6 30.334 -12 47.001c-10.667 28 -16.334 43.333 -17.001 46l-58 185v-605z" />
    <glyph glyph-name="O" unicode="O" 
d="M42 76v584c0 30.667 6.33301 52 19 64s34.334 18 65.001 18s52.167 -6 64.5 -18s18.5 -33.333 18.5 -64v-584c0 -31.333 -6 -53 -18 -65s-33.667 -18 -65 -18c-30.667 0 -52.334 6.16699 -65.001 18.5s-19 33.833 -19 64.5zM86 666v-598c0 -36.667 13.333 -55 40 -55
s40 18.333 40 55v598c0 37.333 -13.333 56 -40 56s-40 -18.667 -40 -56z" />
    <glyph glyph-name="P" unicode="P" horiz-adv-x="240" 
d="M209 654l-0.000976562 -328c0 -39.333 -11.667 -63.666 -35 -72.999c-11.333 -5.33301 -40.666 -8 -87.999 -8v-245h-44v735h79c33.333 0 56.333 -5.33301 69 -16s19 -32.334 19 -65.001zM165.999 318l0.000976562 342c0 20.667 -3.33301 35 -10 43
s-20.334 12 -41.001 12h-29v-450h29c20 0 33.5 3.83301 40.5 11.5s10.5 21.5 10.5 41.5z" />
    <glyph glyph-name="Q" unicode="Q" 
d="M42 76l0.000976562 584c0 30.667 6.33301 52 19 64s34.334 18 65.001 18s52.167 -6 64.5 -18s18.5 -33.333 18.5 -64v-584c0 -16.667 -0.333008 -27 -1 -31l28 -22v-36l-39 32c-12.667 -17.333 -36.334 -26 -71.001 -26c-30.667 0 -52.334 6.16699 -65.001 18.5
s-19 33.833 -19 64.5zM86.001 666v-598c0 -36.667 13.333 -55 40 -55c20 0 32 9 36 27l-50 40v34l54 -42v594c0 37.333 -13.333 56 -40 56s-40 -18.667 -40 -56z" />
    <glyph glyph-name="R" unicode="R" 
d="M209 0l-42.999 0.00195312v324c0 20.667 -3.33301 35 -10 43s-20.334 12 -41.001 12h-29v-379h-44v735h79c33.333 0 56.333 -5.33301 69 -16s19 -32.334 19 -65.001v-182c0 -24 -2.33301 -41.333 -7 -52c-6.66699 -15.333 -20 -25.333 -40 -30c20 -4 33.333 -14 40 -30
c4.66699 -10.667 7 -28.334 7 -53.001v-307zM115.001 715.002l-28.998 0.000976562v-314h29c19.333 0 32.666 4.16699 39.999 12.5s11 22.166 11 41.499v205c0 20.667 -3.33301 35 -10 43s-20.334 12 -41.001 12z" />
    <glyph glyph-name="S" unicode="S" horiz-adv-x="235" 
d="M77 666v-94c0 -30 6.66699 -58 20 -84l62 -121c27.333 -53.333 41 -103.666 41 -150.999v-140c0 -31.333 -6 -53 -18 -65s-33.667 -18 -65 -18c-30.667 0 -52.334 6.16699 -65.001 18.5s-19 33.833 -19 64.5v162h44v-170c0 -36.667 13.333 -55 40 -55
c17.333 0 28.666 5.33301 33.999 16c4 7.33301 6 20.333 6 39v137c0 44 -11.333 88 -34 132l-44 84c-16 32 -28 61 -36 87c-6.66699 20.667 -10 38.667 -10 54v98c0 30.667 6.33301 52 19 64s34.334 18 65.001 18s52.167 -6 64.5 -18s18.5 -33.333 18.5 -64v-145h-43v151
c0 19.333 -2 32.666 -6 39.999c-5.33301 10.667 -16.666 16 -33.999 16c-26.667 0 -40 -18.667 -40 -56z" />
    <glyph glyph-name="T" unicode="T" horiz-adv-x="177" 
d="M110 0h-44v708h-63v27h171v-27h-64v-708z" />
    <glyph glyph-name="U" unicode="U" 
d="M42 735h44.001v-667c0 -36.667 13.333 -55 40 -55s40 18.333 40 55v667h43v-659c0 -30.667 -6.16699 -52.167 -18.5 -64.5s-33.833 -18.5 -64.5 -18.5s-52.334 6.16699 -65.001 18.5s-19 33.833 -19 64.5v659z" />
    <glyph glyph-name="V" unicode="V" horiz-adv-x="231" 
d="M32 735h44v-358c0 -15.333 1.66699 -32 5 -50c4.66699 -30 7.33398 -46.667 8.00098 -50l26 -199h2l26 199c0.666992 3.33301 3.33398 20 8.00098 50c3.33301 18 5 34.667 5 50v358h43v-359c0 -20 -2.66699 -41.333 -8 -64c-8.66699 -38.667 -13.334 -60 -14.001 -64
l-44 -255h-35l-44 255c-0.666992 4 -5.33398 25.333 -14.001 64c-5.33301 22.667 -8 44 -8 64v359z" />
    <glyph glyph-name="W" unicode="W" horiz-adv-x="356" 
d="M156 735h43.998v-358c0 -15.333 1.66699 -32 5 -50c4.66699 -30 7.33398 -46.667 8.00098 -50l26 -199h1l26 199c0.666992 3.33301 3.33398 20 8.00098 50c3.33301 18 5 34.667 5 50v358h45v-359c0 -20 -2.66699 -41.333 -8 -64
c-8.66699 -38.667 -13.334 -60 -14.001 -64l-45 -255h-35l-43 273h-2l-44 -273h-34l-45 255c-0.666992 4 -5.33398 25.333 -14.001 64c-5.33301 22.667 -8 44 -8 64v359h45v-358c0 -15.333 1.66699 -32 5 -50c4.66699 -30 7.33398 -46.667 8.00098 -50l26 -199h1l26 199
c0.666992 3.33301 3.33398 20 8.00098 50c3.33301 18 5 34.667 5 50v358z" />
    <glyph glyph-name="X" unicode="X" horiz-adv-x="231" 
d="M76 735l39 -334h2l39 334h44l-53 -334c22 0 37 -9 45 -27c4.66699 -11.333 7 -30 7 -56v-318h-43v324c0 20.667 -2 34.167 -6 40.5s-15.333 9.5 -34 9.5s-30 -3.16699 -34 -9.5s-6 -19.833 -6 -40.5v-324h-44v318c0 55.333 17.667 83 53 83l-54 334h45z" />
    <glyph glyph-name="Y" unicode="Y" horiz-adv-x="207" 
d="M18 735h43.001v-414c0 -18.667 2 -31.667 6 -39c5.33301 -9.33301 16.666 -14 33.999 -14c18 0 29.667 4.33301 35 13c3.33301 6 5 19.333 5 40v414h44v-408c0 -54.667 -16.333 -82 -49 -82h-13v-245h-44v245h-12c-32.667 0 -49 27.333 -49 82v408z" />
    <glyph glyph-name="Z" unicode="Z" horiz-adv-x="242" 
d="M81 515l-43 0.00195312v220h167v-173c0 -33.333 -13 -75.333 -39 -126l-51 -99c-13.333 -26.667 -22.333 -49.334 -27 -68.001s-7 -40 -7 -64v-185h80v218h44v-238h-167v216c0 47.333 13.667 97.666 41 150.999l62 121c13.333 26 20 54 20 84v143h-80v-200z" />
    <glyph glyph-name="bracketleft" unicode="[" horiz-adv-x="162" 
d="M41 0v735h110v-27h-65v-680h65v-28h-110z" />
    <glyph glyph-name="backslash" unicode="\" 
d="M276 -95h-35l-248 837h35z" />
    <glyph glyph-name="bracketright" unicode="]" horiz-adv-x="162" 
d="M121 0h-110v28h66v680h-66v27h110v-735z" />
    <glyph glyph-name="asciicircum" unicode="^" horiz-adv-x="412" 
d="M234 730l145 -168h-68l-105 128l-105 -128h-68l145 168h56z" />
    <glyph glyph-name="underscore" unicode="_" horiz-adv-x="500" 
d="M-6 -116v37h512v-37h-512z" />
    <glyph glyph-name="grave" unicode="`" horiz-adv-x="210" 
d="M116 760l40 -122h-42l-63 122h65z" />
    <glyph glyph-name="a" unicode="a" 
d="M42 0l0.000976562 653c0 31.333 6.16699 52.833 18.5 64.5s34.166 17.5 65.499 17.5h83v-735h-43v374h-82v-374h-42zM84.001 401h82v312h-40c-28 0 -42 -18 -42 -54v-258z" />
    <glyph glyph-name="b" unicode="b" 
d="M121 0l-79 0.00195312v735h79c33.333 0 56.333 -5.33301 69 -16s19 -32.334 19 -65.001v-182c0 -24 -2.33301 -41.333 -7 -52c-6.66699 -15.333 -20 -25.333 -40 -30c20 -4 33.333 -14 40 -30c4.66699 -10.667 7 -28.334 7 -53.001v-225c0 -32 -6.5 -53.667 -19.5 -65
s-35.833 -17 -68.5 -17zM115 715.002l-28.998 0.000976562v-314h29c19.333 0 32.666 4.16699 39.999 12.5s11 22.166 11 41.499v205c0 20.667 -3.33301 35 -10 43s-20.334 12 -41.001 12zM115.002 379.003l-28.998 0.000976562v-359h29c19.333 0 32.666 4.16699 39.999 12.5
s11 22.166 11 41.499v250c0 20.667 -3.33301 35 -10 43s-20.334 12 -41.001 12z" />
    <glyph glyph-name="c" unicode="c" horiz-adv-x="242" 
d="M42 76v584c0 30.667 6.33301 52 19 64s34.334 18 65.001 18s52.167 -6 64.5 -18s18.5 -33.333 18.5 -64v-147h-43v153c0 37.333 -13.333 56 -40 56s-40 -18.667 -40 -56v-598c0 -36.667 13.333 -55 40 -55s40 18.333 40 55v170h43v-162c0 -31.333 -6 -53 -18 -65
s-33.667 -18 -65 -18c-30.667 0 -52.334 6.16699 -65.001 18.5s-19 33.833 -19 64.5z" />
    <glyph glyph-name="d" unicode="d" 
d="M121 0l-79 0.000976562v735h79c33.333 0 56.333 -5.33301 69 -16s19 -32.334 19 -65.001v-572c0 -32 -6.5 -53.667 -19.5 -65s-35.833 -17 -68.5 -17zM86 715.001l0.00195312 -694.999h29c19.333 0 32.666 4.16699 39.999 12.5s11 22.166 11 41.499v586
c0 20.667 -3.33301 35 -10 43s-20.334 12 -41.001 12h-29z" />
    <glyph glyph-name="e" unicode="e" horiz-adv-x="182" 
d="M167 0h-125v735h121v-27h-77v-307h71v-27h-71v-346h81v-28z" />
    <glyph glyph-name="f" unicode="f" horiz-adv-x="177" 
d="M86 0h-45v735h122v-27h-77v-307h71v-27h-71v-374z" />
    <glyph glyph-name="g" unicode="g" 
d="M42 76v584c0 30.667 6.33301 52 19 64s34.334 18 65.001 18s52.167 -6 64.5 -18s18.5 -33.333 18.5 -64v-147h-43v153c0 37.333 -13.333 56 -40 56s-40 -18.667 -40 -56v-598c0 -36.667 13.333 -55 40 -55s40 18.333 40 55v306h-51v27h94v-325c0 -31.333 -6 -53 -18 -65
s-33.667 -18 -65 -18c-30.667 0 -52.334 6.16699 -65.001 18.5s-19 33.833 -19 64.5z" />
    <glyph glyph-name="h" unicode="h" 
d="M85 0h-43v735h43v-334h81v334h43v-735h-43v374h-81v-374z" />
    <glyph glyph-name="i" unicode="i" horiz-adv-x="127" 
d="M41 0v735h45v-735h-45z" />
    <glyph glyph-name="j" unicode="j" horiz-adv-x="238" 
d="M151 735h45.001v-659c0 -30.667 -6.33301 -52.167 -19 -64.5s-34.334 -18.5 -65.001 -18.5c-30 0 -51.333 6.33301 -64 19s-19 34 -19 64v251h43v-259c0 -36.667 13.333 -55 40 -55c16.667 0 27.667 5.33301 33 16c4 7.33301 6 20.333 6 39v667z" />
    <glyph glyph-name="k" unicode="k" horiz-adv-x="241" 
d="M166 735h44l-69 -334c45.333 0 68 -27.667 68 -83v-318h-43v324c0 18.667 -2.33301 31.667 -7 39s-15.667 11 -33 11h-40v-374h-44v735h44v-334h21z" />
    <glyph glyph-name="l" unicode="l" horiz-adv-x="177" 
d="M167 0h-125v735h44v-707h81v-28z" />
    <glyph glyph-name="m" unicode="m" horiz-adv-x="311" 
d="M83 0h-41v735h35l79 -336l77 336h36v-735h-41v579l-72 -264l-73 264v-579z" />
    <glyph glyph-name="n" unicode="n" 
d="M82 0l-39.999 -0.000976562v735h34l93 -328v328h40v-735h-40v327c-2 14.667 -6 30.334 -12 47.001c-10.667 28 -16.334 43.333 -17.001 46l-58 185v-605z" />
    <glyph glyph-name="o" unicode="o" 
d="M42 76v584c0 30.667 6.33301 52 19 64s34.334 18 65.001 18s52.167 -6 64.5 -18s18.5 -33.333 18.5 -64v-584c0 -31.333 -6 -53 -18 -65s-33.667 -18 -65 -18c-30.667 0 -52.334 6.16699 -65.001 18.5s-19 33.833 -19 64.5zM86 666v-598c0 -36.667 13.333 -55 40 -55
s40 18.333 40 55v598c0 37.333 -13.333 56 -40 56s-40 -18.667 -40 -56z" />
    <glyph glyph-name="p" unicode="p" horiz-adv-x="240" 
d="M209 654l-0.000976562 -328c0 -39.333 -11.667 -63.666 -35 -72.999c-11.333 -5.33301 -40.666 -8 -87.999 -8v-245h-44v735h79c33.333 0 56.333 -5.33301 69 -16s19 -32.334 19 -65.001zM165.999 318l0.000976562 342c0 20.667 -3.33301 35 -10 43
s-20.334 12 -41.001 12h-29v-450h29c20 0 33.5 3.83301 40.5 11.5s10.5 21.5 10.5 41.5z" />
    <glyph glyph-name="q" unicode="q" 
d="M42 76l0.000976562 584c0 30.667 6.33301 52 19 64s34.334 18 65.001 18s52.167 -6 64.5 -18s18.5 -33.333 18.5 -64v-584c0 -16.667 -0.333008 -27 -1 -31l28 -22v-36l-39 32c-12.667 -17.333 -36.334 -26 -71.001 -26c-30.667 0 -52.334 6.16699 -65.001 18.5
s-19 33.833 -19 64.5zM86.001 666v-598c0 -36.667 13.333 -55 40 -55c20 0 32 9 36 27l-50 40v34l54 -42v594c0 37.333 -13.333 56 -40 56s-40 -18.667 -40 -56z" />
    <glyph glyph-name="r" unicode="r" 
d="M209 0l-42.999 0.00195312v324c0 20.667 -3.33301 35 -10 43s-20.334 12 -41.001 12h-29v-379h-44v735h79c33.333 0 56.333 -5.33301 69 -16s19 -32.334 19 -65.001v-182c0 -24 -2.33301 -41.333 -7 -52c-6.66699 -15.333 -20 -25.333 -40 -30c20 -4 33.333 -14 40 -30
c4.66699 -10.667 7 -28.334 7 -53.001v-307zM115.001 715.002l-28.998 0.000976562v-314h29c19.333 0 32.666 4.16699 39.999 12.5s11 22.166 11 41.499v205c0 20.667 -3.33301 35 -10 43s-20.334 12 -41.001 12z" />
    <glyph glyph-name="s" unicode="s" horiz-adv-x="235" 
d="M77 666v-94c0 -30 6.66699 -58 20 -84l62 -121c27.333 -53.333 41 -103.666 41 -150.999v-140c0 -31.333 -6 -53 -18 -65s-33.667 -18 -65 -18c-30.667 0 -52.334 6.16699 -65.001 18.5s-19 33.833 -19 64.5v162h44v-170c0 -36.667 13.333 -55 40 -55
c17.333 0 28.666 5.33301 33.999 16c4 7.33301 6 20.333 6 39v137c0 44 -11.333 88 -34 132l-44 84c-16 32 -28 61 -36 87c-6.66699 20.667 -10 38.667 -10 54v98c0 30.667 6.33301 52 19 64s34.334 18 65.001 18s52.167 -6 64.5 -18s18.5 -33.333 18.5 -64v-145h-43v151
c0 19.333 -2 32.666 -6 39.999c-5.33301 10.667 -16.666 16 -33.999 16c-26.667 0 -40 -18.667 -40 -56z" />
    <glyph glyph-name="t" unicode="t" horiz-adv-x="177" 
d="M110 0h-44v708h-63v27h171v-27h-64v-708z" />
    <glyph glyph-name="u" unicode="u" 
d="M42 735h44.001v-667c0 -36.667 13.333 -55 40 -55s40 18.333 40 55v667h43v-659c0 -30.667 -6.16699 -52.167 -18.5 -64.5s-33.833 -18.5 -64.5 -18.5s-52.334 6.16699 -65.001 18.5s-19 33.833 -19 64.5v659z" />
    <glyph glyph-name="v" unicode="v" horiz-adv-x="231" 
d="M32 735h44v-358c0 -15.333 1.66699 -32 5 -50c4.66699 -30 7.33398 -46.667 8.00098 -50l26 -199h2l26 199c0.666992 3.33301 3.33398 20 8.00098 50c3.33301 18 5 34.667 5 50v358h43v-359c0 -20 -2.66699 -41.333 -8 -64c-8.66699 -38.667 -13.334 -60 -14.001 -64
l-44 -255h-35l-44 255c-0.666992 4 -5.33398 25.333 -14.001 64c-5.33301 22.667 -8 44 -8 64v359z" />
    <glyph glyph-name="w" unicode="w" horiz-adv-x="356" 
d="M156 735h43.998v-358c0 -15.333 1.66699 -32 5 -50c4.66699 -30 7.33398 -46.667 8.00098 -50l26 -199h1l26 199c0.666992 3.33301 3.33398 20 8.00098 50c3.33301 18 5 34.667 5 50v358h45v-359c0 -20 -2.66699 -41.333 -8 -64
c-8.66699 -38.667 -13.334 -60 -14.001 -64l-45 -255h-35l-43 273h-2l-44 -273h-34l-45 255c-0.666992 4 -5.33398 25.333 -14.001 64c-5.33301 22.667 -8 44 -8 64v359h45v-358c0 -15.333 1.66699 -32 5 -50c4.66699 -30 7.33398 -46.667 8.00098 -50l26 -199h1l26 199
c0.666992 3.33301 3.33398 20 8.00098 50c3.33301 18 5 34.667 5 50v358z" />
    <glyph glyph-name="x" unicode="x" horiz-adv-x="231" 
d="M76 735l39 -334h2l39 334h44l-53 -334c22 0 37 -9 45 -27c4.66699 -11.333 7 -30 7 -56v-318h-43v324c0 20.667 -2 34.167 -6 40.5s-15.333 9.5 -34 9.5s-30 -3.16699 -34 -9.5s-6 -19.833 -6 -40.5v-324h-44v318c0 55.333 17.667 83 53 83l-54 334h45z" />
    <glyph glyph-name="y" unicode="y" horiz-adv-x="207" 
d="M18 735h43.001v-414c0 -18.667 2 -31.667 6 -39c5.33301 -9.33301 16.666 -14 33.999 -14c18 0 29.667 4.33301 35 13c3.33301 6 5 19.333 5 40v414h44v-408c0 -54.667 -16.333 -82 -49 -82h-13v-245h-44v245h-12c-32.667 0 -49 27.333 -49 82v408z" />
    <glyph glyph-name="z" unicode="z" horiz-adv-x="242" 
d="M81 515l-43 0.00195312v220h167v-173c0 -33.333 -13 -75.333 -39 -126l-51 -99c-13.333 -26.667 -22.333 -49.334 -27 -68.001s-7 -40 -7 -64v-185h80v218h44v-238h-167v216c0 47.333 13.667 97.666 41 150.999l62 121c13.333 26 20 54 20 84v143h-80v-200z" />
    <glyph glyph-name="braceleft" unicode="{" horiz-adv-x="396" 
d="M363 778v-35.999c-60.667 0 -98.667 -8.33301 -114 -25s-23 -55.334 -23 -116.001v-37c0.666992 -16 1 -28.333 1 -37c0 -53.333 -4.66699 -92 -14 -116c-10 -26 -34.667 -45.333 -74 -58c39.333 -12.667 63.833 -31.5 73.5 -56.5s14.5 -64.5 14.5 -118.5
c0 -8 -0.333008 -20 -1 -36v-35c0 -61.333 7.66699 -100.333 23 -117s53.333 -25 114 -25v-36h-16c-64.667 0 -108 13 -130 39c-20.667 24 -31 68.667 -31 134v105c0 47.333 -9.5 80.5 -28.5 99.5s-60.5 28.5 -124.5 28.5v36c56.667 0 95 7 115 21
c25.333 17.333 38 52.666 38 105.999v107c0 44.667 3.66699 77.667 11 99c11.333 32.667 34 54.334 68 65.001c19.333 6 52 9 98 9z" />
    <glyph glyph-name="bar" unicode="|" horiz-adv-x="565" 
d="M262 -123v889h40v-889h-40z" />
    <glyph glyph-name="braceright" unicode="}" horiz-adv-x="396" 
d="M49 778c44.667 0 77.667 -5.00195 99 -15.002c30 -14 48.667 -40 56 -78c4 -21.333 6 -83.666 6 -186.999c0 -52.667 13 -88 39 -106c20 -14 58 -21 114 -21v-36c-56.667 0 -95 -7 -115 -21c-25.333 -17.333 -38 -53 -38 -107v-105
c0 -44.667 -3.33301 -77.334 -10 -98.001c-11.333 -32.667 -34 -54.334 -68 -65.001c-21.333 -6.66699 -54.333 -10 -99 -10v36c60.667 0 98.667 8.33301 114 25s23 56.667 23 120v29.5v30.5c0 58 4.83301 99.833 14.5 125.5s33.834 44.834 72.501 57.501
c-38.667 12.667 -62.834 31.834 -72.501 57.501s-14.5 67.167 -14.5 124.5v32v31c0 62.667 -7.66699 102.334 -23 119.001s-53.333 25 -114 25v36h16z" />
    <glyph glyph-name="asciitilde" unicode="~" horiz-adv-x="940" 
d="M843 366l-0.00195312 -41.001c-79.333 -48.667 -150 -73 -212 -73c-18 0 -43 4.33301 -75 13l-45 12c-13.333 2.66699 -33.666 7.33398 -60.999 14.001l-69 21c-26 7.33301 -49.667 11 -71 11c-58 0 -128.667 -27 -212 -81v43c75.333 49.333 146 74 212 74
c36.667 0 90 -12 160 -36s123.667 -36 161 -36c56.667 0 127.334 26.333 212.001 79z" />
    <glyph glyph-name="currency" unicode="&#xa4;" horiz-adv-x="500" 
d="M251 467c-33.333 0 -62.333 -12.168 -87 -36.501s-37 -53.166 -37 -86.499c0 -34.667 12 -64.167 36 -88.5s53.333 -36.5 88 -36.5c34 0 63 12.333 87 37s36 54 36 88s-12 63 -36 87s-53 36 -87 36zM45 520.999l25.999 26.999l79 -80c29.333 22.667 62.333 34 99 34
s70.334 -11.333 101.001 -34l79 80l26 -27l-78 -78c22 -31.333 33 -65 33 -101c0 -36.667 -11 -69.667 -33 -99l78 -79l-26 -27l-79 80c-30 -22.667 -63.667 -34 -101 -34c-36 0 -69 11.333 -99 34l-79 -80l-26 27l78 79c-22.667 31.333 -34 64.333 -34 99
s11.333 68.334 34 101.001z" />
    <glyph glyph-name="brokenbar" unicode="&#xa6;" horiz-adv-x="565" 
d="M262 -123v382h40v-382h-40zM262 384v382h40v-382h-40z" />
    <glyph glyph-name="section" unicode="&#xa7;" 
d="M86 422v-112c0 -36.667 13.333 -55 40 -55s40 18.333 40 55v112c0 37.333 -13.333 56 -40 56s-40 -18.667 -40 -56zM166 68v109.001c0 22.667 -2.5 36.834 -7.5 42.501s-21 10.667 -48 15s-45.167 11.5 -54.5 21.5s-14 30 -14 60v94c0 44 16.333 70.333 49 79
c-32.667 8.66699 -49 35.667 -49 81v90c0 30.667 6.33301 52 19 64s34.334 18 65.001 18c42.667 0 68.667 -13.333 78 -40c3.33301 -10 5 -43.333 5 -100h-43v64c0 37.333 -13.333 56 -40 56s-40 -18.667 -40 -56v-111c0 -21.333 2.33301 -35.333 7 -42s15.667 -11 33 -13
c33.333 -4 55 -10.333 65 -19c12 -10.667 18 -32 18 -64v-93c0 -22.667 -2.66699 -39.334 -8 -50.001c-7.33301 -14 -21.666 -23.667 -42.999 -29c21.333 -5.33301 35.666 -15 42.999 -29c5.33301 -10.667 8 -27.334 8 -50.001v-90c0 -31.333 -6 -53 -18 -65
s-33.667 -18 -65 -18c-30.667 0 -52.334 6.16699 -65.001 18.5s-19 33.833 -19 64.5v85h44v-93c0 -36.667 13.333 -55 40 -55s40 18.333 40 55z" />
    <glyph glyph-name="copyright" unicode="&#xa9;" horiz-adv-x="797" 
d="M566 457h-47.001c-15.333 61.333 -55.333 92 -120 92c-49.333 0 -86.333 -20.333 -111 -61c-19.333 -33.333 -29 -76.666 -29 -129.999c0 -50 10.667 -92 32 -126c25.333 -40.667 61.333 -61 108 -61c32.667 0 60.667 9.16699 84 27.5s37.666 43.5 42.999 75.5h44
c-3.33301 -44 -22.666 -79.333 -57.999 -106c-32.667 -24.667 -71.667 -37 -117 -37c-61.333 0 -108.666 23.333 -141.999 70c-30 41.333 -45 93.666 -45 156.999c0 66 15.667 119.667 47 161c34.667 46 84 69 148 69c41.333 0 77.333 -11.333 108 -34
c32.667 -24.667 51 -57 55 -97zM397.999 685c-88.667 0 -164 -31.333 -226 -94c-66 -66.667 -99 -143.667 -99 -231c0 -89.333 32.333 -166.333 97 -231s140.667 -97 228 -97c86.667 0 164 33 232 99c62.667 60.667 94 137 94 229c0 91.333 -31.5 168.333 -94.5 231
s-140.167 94 -231.5 94zM397.999 723c102 0 188.5 -35.001 259.5 -105.001s106.5 -156 106.5 -258c0 -100.667 -35.833 -186.667 -107.5 -258s-157.834 -107 -258.501 -107c-74 0 -141.167 20.667 -201.5 62s-105.166 96.333 -134.499 165c-19.333 46 -29 92 -29 138
c0 100.667 35.667 186.334 107 257.001s157.333 106 258 106z" />
    <glyph glyph-name="guillemotleft" unicode="&#xab;" horiz-adv-x="298" 
d="M256 504v-47l-73 -82l73 -83v-46l-117 129zM157 504v-47l-73 -82l73 -83v-46l-117 129z" />
    <glyph glyph-name="logicalnot" unicode="&#xac;" horiz-adv-x="500" 
d="M386 392h-305v37h338v-160h-33v123z" />
    <glyph glyph-name="registered" unicode="&#xae;" horiz-adv-x="797" 
d="M399 538h-91v-155h90c41.333 0 70.333 3.33301 87 10c28 11.333 42 34.333 42 69c0 50.667 -42.667 76 -128 76zM256 151v427.999h155c117.333 0 176 -40 176 -120c0 -29.333 -9.83301 -54.166 -29.5 -74.499s-44.167 -32.5 -73.5 -36.5l96 -197h-60l-90 190h-122v-190
h-52zM398 684.999c-91.333 0 -167.667 -31.333 -229 -94c-64 -65.333 -96 -142.333 -96 -231c0 -86.667 32.5 -163 97.5 -229s140.833 -99 227.5 -99c88.667 0 166.667 33 234 99c61.333 60 92 136.333 92 229c0 91.333 -31.5 168.333 -94.5 231s-140.167 94 -231.5 94z
M397.999 722.999c103.333 0 190.165 -34.6689 260.498 -104.002s105.5 -155.666 105.5 -258.999c0 -50 -8.66699 -96.333 -26 -139c-27.333 -66.667 -72.666 -121 -135.999 -163s-131.333 -63 -204 -63c-74 0 -141.167 20.667 -201.5 62s-105.166 96.333 -134.499 165
c-19.333 46 -29 92 -29 138c0 100.667 35.667 186.334 107 257.001s157.333 106 258 106z" />
    <glyph glyph-name="degree" unicode="&#xb0;" horiz-adv-x="197" 
d="M133 634v33c0 20.667 -11.333 31 -34 31c-24 0 -36 -10.333 -36 -31v-33c0 -20.667 11.667 -31 35 -31s35 10.333 35 31zM32 634l-0.000976562 33c0 17.333 6.83301 31.5 20.5 42.5s29.167 16.5 46.5 16.5c18 0 33.5 -5.5 46.5 -16.5s19.5 -25.167 19.5 -42.5v-33
c0 -16.667 -7 -30.667 -21 -42s-29.333 -17 -46 -17c-17.333 0 -32.666 5.66699 -45.999 17s-20 25.333 -20 42z" />
    <glyph glyph-name="plusminus" unicode="&#xb1;" horiz-adv-x="500" 
d="M90 34v37h321v-37h-321zM234 400v177h33v-177h144v-37h-144v-177h-33v177h-144v37h144z" />
    <glyph glyph-name="mu" unicode="&#xb5;" horiz-adv-x="500" 
d="M82 -101h-37l113 475h36l-50 -211c-5.33301 -22.667 -8 -41 -8 -55c0 -60 31.333 -90 94 -90c38 0 70.667 17 98 51c22.667 28.667 39 63.667 49 105l47 200h36l-76 -316c-2 -8 -3 -14 -3 -18c0 -10.667 6 -17 18 -19h30l-9 -33c-5.33301 -1.33301 -13 -2 -23 -2
c-33.333 0 -50 17.667 -50 53c-32 -38 -74 -57 -126 -57c-53.333 0 -88.333 20.333 -105 61z" />
    <glyph glyph-name="mu" unicode="&#x3bc;" horiz-adv-x="500" 
d="M82 -101h-37l113 475h36l-50 -211c-5.33301 -22.667 -8 -41 -8 -55c0 -60 31.333 -90 94 -90c38 0 70.667 17 98 51c22.667 28.667 39 63.667 49 105l47 200h36l-76 -316c-2 -8 -3 -14 -3 -18c0 -10.667 6 -17 18 -19h30l-9 -33c-5.33301 -1.33301 -13 -2 -23 -2
c-33.333 0 -50 17.667 -50 53c-32 -38 -74 -57 -126 -57c-53.333 0 -88.333 20.333 -105 61z" />
    <glyph glyph-name="paragraph" unicode="&#xb6;" horiz-adv-x="500" 
d="M240 740l238 0.000976562v-36h-73v-704h-31v704h-108v-704h-33v388c-58.667 2.66699 -107 17.667 -145 45c-44 31.333 -66 74.666 -66 129.999c0 58 22.667 103 68 135c39.333 28 89.333 42 150 42z" />
    <glyph glyph-name="periodcentered" unicode="&#xb7;" horiz-adv-x="125" 
d="M32 368c0 8 3.16699 14.833 9.5 20.5s13.5 8.5 21.5 8.5c19.333 0 29 -9.66699 29 -29c0 -8 -2.83301 -15.167 -8.5 -21.5s-12.5 -9.5 -20.5 -9.5c-7.33301 0 -14.333 3.33301 -21 10s-10 13.667 -10 21z" />
    <glyph glyph-name="periodcentered" unicode="&#x2219;" horiz-adv-x="125" 
d="M32 368c0 8 3.16699 14.833 9.5 20.5s13.5 8.5 21.5 8.5c19.333 0 29 -9.66699 29 -29c0 -8 -2.83301 -15.167 -8.5 -21.5s-12.5 -9.5 -20.5 -9.5c-7.33301 0 -14.333 3.33301 -21 10s-10 13.667 -10 21z" />
    <glyph glyph-name="guillemotright" unicode="&#xbb;" horiz-adv-x="298" 
d="M141 246v46l73 83l-73 82v47l117 -129zM42 246v46l73 83l-73 82v47l117 -129z" />
    <glyph glyph-name="afii10023" unicode="&#x401;" horiz-adv-x="179" 
d="M167 0h-125v735h121v-26h-77v-308h60v-27h-60v-346h81v-28zM116 777v48h44v-48h-44zM86 777h-44v48h44v-48z" />
    <glyph glyph-name="afii10017" unicode="&#x410;" 
d="M42 0l0.000976562 653c0 31.333 6.16699 52.833 18.5 64.5s34.166 17.5 65.499 17.5h83v-735h-43v374h-82v-374h-42zM84.001 401h82v312h-40c-28 0 -42 -18 -42 -54v-258z" />
    <glyph glyph-name="afii10018" unicode="&#x411;" 
d="M195 715h-109v-314c45.333 0 75.333 -4.33301 90 -13c22 -12.667 33 -39.667 33 -81v-225c0 -32 -6.5 -53.667 -19.5 -65s-35.833 -17 -68.5 -17h-79v735h153v-20zM86 379l0.00195312 -358.999h29c19.333 0 32.666 4.16699 39.999 12.5s11 22.166 11 41.499v250
c0 20.667 -3.33301 35 -10 43s-20.334 12 -41.001 12h-29z" />
    <glyph glyph-name="afii10019" unicode="&#x412;" 
d="M121 0l-79 0.00195312v735h79c33.333 0 56.333 -5.33301 69 -16s19 -32.334 19 -65.001v-182c0 -24 -2.33301 -41.333 -7 -52c-6.66699 -15.333 -20 -25.333 -40 -30c20 -4 33.333 -14 40 -30c4.66699 -10.667 7 -28.334 7 -53.001v-225c0 -32 -6.5 -53.667 -19.5 -65
s-35.833 -17 -68.5 -17zM115 715.002l-28.998 0.000976562v-314h29c19.333 0 32.666 4.16699 39.999 12.5s11 22.166 11 41.499v205c0 20.667 -3.33301 35 -10 43s-20.334 12 -41.001 12zM115.002 379.003l-28.998 0.000976562v-359h29c19.333 0 32.666 4.16699 39.999 12.5
s11 22.166 11 41.499v250c0 20.667 -3.33301 35 -10 43s-20.334 12 -41.001 12z" />
    <glyph glyph-name="afii10020" unicode="&#x413;" horiz-adv-x="175" 
d="M86 0h-45v735h122v-27h-77v-708z" />
    <glyph glyph-name="afii10021" unicode="&#x414;" 
d="M86 659v-632h80v686h-40c-16.667 0 -28 -5 -34 -15c-4 -7.33301 -6 -20.333 -6 -39zM42 27l0.000976562 626c0 31.333 6.16699 52.833 18.5 64.5s34.166 17.5 65.499 17.5h83v-708h42v-27h-251v27h42z" />
    <glyph glyph-name="afii10022" unicode="&#x415;" horiz-adv-x="179" 
d="M167 0h-125v735h121v-27h-77v-307h60v-27h-60v-346h81v-28z" />
    <glyph glyph-name="afii10024" unicode="&#x416;" horiz-adv-x="340" 
d="M69 0h-45v318c0 55.333 23 83 69 83l-70 334h46l58 -334h21v334h44v-334h21l58 334h46l-70 -334c46 0 69 -27.667 69 -83v-318h-45v324c0 18.667 -2.33301 31.667 -7 39s-15.667 11 -33 11h-39v-374h-44v374h-39c-16.667 0 -27.5 -3.83301 -32.5 -11.5
s-7.5 -20.5 -7.5 -38.5v-324z" />
    <glyph glyph-name="afii10025" unicode="&#x417;" 
d="M42 76l0.000976562 162.002h44v-170c0 -36.667 13.333 -55 40 -55s40 18.333 40 55v252c0 23.333 -3.83301 38.666 -11.5 45.999s-20.167 11 -37.5 11h-22c-10 -0.666992 -18.333 -1 -25 -1v27c6 0 14 -0.333008 24 -1h21c18 0 31 3.66699 39 11s12 22.666 12 45.999v207
c0 37.333 -13.333 56 -40 56s-40 -18.667 -40 -56v-151h-44v145c0 30.667 6.33301 52 19 64s34.334 18 65.001 18s52.167 -6 64.5 -18s18.5 -33.333 18.5 -64v-191c0 -22.667 -3 -39.667 -9 -51c-7.33301 -14 -21.333 -23.667 -42 -29
c21.333 -5.33301 35.666 -15 42.999 -29c5.33301 -10.667 8 -28 8 -52v-232c0 -31.333 -6 -53 -18 -65s-33.667 -18 -65 -18c-30.667 0 -52.334 6.16699 -65.001 18.5s-19 33.833 -19 64.5z" />
    <glyph glyph-name="afii10026" unicode="&#x418;" horiz-adv-x="260" 
d="M173 0v617l-57 -197c-8 -20 -17.667 -53 -29 -99v-321h-40v735h40v-342l93 342h34v-735h-41z" />
    <glyph glyph-name="afii10027" unicode="&#x419;" horiz-adv-x="260" 
d="M196 834l-0.00195312 -20c0 -17.333 -6.66699 -31.666 -20 -42.999s-28.666 -17 -45.999 -17s-32.666 5.66699 -45.999 17s-20 25.666 -20 42.999v20h32c0 -17.333 1.33301 -29 4 -35c4.66699 -10.667 14.667 -16 30 -16c24 0 36 10.333 36 31v20h30zM172.998 0v617
l-57 -197c-8 -19.333 -17.667 -52 -29 -98v-322h-40v735h40v-342l93 342h34v-735h-41z" />
    <glyph glyph-name="afii10028" unicode="&#x41a;" horiz-adv-x="241" 
d="M166 735h44l-69 -334c45.333 0 68 -27.667 68 -83v-318h-43v324c0 20 -1.66699 33.667 -5 41c-6 10.667 -17.667 16 -35 16h-40v-381h-44v735h44v-334h21z" />
    <glyph glyph-name="afii10029" unicode="&#x41b;" 
d="M84 0h-83.999v27h42v626c0 31.333 6.16699 52.833 18.5 64.5s34.166 17.5 65.499 17.5h83v-735h-43v713h-40c-28 0 -42 -18 -42 -54v-659z" />
    <glyph glyph-name="afii10030" unicode="&#x41c;" horiz-adv-x="311" 
d="M83 0h-41v735h35l79 -336l77 336h36v-735h-41v579l-72 -264l-73 264v-579z" />
    <glyph glyph-name="afii10031" unicode="&#x41d;" 
d="M85 0h-43v735h43v-334h81v334h43v-735h-43v374h-81v-374z" />
    <glyph glyph-name="afii10032" unicode="&#x41e;" 
d="M42 76v584c0 30.667 6.33301 52 19 64s34.334 18 65.001 18s52.167 -6 64.5 -18s18.5 -33.333 18.5 -64v-584c0 -31.333 -6 -53 -18 -65s-33.667 -18 -65 -18c-30.667 0 -52.334 6.16699 -65.001 18.5s-19 33.833 -19 64.5zM86 666v-598c0 -36.667 13.333 -55 40 -55
s40 18.333 40 55v598c0 37.333 -13.333 56 -40 56s-40 -18.667 -40 -56z" />
    <glyph glyph-name="afii10033" unicode="&#x41f;" 
d="M166 708h-81v-708h-43v735h167v-735h-43v708z" />
    <glyph glyph-name="afii10034" unicode="&#x420;" horiz-adv-x="241" 
d="M209 654l-0.000976562 -328c0 -39.333 -11.667 -63.666 -35 -72.999c-11.333 -5.33301 -40.666 -8 -87.999 -8v-245h-44v735h79c33.333 0 56.333 -5.33301 69 -16s19 -32.334 19 -65.001zM165.999 318l0.000976562 342c0 20.667 -3.33301 35 -10 43
s-20.334 12 -41.001 12h-29v-450h29c20 0 33.5 3.83301 40.5 11.5s10.5 21.5 10.5 41.5z" />
    <glyph glyph-name="afii10035" unicode="&#x421;" horiz-adv-x="242" 
d="M42 76v584c0 30.667 6.33301 52 19 64s34.334 18 65.001 18s52.167 -6 64.5 -18s18.5 -33.333 18.5 -64v-147h-43v153c0 37.333 -13.333 56 -40 56s-40 -18.667 -40 -56v-598c0 -36.667 13.333 -55 40 -55s40 18.333 40 55v170h43v-162c0 -31.333 -6 -53 -18 -65
s-33.667 -18 -65 -18c-30.667 0 -52.334 6.16699 -65.001 18.5s-19 33.833 -19 64.5z" />
    <glyph glyph-name="afii10036" unicode="&#x422;" horiz-adv-x="170" 
d="M107 0h-45v708h-62v27h170v-27h-63v-708z" />
    <glyph glyph-name="afii10037" unicode="&#x423;" 
d="M42 159h44v-91c0 -36.667 13.667 -55 41 -55c16.667 0 27.667 5.33301 33 16c4 7.33301 6 20.333 6 39v177c-48 0 -77.667 2.33301 -89 7c-23.333 10 -35 34.667 -35 74v409h44v-417c0 -20 3.5 -33.833 10.5 -41.5s20.5 -11.5 40.5 -11.5h29v470h43v-659
c0 -30.667 -6 -52.167 -18 -64.5s-33.333 -18.5 -64 -18.5c-30 0 -51.667 6.33301 -65 19s-20 34 -20 64v83z" />
    <glyph glyph-name="afii10038" unicode="&#x424;" horiz-adv-x="356" 
d="M279 205v342c0 20 -3.33301 33.833 -10 41.5s-20 11.5 -40 11.5h-29v-449h29c20 0 33.333 4 40 12s10 22 10 42zM156 735h44v-114c48.667 0 78.667 -2.33301 90 -7c22.667 -9.33301 34 -34.333 34 -75v-327c0 -39.333 -11.667 -64 -35 -74
c-12 -5.33301 -41.667 -8 -89 -8v-130h-44v130c-47.333 0 -77 2.66699 -89 8c-23.333 10 -35 34.667 -35 74v327c0 40.667 11.333 65.667 34 75c11.333 4.66699 41.333 7 90 7v114zM77 205c0 -36 16.667 -54 50 -54h29v449h-29c-19.333 0 -32.5 -3.83301 -39.5 -11.5
s-10.5 -21.5 -10.5 -41.5v-342z" />
    <glyph glyph-name="afii10039" unicode="&#x425;" horiz-adv-x="231" 
d="M76 735l39 -334h2l39 334h44l-50 -334c32.667 0 49 -27.667 49 -83v-318h-43v324c0 20.667 -2 34.167 -6 40.5s-15.333 9.5 -34 9.5s-30 -3.16699 -34 -9.5s-6 -19.833 -6 -40.5v-324h-44v318c0 55.333 16.333 83 49 83l-50 334h45z" />
    <glyph glyph-name="afii10040" unicode="&#x426;" 
d="M166 735h43v-708h42v-27h-209v735h44v-708h80v708z" />
    <glyph glyph-name="afii10041" unicode="&#x427;" horiz-adv-x="240" 
d="M209 0h-43v245c-48 0 -77.667 2.33301 -89 7c-23.333 10 -35 34.667 -35 74v409h44v-417c0 -20 3.5 -33.833 10.5 -41.5s20.5 -11.5 40.5 -11.5h29v470h43v-735z" />
    <glyph glyph-name="afii10042" unicode="&#x428;" horiz-adv-x="374" 
d="M41 0v735h45v-708h79v708h44v-708h79v708h45v-735h-292z" />
    <glyph glyph-name="afii10043" unicode="&#x429;" horiz-adv-x="375" 
d="M41 0v735h45v-708h79v708h44v-708h79v708h45v-708h42v-27h-334z" />
    <glyph glyph-name="afii10044" unicode="&#x42a;" horiz-adv-x="277" 
d="M0 735h111v-334c46 0 76.333 -4.33301 91 -13c22 -12 33 -39 33 -81v-225c0 -31.333 -6.66699 -52.833 -20 -64.5s-36 -17.5 -68 -17.5h-80v708h-67v27zM111 379v-358.999h29c19.333 0 32.5 4.16699 39.5 12.5s10.5 22.166 10.5 41.499v250
c0 20 -3.33301 34.167 -10 42.5s-20 12.5 -40 12.5h-29z" />
    <glyph glyph-name="afii10045" unicode="&#x42b;" horiz-adv-x="342" 
d="M42 735h45v-334c44.667 0 74.667 -4.33301 90 -13c22 -12.667 33 -39.667 33 -81v-225c0 -32 -6.66699 -53.667 -20 -65s-36.333 -17 -69 -17h-79v735zM87 379l0.00195312 -358.999h28c19.333 0 32.666 4.16699 39.999 12.5s11 22.166 11 41.499v250
c0 20.667 -3.33301 35 -10 43s-20.334 12 -41.001 12h-28zM256.002 0.000976562v735h44v-735h-44z" />
    <glyph glyph-name="afii10046" unicode="&#x42c;" 
d="M42 735h44v-334c45.333 0 75.333 -4.33301 90 -13c22 -12.667 33 -39.667 33 -81v-225c0 -32 -6.5 -53.667 -19.5 -65s-35.833 -17 -68.5 -17h-79v735zM86 379l0.00195312 -358.999h29c19.333 0 32.666 4.16699 39.999 12.5s11 22.166 11 41.499v250
c0 20.667 -3.33301 35 -10 43s-20.334 12 -41.001 12h-29z" />
    <glyph glyph-name="afii10047" unicode="&#x42d;" horiz-adv-x="242" 
d="M209 76c0 -31.333 -6 -53 -18 -65s-33.667 -18 -65 -18c-30.667 0 -52.334 6.16699 -65.001 18.5s-19 33.833 -19 64.5v162h44v-170c0 -36.667 13.333 -55 40 -55s40 18.333 40 55v306h-80v27h80v265c0 37.333 -13.333 56 -40 56s-40 -18.667 -40 -56v-153h-44v147
c0 30.667 6.33301 52 19 64s34.334 18 65.001 18s52.167 -6 64.5 -18s18.5 -33.333 18.5 -64v-584z" />
    <glyph glyph-name="afii10048" unicode="&#x42e;" horiz-adv-x="368" 
d="M42 0v735h45v-334h71v259c0 30.667 6.33301 52 19 64s34.334 18 65.001 18s52.334 -6 65.001 -18s19 -33.333 19 -64v-584c0 -30.667 -6.33301 -52.167 -19 -64.5s-34.334 -18.5 -65.001 -18.5s-52.334 6.16699 -65.001 18.5s-19 33.833 -19 64.5v298h-71v-374h-45z
M202 666v-598c0 -36.667 13.333 -55 40 -55c16.667 0 27.667 5.33301 33 16c4 7.33301 6 20.333 6 39v598c0 18.667 -1.66699 31.667 -5 39c-6 11.333 -17.333 17 -34 17c-26.667 0 -40 -18.667 -40 -56z" />
    <glyph glyph-name="afii10049" unicode="&#x42f;" 
d="M42 27l0.000976562 280c0 49.333 15.667 77 47 83c-31.333 7.33301 -47 34.666 -47 81.999v182c0 32.667 6.33301 54.334 19 65.001s35.667 16 69 16h79v-735h-44v379h-28c-20.667 0 -34.334 -4 -41.001 -12s-10 -22.333 -10 -43v-324h-86v27h42zM137.001 715
c-20.667 0 -34.332 -4.00098 -40.999 -12.001s-10 -22.333 -10 -43v-205c0 -19.333 3.66699 -33.166 11 -41.499s20.666 -12.5 39.999 -12.5h28v314h-28z" />
    <glyph glyph-name="afii10065" unicode="&#x430;" 
d="M42 0l0.000976562 653c0 31.333 6.16699 52.833 18.5 64.5s34.166 17.5 65.499 17.5h83v-735h-43v374h-82v-374h-42zM84.001 401h82v312h-40c-28 0 -42 -18 -42 -54v-258z" />
    <glyph glyph-name="afii10066" unicode="&#x431;" 
d="M195 715h-109v-314c45.333 0 75.333 -4.33301 90 -13c22 -12.667 33 -39.667 33 -81v-225c0 -32 -6.5 -53.667 -19.5 -65s-35.833 -17 -68.5 -17h-79v735h153v-20zM86 379l0.00195312 -358.999h29c19.333 0 32.666 4.16699 39.999 12.5s11 22.166 11 41.499v250
c0 20.667 -3.33301 35 -10 43s-20.334 12 -41.001 12h-29z" />
    <glyph glyph-name="afii10067" unicode="&#x432;" 
d="M121 0l-79 0.00195312v735h79c33.333 0 56.333 -5.33301 69 -16s19 -32.334 19 -65.001v-182c0 -24 -2.33301 -41.333 -7 -52c-6.66699 -15.333 -20 -25.333 -40 -30c20 -4 33.333 -14 40 -30c4.66699 -10.667 7 -28.334 7 -53.001v-225c0 -32 -6.5 -53.667 -19.5 -65
s-35.833 -17 -68.5 -17zM115 715.002l-28.998 0.000976562v-314h29c19.333 0 32.666 4.16699 39.999 12.5s11 22.166 11 41.499v205c0 20.667 -3.33301 35 -10 43s-20.334 12 -41.001 12zM115.002 379.003l-28.998 0.000976562v-359h29c19.333 0 32.666 4.16699 39.999 12.5
s11 22.166 11 41.499v250c0 20.667 -3.33301 35 -10 43s-20.334 12 -41.001 12z" />
    <glyph glyph-name="afii10068" unicode="&#x433;" horiz-adv-x="175" 
d="M86 0h-45v735h122v-27h-77v-708z" />
    <glyph glyph-name="afii10069" unicode="&#x434;" 
d="M86 659v-632h80v686h-40c-16.667 0 -28 -5 -34 -15c-4 -7.33301 -6 -20.333 -6 -39zM42 27l0.000976562 626c0 31.333 6.16699 52.833 18.5 64.5s34.166 17.5 65.499 17.5h83v-708h42v-27h-251v27h42z" />
    <glyph glyph-name="afii10070" unicode="&#x435;" horiz-adv-x="179" 
d="M167 0h-125v735h121v-27h-77v-307h60v-27h-60v-346h81v-28z" />
    <glyph glyph-name="afii10072" unicode="&#x436;" horiz-adv-x="340" 
d="M69 0h-45v318c0 55.333 23 83 69 83l-70 334h46l58 -334h21v334h44v-334h21l58 334h46l-70 -334c46 0 69 -27.667 69 -83v-318h-45v324c0 18.667 -2.33301 31.667 -7 39s-15.667 11 -33 11h-39v-374h-44v374h-39c-16.667 0 -27.5 -3.83301 -32.5 -11.5
s-7.5 -20.5 -7.5 -38.5v-324z" />
    <glyph glyph-name="afii10073" unicode="&#x437;" 
d="M42 76l0.000976562 162.002h44v-170c0 -36.667 13.333 -55 40 -55s40 18.333 40 55v252c0 23.333 -3.83301 38.666 -11.5 45.999s-20.167 11 -37.5 11h-22c-10 -0.666992 -18.333 -1 -25 -1v27c6 0 14 -0.333008 24 -1h21c18 0 31 3.66699 39 11s12 22.666 12 45.999v207
c0 37.333 -13.333 56 -40 56s-40 -18.667 -40 -56v-151h-44v145c0 30.667 6.33301 52 19 64s34.334 18 65.001 18s52.167 -6 64.5 -18s18.5 -33.333 18.5 -64v-191c0 -22.667 -3 -39.667 -9 -51c-7.33301 -14 -21.333 -23.667 -42 -29
c21.333 -5.33301 35.666 -15 42.999 -29c5.33301 -10.667 8 -28 8 -52v-232c0 -31.333 -6 -53 -18 -65s-33.667 -18 -65 -18c-30.667 0 -52.334 6.16699 -65.001 18.5s-19 33.833 -19 64.5z" />
    <glyph glyph-name="afii10074" unicode="&#x438;" horiz-adv-x="260" 
d="M173 0v617l-57 -197c-8 -20 -17.667 -53 -29 -99v-321h-40v735h40v-342l93 342h34v-735h-41z" />
    <glyph glyph-name="afii10075" unicode="&#x439;" horiz-adv-x="260" 
d="M196 834l-0.00195312 -20c0 -17.333 -6.66699 -31.666 -20 -42.999s-28.666 -17 -45.999 -17s-32.666 5.66699 -45.999 17s-20 25.666 -20 42.999v20h32c0 -17.333 1.33301 -29 4 -35c4.66699 -10.667 14.667 -16 30 -16c24 0 36 10.333 36 31v20h30zM172.998 0v617
l-57 -197c-8 -19.333 -17.667 -52 -29 -98v-322h-40v735h40v-342l93 342h34v-735h-41z" />
    <glyph glyph-name="afii10076" unicode="&#x43a;" horiz-adv-x="241" 
d="M166 735h44l-69 -334c45.333 0 68 -27.667 68 -83v-318h-43v324c0 20 -1.66699 33.667 -5 41c-6 10.667 -17.667 16 -35 16h-40v-381h-44v735h44v-334h21z" />
    <glyph glyph-name="afii10077" unicode="&#x43b;" 
d="M84 0h-83.999v27h42v626c0 31.333 6.16699 52.833 18.5 64.5s34.166 17.5 65.499 17.5h83v-735h-43v713h-40c-28 0 -42 -18 -42 -54v-659z" />
    <glyph glyph-name="afii10078" unicode="&#x43c;" horiz-adv-x="311" 
d="M83 0h-41v735h35l79 -336l77 336h36v-735h-41v579l-72 -264l-73 264v-579z" />
    <glyph glyph-name="afii10079" unicode="&#x43d;" 
d="M85 0h-43v735h43v-334h81v334h43v-735h-43v374h-81v-374z" />
    <glyph glyph-name="afii10080" unicode="&#x43e;" 
d="M42 76v584c0 30.667 6.33301 52 19 64s34.334 18 65.001 18s52.167 -6 64.5 -18s18.5 -33.333 18.5 -64v-584c0 -31.333 -6 -53 -18 -65s-33.667 -18 -65 -18c-30.667 0 -52.334 6.16699 -65.001 18.5s-19 33.833 -19 64.5zM86 666v-598c0 -36.667 13.333 -55 40 -55
s40 18.333 40 55v598c0 37.333 -13.333 56 -40 56s-40 -18.667 -40 -56z" />
    <glyph glyph-name="afii10081" unicode="&#x43f;" 
d="M166 708h-81v-708h-43v735h167v-735h-43v708z" />
    <glyph glyph-name="afii10082" unicode="&#x440;" horiz-adv-x="241" 
d="M209 654l-0.000976562 -328c0 -39.333 -11.667 -63.666 -35 -72.999c-11.333 -5.33301 -40.666 -8 -87.999 -8v-245h-44v735h79c33.333 0 56.333 -5.33301 69 -16s19 -32.334 19 -65.001zM165.999 318l0.000976562 342c0 20.667 -3.33301 35 -10 43
s-20.334 12 -41.001 12h-29v-450h29c20 0 33.5 3.83301 40.5 11.5s10.5 21.5 10.5 41.5z" />
    <glyph glyph-name="afii10083" unicode="&#x441;" horiz-adv-x="242" 
d="M42 76v584c0 30.667 6.33301 52 19 64s34.334 18 65.001 18s52.167 -6 64.5 -18s18.5 -33.333 18.5 -64v-147h-43v153c0 37.333 -13.333 56 -40 56s-40 -18.667 -40 -56v-598c0 -36.667 13.333 -55 40 -55s40 18.333 40 55v170h43v-162c0 -31.333 -6 -53 -18 -65
s-33.667 -18 -65 -18c-30.667 0 -52.334 6.16699 -65.001 18.5s-19 33.833 -19 64.5z" />
    <glyph glyph-name="afii10084" unicode="&#x442;" horiz-adv-x="170" 
d="M107 0h-45v708h-62v27h170v-27h-63v-708z" />
    <glyph glyph-name="afii10085" unicode="&#x443;" 
d="M42 159h44v-91c0 -36.667 13.667 -55 41 -55c16.667 0 27.667 5.33301 33 16c4 7.33301 6 20.333 6 39v177c-48 0 -77.667 2.33301 -89 7c-23.333 10 -35 34.667 -35 74v409h44v-417c0 -20 3.5 -33.833 10.5 -41.5s20.5 -11.5 40.5 -11.5h29v470h43v-659
c0 -30.667 -6 -52.167 -18 -64.5s-33.333 -18.5 -64 -18.5c-30 0 -51.667 6.33301 -65 19s-20 34 -20 64v83z" />
    <glyph glyph-name="afii10086" unicode="&#x444;" horiz-adv-x="356" 
d="M279 205v342c0 20 -3.33301 33.833 -10 41.5s-20 11.5 -40 11.5h-29v-449h29c20 0 33.333 4 40 12s10 22 10 42zM156 735h44v-114c48.667 0 78.667 -2.33301 90 -7c22.667 -9.33301 34 -34.333 34 -75v-327c0 -39.333 -11.667 -64 -35 -74
c-12 -5.33301 -41.667 -8 -89 -8v-130h-44v130c-47.333 0 -77 2.66699 -89 8c-23.333 10 -35 34.667 -35 74v327c0 40.667 11.333 65.667 34 75c11.333 4.66699 41.333 7 90 7v114zM77 205c0 -36 16.667 -54 50 -54h29v449h-29c-19.333 0 -32.5 -3.83301 -39.5 -11.5
s-10.5 -21.5 -10.5 -41.5v-342z" />
    <glyph glyph-name="afii10087" unicode="&#x445;" horiz-adv-x="231" 
d="M76 735l39 -334h2l39 334h44l-50 -334c32.667 0 49 -27.667 49 -83v-318h-43v324c0 20.667 -2 34.167 -6 40.5s-15.333 9.5 -34 9.5s-30 -3.16699 -34 -9.5s-6 -19.833 -6 -40.5v-324h-44v318c0 55.333 16.333 83 49 83l-50 334h45z" />
    <glyph glyph-name="afii10088" unicode="&#x446;" 
d="M166 735h43v-708h42v-27h-209v735h44v-708h80v708z" />
    <glyph glyph-name="afii10089" unicode="&#x447;" horiz-adv-x="240" 
d="M209 0h-43v245c-48 0 -77.667 2.33301 -89 7c-23.333 10 -35 34.667 -35 74v409h44v-417c0 -20 3.5 -33.833 10.5 -41.5s20.5 -11.5 40.5 -11.5h29v470h43v-735z" />
    <glyph glyph-name="afii10090" unicode="&#x448;" horiz-adv-x="374" 
d="M41 0v735h45v-708h79v708h44v-708h79v708h45v-735h-292z" />
    <glyph glyph-name="afii10091" unicode="&#x449;" horiz-adv-x="375" 
d="M41 0v735h45v-708h79v708h44v-708h79v708h45v-708h42v-27h-334z" />
    <glyph glyph-name="afii10092" unicode="&#x44a;" horiz-adv-x="277" 
d="M0 735h111v-334c46 0 76.333 -4.33301 91 -13c22 -12 33 -39 33 -81v-225c0 -31.333 -6.66699 -52.833 -20 -64.5s-36 -17.5 -68 -17.5h-80v708h-67v27zM111 379v-358.999h29c19.333 0 32.5 4.16699 39.5 12.5s10.5 22.166 10.5 41.499v250
c0 20 -3.33301 34.167 -10 42.5s-20 12.5 -40 12.5h-29z" />
    <glyph glyph-name="afii10093" unicode="&#x44b;" horiz-adv-x="342" 
d="M42 735h45v-334c44.667 0 74.667 -4.33301 90 -13c22 -12.667 33 -39.667 33 -81v-225c0 -32 -6.66699 -53.667 -20 -65s-36.333 -17 -69 -17h-79v735zM87 379l0.00195312 -358.999h28c19.333 0 32.666 4.16699 39.999 12.5s11 22.166 11 41.499v250
c0 20.667 -3.33301 35 -10 43s-20.334 12 -41.001 12h-28zM256.002 0.000976562v735h44v-735h-44z" />
    <glyph glyph-name="afii10094" unicode="&#x44c;" 
d="M42 735h44v-334c45.333 0 75.333 -4.33301 90 -13c22 -12.667 33 -39.667 33 -81v-225c0 -32 -6.5 -53.667 -19.5 -65s-35.833 -17 -68.5 -17h-79v735zM86 379l0.00195312 -358.999h29c19.333 0 32.666 4.16699 39.999 12.5s11 22.166 11 41.499v250
c0 20.667 -3.33301 35 -10 43s-20.334 12 -41.001 12h-29z" />
    <glyph glyph-name="afii10095" unicode="&#x44d;" horiz-adv-x="242" 
d="M209 76c0 -31.333 -6 -53 -18 -65s-33.667 -18 -65 -18c-30.667 0 -52.334 6.16699 -65.001 18.5s-19 33.833 -19 64.5v162h44v-170c0 -36.667 13.333 -55 40 -55s40 18.333 40 55v306h-80v27h80v265c0 37.333 -13.333 56 -40 56s-40 -18.667 -40 -56v-153h-44v147
c0 30.667 6.33301 52 19 64s34.334 18 65.001 18s52.167 -6 64.5 -18s18.5 -33.333 18.5 -64v-584z" />
    <glyph glyph-name="afii10096" unicode="&#x44e;" horiz-adv-x="368" 
d="M42 0v735h45v-334h71v259c0 30.667 6.33301 52 19 64s34.334 18 65.001 18s52.334 -6 65.001 -18s19 -33.333 19 -64v-584c0 -30.667 -6.33301 -52.167 -19 -64.5s-34.334 -18.5 -65.001 -18.5s-52.334 6.16699 -65.001 18.5s-19 33.833 -19 64.5v298h-71v-374h-45z
M202 666v-598c0 -36.667 13.333 -55 40 -55c16.667 0 27.667 5.33301 33 16c4 7.33301 6 20.333 6 39v598c0 18.667 -1.66699 31.667 -5 39c-6 11.333 -17.333 17 -34 17c-26.667 0 -40 -18.667 -40 -56z" />
    <glyph glyph-name="afii10097" unicode="&#x44f;" 
d="M42 27l0.000976562 280c0 49.333 15.667 77 47 83c-31.333 7.33301 -47 34.666 -47 81.999v182c0 32.667 6.33301 54.334 19 65.001s35.667 16 69 16h79v-735h-44v379h-28c-20.667 0 -34.334 -4 -41.001 -12s-10 -22.333 -10 -43v-324h-86v27h42zM137.001 715
c-20.667 0 -34.332 -4.00098 -40.999 -12.001s-10 -22.333 -10 -43v-205c0 -19.333 3.66699 -33.166 11 -41.499s20.666 -12.5 39.999 -12.5h28v314h-28z" />
    <glyph glyph-name="afii10071" unicode="&#x451;" horiz-adv-x="179" 
d="M167 0h-125v735h121v-26h-77v-308h60v-27h-60v-346h81v-28zM116 777v48h44v-48h-44zM86 777h-44v48h44v-48z" />
    <glyph glyph-name="endash" unicode="&#x2013;" horiz-adv-x="565" 
d="M-8 359v29h581v-29h-581z" />
    <glyph glyph-name="emdash" unicode="&#x2014;" horiz-adv-x="1128" 
d="M-8 359v29h1144v-29h-1144z" />
    <glyph glyph-name="quoteleft" unicode="&#x2018;" horiz-adv-x="125" 
d="M88 659v-57h-53v55l34 87h23l-32 -85h28z" />
    <glyph glyph-name="quoteright" unicode="&#x2019;" horiz-adv-x="125" 
d="M38 680v57h52v-55l-35 -87h-21l31 85h-27z" />
    <glyph glyph-name="quotesinglbase" unicode="&#x201a;" horiz-adv-x="125" 
d="M38 -3v57h52v-55l-35 -87h-21l31 85h-27z" />
    <glyph glyph-name="quotedblleft" unicode="&#x201c;" horiz-adv-x="214" 
d="M176 659v-57h-53v55l37 87h21l-31 -85h26zM88 659v-57h-52v55l33 87h23l-32 -85h28z" />
    <glyph glyph-name="quotedblright" unicode="&#x201d;" horiz-adv-x="214" 
d="M126 680v57h53v-55l-35 -87h-23l34 85h-29zM39 680v57h51v-55l-35 -87h-20l30 85h-26z" />
    <glyph glyph-name="quotedblbase" unicode="&#x201e;" horiz-adv-x="214" 
d="M126 -3v57h53v-55l-35 -86h-23l34 84h-29zM39 -3v57h51v-55l-35 -86h-20l30 84h-26z" />
    <glyph glyph-name="dagger" unicode="&#x2020;" 
d="M106 516v219h39v-219h79v-34h-79v-482h-39v482h-79v34h79z" />
    <glyph glyph-name="bullet" unicode="&#x2022;" horiz-adv-x="665" 
d="M169 381c0 20 4.66895 39.333 14.002 58c30 60.667 80 91 150 91c42.667 0 80.5 -14.333 113.5 -43s49.5 -64 49.5 -106s-16.833 -77.667 -50.5 -107s-71.834 -44 -114.501 -44s-80.334 14.667 -113.001 44s-49 65 -49 107z" />
    <glyph glyph-name="ellipsis" unicode="&#x2026;" horiz-adv-x="442" 
d="M98 0h-54v60h54v-60zM248 0h-54v60h54v-60zM398 0h-54v60h54v-60z" />
    <glyph glyph-name="perthousand" unicode="&#x2030;" horiz-adv-x="607" 
d="M484 45c0 -20 7.66699 -30 23 -30c16.667 0 25 7 25 21v334c0 20.667 -8.33301 31 -25 31c-15.333 0 -23 -9.66699 -23 -29v-327zM450 42v332c0 32.667 19 49 57 49c20 0 34 -2.66699 42 -8c10.667 -7.33301 16 -21 16 -41v-332c0 -32.667 -19.333 -49 -58 -49
c-38 0 -57 16.333 -57 49zM316 45c0 -20 8 -30 24 -30c16.667 0 25 7 25 21v334c0 20.667 -8.33301 31 -25 31c-16 0 -24 -9.66699 -24 -29v-327zM282 42v332.001c0 32.667 19.333 49 58 49c20.667 0 34.667 -2.66699 42 -8c10 -6.66699 15 -20.334 15 -41.001v-332
c0 -19.333 -4.5 -32.333 -13.5 -39s-23.5 -10 -43.5 -10c-38.667 0 -58 16.333 -58 49zM76 364.001c0 -19.333 8 -28.999 24 -28.999c15.333 0 23 6.33301 23 19v336c0 11.333 -1.16699 19.166 -3.5 23.499s-8.83301 6.5 -19.5 6.5c-16 0 -24 -9 -24 -27v-329zM42 362.002
v331c0 32.667 19.333 49 58 49c20 0 34.5 -3.16699 43.5 -9.5s13.5 -19.5 13.5 -39.5v-331c0 -32.667 -19 -49 -57 -49c-38.667 0 -58 16.333 -58 49zM62 -6.99805l284 749h32l-283 -749h-33z" />
    <glyph glyph-name="guilsinglleft" unicode="&#x2039;" horiz-adv-x="198" 
d="M157 504v-47l-74 -82l74 -83v-46l-118 129z" />
    <glyph glyph-name="guilsinglright" unicode="&#x203a;" horiz-adv-x="198" 
d="M41 246v46l74 83l-74 82v47l118 -129z" />
    <glyph glyph-name="afii61352" unicode="&#x2116;" horiz-adv-x="409" 
d="M82 0h-41v735h35l92 -326v326h41v-735h-41v303c-2 15.333 -6 31.333 -12 48c-10 28 -15.667 43.333 -17 46l-57 189v-586zM317 529c40.667 0 61 -18.333 61 -55v-252c0 -36 -20.333 -54 -61 -54s-61 18 -61 54v252c0 36.667 20.333 55 61 55zM296 216c0 -18 7 -27 21 -27
c13.333 0 20 9 20 27v265c0 10.667 -1 17.667 -3 21s-7.66699 5 -17 5c-14 0 -21 -8.66699 -21 -26v-265zM256 137h122v-27h-122v27z" />
    <glyph glyph-name="trademark" unicode="&#x2122;" horiz-adv-x="500" 
d="M237 461v267h49l66 -207l60 207h49v-267h-33v202l-61 -202h-30l-67 205v-205h-33zM18 702v26h180v-26h-72v-241h-35v241h-73z" />
    <glyph glyph-name=".null" horiz-adv-x="0" 
 />
    <glyph glyph-name="nonmarkingreturn" horiz-adv-x="200" 
 />
    </font>
</defs>
</svg>
