<?xml version="1.0" standalone="no"?>
<!DOCTYPE svg PUBLIC "-//W3C//DTD SVG 1.1//EN" "http://www.w3.org/Graphics/SVG/1.1/DTD/svg11.dtd" >
<svg>
<metadata>
Created by FontForge 20090914 at Mon May 18 11:09:26 2020
 By www-data
Copyright (c) Jason Walcott/Jukebox, 2003. All Rights Reserved.
</metadata>
<defs>
<font id="LuxuryRoyaleJF" horiz-adv-x="402" >
  <font-face 
    font-family="Luxury Royale JF"
    font-weight="400"
    font-stretch="normal"
    units-per-em="1000"
    panose-1="0 0 4 0 0 0 0 0 0 0"
    ascent="800"
    descent="-200"
    x-height="215.001"
    cap-height="735"
    bbox="-406.003 -340.998 2028 947.001"
    underline-thickness="50"
    underline-position="-75"
    unicode-range="U+0020-U+F002"
  />
<missing-glyph horiz-adv-x="500" 
d="M63 0v895h375v-895h-375zM125 63h250v770h-250v-770z" />
    <glyph glyph-name=".notdef" horiz-adv-x="500" 
d="M63 0v895h375v-895h-375zM125 63h250v770h-250v-770z" />
    <glyph glyph-name="space" unicode=" " horiz-adv-x="200" 
 />
    <glyph glyph-name="exclam" unicode="!" horiz-adv-x="321" 
d="M543 551l-364.999 -416.999c-8.66699 -10 -15 -15 -19 -15h-13c-4.66699 0 -8.33398 1.66699 -11.001 5s-2.66699 6.66602 0 9.99902l316 431c8 10.667 16.333 15 25 13l56 -12c8.66699 -2 13 -5.33301 13 -10c0 -2 -0.666992 -3.66699 -2 -5zM139.001 52.001
c0.666992 -9.33301 -5.00098 -21.6689 -17.001 -37.002s-23.333 -23 -34 -23c-9.33301 0 -17.666 3 -24.999 9s-11 12.667 -11 20c0 8.66699 5.5 19.334 16.5 32.001s21.5 20.334 31.5 23.001c7.33301 1.33301 15.5 -0.5 24.5 -5.5s13.833 -11.167 14.5 -18.5z" />
    <glyph glyph-name="quotedbl" unicode="&#x22;" horiz-adv-x="430" 
d="M474 558c0 -19.333 -13.498 -45.002 -40.498 -77.002s-49.5 -48 -67.5 -48c-6 0 -12 1.66699 -18 5c11.333 4 23.666 13.333 36.999 28s20 26.667 20 36c-12 0 -18 8.33301 -18 25c0 8.66699 5.5 19.334 16.5 32.001s21.5 20.334 31.5 23.001
c7.33301 1.33301 15.666 -0.5 24.999 -5.5s14 -11.167 14 -18.5zM374.002 557.998c0 -19.333 -13.666 -45.002 -40.999 -77.002s-49.666 -48 -66.999 -48c-6 0 -12 1.66699 -18 5c11.333 4 23.666 13.333 36.999 28s20 26.667 20 36c-12 0 -18 8.33301 -18 25
c0 8.66699 5.5 19.334 16.5 32.001s21.5 20.334 31.5 23.001c7.33301 1.33301 15.666 -0.5 24.999 -5.5s14 -11.167 14 -18.5z" />
    <glyph glyph-name="numbersign" unicode="#" horiz-adv-x="387" 
d="M493 422l-6 -11c-6 -10 -14 -15 -24 -15h-99l-36 -65h99c10 0 12 -5 6 -15l-6 -11c-5.33301 -10 -13 -15 -23 -15h-99l-89 -157c-5.33301 -10 -13 -15 -23 -15h-11c-10 0 -12.333 5 -7 15l89 157h-65l-89 -157c-5.33301 -10 -13 -15 -23 -15h-11c-10 0 -12.333 5 -7 15
l89 157h-83c-10 0 -12.333 5 -7 15l6 11c6 10 14 15 24 15h83l36 65h-83c-10 0 -12 5 -6 15l6 11c5.33301 10 13 15 23 15h83l93 165c5.33301 10 13.333 15 24 15h11c9.33301 0 11.333 -5 6 -15l-93 -165h65l93 165c5.33301 10 13.333 15 24 15h11
c9.33301 0 11.333 -5 6 -15l-93 -165h99c10 0 12.333 -5 7 -15zM323 396h-65l-36 -65h65z" />
    <glyph glyph-name="dollar" unicode="$" horiz-adv-x="659" 
d="M804 564c0 -17.333 -8.50098 -39.5 -25.501 -66.5s-33.167 -40.5 -48.5 -40.5c-38 0 -94 15.667 -168 47l-130 -196c44.667 -61.333 67 -110.666 67 -147.999c0 -45.333 -30.667 -83.666 -92 -114.999c-52 -26.667 -112 -42.334 -180 -47.001l-75 -113
c-6.66699 -10 -11.334 -15 -14.001 -15c-4.66699 0 -10.167 1.66699 -16.5 5s-8.5 6.66602 -6.5 9.99902l74 112c-37.333 0.666992 -67.666 7.66699 -90.999 21c-25.333 14 -38 32.667 -38 56c0 36.667 24 67.667 72 93c44 22.667 92.333 34 145 34
c13.333 0 28.333 -1.33301 45 -4l66 101c-44 64.667 -66.333 97.667 -67 99c-24 40 -36 74.333 -36 103c0 34 13.333 61 40 81c24.667 19.333 56 29 94 29c35.333 0 88.333 -8.66699 159 -26l73 111c6.66699 10 14.334 15 23.001 15c10 0 15 -4 15 -12
c0 -1.33301 -0.333008 -2.33301 -1 -3l-78 -119c60.667 -14.667 108.667 -22 144 -22c8 0 16 2 24 6s12 9 12 15c6 4 10.667 0.333008 14 -11zM532.999 517c-72.667 31.333 -124.333 46.999 -155 46.999c-49.333 0 -74 -22 -74 -66c0 -15.333 12 -38.666 36 -69.999l72 -94z
M429 208.999c0 15.333 -7.33301 35.333 -22 60l-53 -79c8 -2 12 -6.33301 12 -13c0 -5.33301 -1.66699 -8 -5 -8c-1.33301 0 -7.33301 1.33301 -18 4l-71 -107c44.667 15.333 81 35 109 59c32 26.667 48 54.667 48 84zM309 177.999c-10.667 1.33301 -20.333 2 -29 2
c-48 0 -91.833 -10 -131.5 -30s-59.5 -41.333 -59.5 -64c0 -28 21 -42 63 -42c22.667 0 47.667 3 75 9z" />
    <glyph glyph-name="percent" unicode="%" horiz-adv-x="825" 
d="M822 278c0 -50 -35.835 -111.5 -107.502 -184.5s-132.5 -109.5 -182.5 -109.5c-25.333 0 -45.166 9 -59.499 27s-21.5 43 -21.5 75c0 68.667 39 132.667 117 192c68.667 52 130.334 78 185.001 78c46 0 69 -26 69 -78zM781.998 589l-529.002 -580
c-9.33301 -10 -16 -15 -20 -15h-13c-8 0 -12 3.33301 -12 10c0 2 0.666992 3.66699 2 5l383 475c-34 -22 -66 -35.667 -96 -41c-32 -48.667 -72.333 -92.667 -121 -132c-52 -41.333 -95.333 -62 -130 -62c-25.333 0 -45.166 9 -59.499 27s-21.5 43 -21.5 75
c0 68.667 39 132.667 117 192c68.667 52 130.334 78 185.001 78c46 0 69 -26 69 -78c0 -18 -6 -39 -18 -63c29.333 12 64.333 33.667 105 65c32.667 24.667 55 44 67 58c8.66699 10 17 14.333 25 13l56 -12c8.66699 -2 13 -5.33301 13 -10c0 -2 -0.666992 -3.66699 -2 -5z
M500.996 573c0 17.333 -9.33398 26 -28.001 26c-23.333 0 -50.666 -12.333 -81.999 -37c-3.33301 -5.33301 -5 -10.666 -5 -15.999c0 -46.667 25.333 -72 76 -76c26 45.333 39 79.666 39 102.999zM786.995 308c0 17.333 -9.33398 26.001 -28.001 26.001
c-45.333 0 -100.666 -41 -165.999 -123c-62 -78 -93 -138 -93 -180c0 -14.667 11 -22 33 -22c50 0 106 41.333 168 124c57.333 75.333 86 133.666 86 174.999zM445.994 443.001c-56 8 -86.666 36.333 -91.999 85c-36.667 -36.667 -69.167 -78.5 -97.5 -125.5
s-42.5 -82.5 -42.5 -106.5c0 -14.667 11 -22 33 -22c31.333 0 66.333 18 105 54c33.333 30 64.666 68.333 93.999 115z" />
    <glyph glyph-name="ampersand" unicode="&#x26;" horiz-adv-x="903" 
d="M1046 672c0 -26.667 -10.3291 -55.002 -30.9961 -85.002c-24.667 -35.333 -53.334 -53 -86.001 -53c-39.333 0 -108.833 23 -208.5 69s-173.834 69 -222.501 69c-28.667 0 -51.667 -8 -69 -24s-26 -36 -26 -60c0 -31.333 15.333 -70.333 46 -117
c26 -40 53.667 -72.667 83 -98c-78.667 -17.333 -149 -46.666 -211 -87.999c-69.333 -46 -104 -92.333 -104 -139c0 -35.333 15 -64.166 45 -86.499s67.333 -33.5 112 -33.5c61.333 0 116.666 11.333 165.999 34c43.333 20.667 72 44.334 86 71.001
c-100 17.333 -163 26 -189 26c-9.33301 0 -18.5 -3.66699 -27.5 -11s-14.5 -11 -16.5 -11c-4.66699 0 -7 1 -7 3c0 15.333 10.667 34.333 32 57c25.333 28 53.333 42 84 42c40.667 0 92 -5.5 154 -16.5s112.333 -16.5 151 -16.5c10 0 18.5 4 25.5 12s11.833 12 14.5 12
c4 0 6 -1.66699 6 -5c0 -17.333 -9.33301 -38 -28 -62c-23.333 -28 -49.333 -42 -78 -42c-27.333 0 -57.333 2.33301 -90 7c-12.667 -34 -46.667 -64.333 -102 -91c-59.333 -28 -124.666 -42 -195.999 -42c-70 0 -128.333 14.333 -175 43c-50.667 31.333 -76 73 -76 125
c0 54 38.667 103.333 116 148c67.333 39.333 149.666 68 246.999 86c-66 64.667 -99 126.667 -99 186c0 46.667 18.667 84 56 112c34 25.333 75 38 123 38c45.333 0 116.666 -11.833 213.999 -35.5s169.333 -35.5 216 -35.5c10 0 20.333 2.5 31 7.5s16 11.667 16 20
s2.33301 12.166 7 11.499c7.33301 -0.666992 11 -9.66699 11 -27z" />
    <glyph glyph-name="quotesingle" unicode="'" horiz-adv-x="147" 
d="M289 558c0 -19.333 -13.666 -45.002 -40.999 -77.002s-49.666 -48 -66.999 -48c-6 0 -12 1.66699 -18 5c11.333 4 23.666 13.333 36.999 28s20 26.667 20 36c-12 0 -18 8.33301 -18 25c0 8.66699 5.5 19.334 16.5 32.001s21.5 20.334 31.5 23.001
c7.33301 1.33301 15.666 -0.5 24.999 -5.5s14 -11.167 14 -18.5z" />
    <glyph glyph-name="parenleft" unicode="(" horiz-adv-x="263" 
d="M559 703c0 -2.66699 -3 -6.33398 -9 -11.001c-21.333 -13.333 -52.666 -34.666 -93.999 -63.999c-123.333 -98 -213.666 -195.333 -270.999 -292c-72 -121.333 -108 -251.333 -108 -390c0 -6 0.666992 -15.167 2 -27.5s2 -21.833 2 -28.5c0 -7.33301 -2 -11 -6 -11
c-3.33301 0 -6.33301 3.33301 -9 10c-25.333 54 -38 121.333 -38 202c0 149.333 49.667 278.333 149 387c87.333 96 207.666 170.667 360.999 224c7.33301 2.66699 12.666 4 15.999 4s5 -1 5 -3z" />
    <glyph glyph-name="parenright" unicode=")" horiz-adv-x="375" 
d="M495 492c0 -150 -49.667 -279.332 -149 -387.999c-87.333 -96 -207.666 -170.667 -360.999 -224c-8 -2.66699 -13.333 -4 -16 -4c-3.33301 0 -5 1 -5 3c0 3.33301 3 7 9 11c21.333 14 52.333 35.667 93 65c123.333 97.333 211.666 190.666 264.999 279.999
c34 56.667 61.333 121 82 193c22 74.667 33 144 33 208c0 6.66699 -0.833008 16.167 -2.5 28.5s-2.5 21.5 -2.5 27.5c0 8 2.33301 12 7 12c2.66699 0 5.66699 -3.66699 9 -11c25.333 -54 38 -121 38 -201z" />
    <glyph glyph-name="asterisk" unicode="*" horiz-adv-x="488" 
d="M442 501c0 -14.667 -10.667 -24.665 -32 -29.998c-0.666992 0 -17.667 -2 -51 -6l43 -17c18.667 -8.66699 28 -19 28 -31c0 -14.667 -7.33301 -22 -22 -22c-10.667 0 -21.334 6.33301 -32.001 19c-7.33301 10.667 -15 21 -23 31c3.33301 -26.667 5 -42 5 -46
c0 -23.333 -7.66699 -35 -23 -35c-16 0 -24 7 -24 21c0 7.33301 2.33301 17.666 7 30.999c6.66699 18 10.334 28.667 11.001 32c-30.667 -24.667 -51.667 -37 -63 -37c-14.667 0 -22 6.33301 -22 19c0 14 10.333 24 31 30c16 2.66699 32 5.66699 48 9c-2 2 -15 7 -39 15
c-18 6 -27 16.667 -27 32s7 23 21 23c12.667 0 25 -9.16699 37 -27.5s19 -27.5 21 -27.5c-5.33301 14 -8 30.667 -8 50c0 25.333 8 38 24 38c15.333 0 23 -8.66699 23 -26c0 -8.66699 -2.66699 -19.334 -8 -32.001c-6 -14.667 -9.66699 -25 -11 -31
c4 2 13.333 9.66699 28 23c11.333 10.667 22.333 16 33 16c16.667 0 25 -7 25 -21z" />
    <glyph glyph-name="plus" unicode="+" horiz-adv-x="420" 
d="M408 265l-6 -17c-3.33301 -10 -10 -15 -20 -15h-116l-40 -108c-3.33301 -10 -10 -15 -20 -15h-23c-10 0 -13.333 5 -10 15l40 108h-113c-10 0 -13.333 5 -10 15l6 17c4 10 11 15 21 15h113l44 120c4 10 10.667 15 20 15h23c10.667 0 14 -5 10 -15l-44 -120h116
c10 0 13 -5 9 -15z" />
    <glyph glyph-name="comma" unicode="," horiz-adv-x="203" 
d="M131 52c0 -19.333 -13.666 -45.002 -40.999 -77.002s-49.666 -48 -66.999 -48c-6 0 -12 1.66699 -18 5c11.333 4 23.666 13.333 36.999 28s20 26.667 20 36c-12 0 -18 8.33301 -18 25c0 8.66699 5.5 19.334 16.5 32.001s21.5 20.334 31.5 23.001
c7.33301 1.33301 15.666 -0.5 24.999 -5.5s14 -11.167 14 -18.5z" />
    <glyph glyph-name="hyphen" unicode="-" horiz-adv-x="355" 
d="M303 153l-6 -16c-3.33301 -10 -10 -15 -20 -15h-188c-10 0 -13.333 5 -10 15l6 16c3.33301 10 10 15 20 15h188c10 0 13.333 -5 10 -15z" />
    <glyph glyph-name="hyphen" unicode="&#x2010;" horiz-adv-x="355" 
d="M303 153l-6 -16c-3.33301 -10 -10 -15 -20 -15h-188c-10 0 -13.333 5 -10 15l6 16c3.33301 10 10 15 20 15h188c10 0 13.333 -5 10 -15z" />
    <glyph glyph-name="period" unicode="." horiz-adv-x="203" 
d="M131 52c0.666992 -9.33301 -5.00098 -21.6689 -17.001 -37.002s-23.333 -23 -34 -23c-9.33301 0 -17.666 3 -24.999 9s-11 12.667 -11 20c0 8.66699 5.5 19.334 16.5 32.001s21.5 20.334 31.5 23.001c7.33301 1.33301 15.5 -0.5 24.5 -5.5s13.833 -11.167 14.5 -18.5z
" />
    <glyph glyph-name="slash" unicode="/" horiz-adv-x="326" 
d="M652 638l-618 -712c-8.66699 -10 -15 -15 -19 -15h-13c-8.66699 0 -13 3.33301 -13 10c0 2 0.666992 3.66699 2 5l579 726c8.66699 10.667 16.667 15 24 13l47 -12c8.66699 -2 13 -5.33301 13 -10c0 -2 -0.666992 -3.66699 -2 -5z" />
    <glyph glyph-name="zero" unicode="0" horiz-adv-x="578" 
d="M689 538c0 -60 -25.332 -133.832 -75.999 -221.499s-111 -161.834 -181 -222.501c-78.667 -67.333 -151.667 -101 -219 -101c-40 0 -71.667 14.5 -95 43.5s-35 70.167 -35 123.5c0 78.667 32.667 155.667 98 231c56 64 126.333 118.333 211 163
c79.333 41.333 146.666 62 201.999 62c32 0 56.333 -8.66699 73 -26c14.667 -14 22 -31.333 22 -52zM648.001 534.001c0 15.333 -5.16602 27.834 -15.499 37.501s-22.833 14.5 -37.5 14.5c-52.667 0 -115.667 -34.667 -189 -104
c-64.667 -61.333 -122.5 -133.833 -173.5 -217.5s-76.5 -147.167 -76.5 -190.5c0 -29.333 21 -44 63 -44c59.333 0 124.333 32 195 96c63.333 57.333 118.166 126.666 164.499 207.999s69.5 148 69.5 200z" />
    <glyph glyph-name="one" unicode="1" horiz-adv-x="400" 
d="M593 600c0 -6 -66.999 -93.3311 -200.999 -261.998l-237 -297c-20.667 -28 -53.334 -42 -98.001 -42c-3.33301 0 -9.33301 0.333008 -18 1h-21c-14.667 0 -22 5 -22 15c0 8 3 15.667 9 23c23.333 27.333 73.333 78.666 150 153.999l367 354c-16.667 -12 -64 -44 -142 -96
c-82.667 -54 -124.667 -81 -126 -81c-9.33301 0 -14 6 -14 18c0 5.33301 10.333 14.666 31 27.999l40 25c170 110.667 259.667 166 269 166c8.66699 0 13 -2 13 -6z" />
    <glyph glyph-name="two" unicode="2" horiz-adv-x="523" 
d="M648 500c0 -56 -40 -111.001 -120 -165.001c-44.667 -29.333 -128.667 -72.333 -252 -129c-110.667 -51.333 -183 -91.333 -217 -120l2 -4c52 34.667 106 52 162 52c47.333 0 107.666 -19.667 180.999 -59c17.333 -9.33301 26.5 -14.666 27.5 -15.999
s1.5 -2.33301 1.5 -3c0 -14 -12.833 -28.5 -38.5 -43.5s-46.167 -22.5 -61.5 -22.5c-19.333 0 -55.666 14 -108.999 42s-91 42 -113 42c-20 0 -40.667 -6.66699 -62 -20c-13.333 -8.66699 -28 -21 -44 -37c-12.667 -14 -19.667 -21 -21 -21c-4.66699 0 -7 2.66699 -7 8
c0 2 0.333008 4.33301 1 7c20.667 54 80.667 111 180 171c108.667 65.333 185 116 229 152c93.333 76.667 140 148.334 140 215.001c0 28.667 -15.667 43 -47 43c-28.667 0 -55.667 -16 -81 -48c-28.667 -36 -43 -80.333 -43 -133c0 -6.66699 -6.83301 -12 -20.5 -16
s-26.167 -6 -37.5 -6c-32 0 -48 6.33301 -48 19c0 61.333 26.667 112.666 80 153.999c49.333 38.667 104.333 58 165 58c41.333 0 76 -9 104 -27c32.667 -21.333 49 -52.333 49 -93z" />
    <glyph glyph-name="three" unicode="3" horiz-adv-x="558" 
d="M673 506c0 -50.667 -28.3359 -95.333 -85.0029 -134c-50.667 -35.333 -102.667 -53 -156 -53l-4 -5c51.333 -16 77 -52 77 -108c0 -60.667 -40 -113 -120 -157c-69.333 -38.667 -137 -58 -203 -58c-41.333 0 -75.333 8.66699 -102 26c-31.333 20 -47 49.667 -47 89
c0 16 4.66699 33.667 14 53c10.667 22 22.334 33 35.001 33c13.333 0 35.5 -4.83301 66.5 -14.5s46.5 -17.834 46.5 -24.501c0 1.33301 -11.333 -9 -34 -31s-34 -43.333 -34 -64c0 -15.333 9 -23 27 -23c52.667 0 106.5 26.833 161.5 80.5s82.5 106.5 82.5 158.5
c0 20.667 -8.66699 31 -26 31c-6 0 -15.167 -1.5 -27.5 -4.5s-21.833 -4.5 -28.5 -4.5c-18 0 -27 6.66699 -27 20c0 18 10.333 27 31 27c6.66699 0 16.334 -2 29.001 -6s22.334 -6 29.001 -6c44 0 89 24 135 72s69 94 69 138c0 33.333 -20.333 50 -61 50
c-34.667 0 -63.167 -12.667 -85.5 -38s-33.5 -55.666 -33.5 -90.999c0 -7.33301 -8 -13 -24 -17c-12.667 -3.33301 -24 -5 -34 -5c-31.333 0 -47 6.33301 -47 19c0 52 26.667 92.667 80 122c43.333 23.333 93.333 35 150 35c35.333 0 67.333 -9 96 -27
c33.333 -21.333 50 -49 50 -83z" />
    <glyph glyph-name="four" unicode="4" horiz-adv-x="575" 
d="M658 458c0 -4 -0.996094 -7.33301 -2.99609 -10c-8.66699 -9.33301 -21.334 -24 -38.001 -44c-46.667 -56 -88.334 -109.333 -125.001 -160l-44 -65l7 -1c38.667 0 72.667 11.333 102 34c6.66699 -2 8.66699 -10.333 6 -25c-30 -26.667 -66 -40 -108 -40
c-9.33301 0 -19.333 0.333008 -30 1l-77 -122c-14 -21.333 -46.333 -32 -97 -32c-42.667 0 -64 9.33301 -64 28c0 15.333 43 68.333 129 159c-34 16.667 -55 26.667 -63 30c-22.667 8.66699 -45.334 13 -68.001 13c-10.667 0 -21.334 -0.666992 -32.001 -2
c-48 -31.333 -78 -47 -90 -47c-11.333 0 -17 6.33301 -17 19c0 11.333 14 23.333 42 36c20 9.33301 38.667 16 56 20c44 37.333 101.333 96 172 176c34.667 39.333 65.334 78 92.001 116c8 14.667 21.333 35 40 61c10.667 12 41 18 91 18c53.333 0 80 -4.66699 80 -14
c0 -12 -67.333 -74.333 -202 -187c-72 -60 -144.667 -115.333 -218 -166h8c20.667 0.666992 44 -4.66602 70 -15.999l65 -32c21.333 21.333 63 59.666 125 114.999c74 66 130 112.667 168 140c5.33301 4 9.66602 6 12.999 6c6.66699 0 10 -3 10 -9z" />
    <glyph glyph-name="five" unicode="5" horiz-adv-x="563" 
d="M744 587c0 -19.333 -10.335 -42.4961 -31.002 -69.4961s-40.667 -40.5 -60 -40.5c-57.333 0 -110.333 7.33301 -159 22s-73.334 22 -74.001 22c-4 0 -7.66699 -2 -11 -6c-43.333 -54.667 -82.666 -102.334 -117.999 -143.001c16.667 5.33301 40.667 8 72 8
c48 0 88.833 -12 122.5 -36s50.5 -54.667 50.5 -92c0 -75.333 -41 -139.333 -123 -192c-71.333 -46 -144 -69 -218 -69c-116 0 -174 38.333 -174 115c0 16 4.66699 33.667 14 53c10.667 22 22.334 33 35.001 33c13.333 0 35.5 -4.83301 66.5 -14.5
s46.5 -17.834 46.5 -24.501c0 1.33301 -12.333 -9.83398 -37 -33.501s-37 -45.834 -37 -66.501c0 -15.333 9 -23 27 -23c52.667 0 114.5 33.5 185.5 100.5s106.5 125.5 106.5 175.5c0 28.667 -22 43 -66 43c-40 0 -79.333 -6 -118 -18c-23.333 -24.667 -39 -37 -47 -37
c-7.33301 0 -11 6.33301 -11 19c0 17.333 16.667 32 50 44c134.667 168.667 205.334 253 212.001 253c0.666992 0 3.66699 -1.33301 9 -4c30 -18.667 70 -28 120 -28c32 0 63.333 2.33301 94 7c45.333 8 67.333 12 66 12c4.66699 0 7 -3.33301 7 -10z" />
    <glyph glyph-name="six" unicode="6" horiz-adv-x="546" 
d="M693 507c0 -21.333 -5.66895 -41 -17.002 -59s-22 -27 -32 -27c-13.333 0 -35 4.66699 -65 14c-32 10 -48 18 -48 24c0 -0.666992 13.5 12 40.5 38s40.5 48.667 40.5 68c0 15.333 -9 23 -27 23c-59.333 0 -126.666 -39 -201.999 -117
c-51.333 -53.333 -92.333 -106 -123 -158l4 -4c9.33301 7.33301 26 15.333 50 24c34.667 13.333 69.334 20 104.001 20c35.333 0 63 -9 83 -27c18 -16 27 -36.667 27 -62c0 -62.667 -35.333 -123 -106 -181c-74.667 -60 -158 -90 -250 -90c-78.667 0 -118 41.333 -118 124
c0 62 29 133.667 87 215c55.333 78.667 122 145.667 200 201c84 58.667 159 88 225 88c84.667 0 127 -38 127 -114zM422.998 280c0 10.667 -4.16699 19.667 -12.5 27s-18.5 11 -30.5 11c-37.333 0 -77 -18 -119 -54c-34.667 -30 -66 -66.667 -94 -110
c-25.333 -40 -38 -68.667 -38 -86c0 -31.333 20 -47 60 -47c53.333 0 107.333 36 162 108c48 64 72 114.333 72 151z" />
    <glyph glyph-name="seven" unicode="7" horiz-adv-x="494" 
d="M738 611c4.66699 -4 4.33301 -8.33203 -1 -12.999c-32.667 -26.667 -84 -75 -154 -145c-77.333 -76.667 -135.333 -137.667 -174 -183c-51.333 -62 -112.666 -144.667 -183.999 -248c-12.667 -18.667 -41.667 -28 -87 -28c-38.667 0 -58 10.333 -58 31
c0 5.33301 2.66699 11.333 8 18c13.333 18 50.666 57 111.999 117c65.333 64.667 122 117.334 170 158.001c134.667 114.667 221 187 259 217l-6 2l-52 -29c-36 -16.667 -69.667 -25 -101 -25c-25.333 0 -52.5 7.83301 -81.5 23.5s-49.167 23.5 -60.5 23.5
c-24.667 0 -48 -18 -70 -54l-23 -39.5c-8 -13.667 -15.667 -20.5 -23 -20.5c-12.667 0 -19 6.33301 -19 19c0 12 12.667 32 38 60c28.667 31.333 61 57.666 97 78.999c44.667 26.667 88 40 130 40c23.333 0 51.333 -8.33301 84 -25s57 -25 73 -25c16.667 0 38 7.66699 64 23
l42 26c6 3.33301 11.667 2.66602 17 -2.00098z" />
    <glyph glyph-name="eight" unicode="8" horiz-adv-x="559" 
d="M673 510c0 -40.667 -25.9971 -79.665 -77.9971 -116.998c-44.667 -32 -92.334 -53 -143.001 -63c31.333 -38 47 -76.667 47 -116c0 -68 -26.667 -122.333 -80 -163c-50 -38.667 -112 -58 -186 -58c-66 0 -117.333 13.667 -154 41c-32.667 24.667 -49 55.667 -49 93
c0 53.333 32.667 99.666 98 138.999c51.333 31.333 105.666 51 162.999 59c-18 32.667 -27 63 -27 91c0 53.333 28 100.666 84 141.999s116.333 62 181 62c43.333 0 78.166 -10.5 104.499 -31.5s39.5 -47.167 39.5 -78.5zM621.003 537.002
c0 40.667 -32.668 60.999 -98.001 60.999c-45.333 0 -82.833 -11.833 -112.5 -35.5s-44.5 -48.834 -44.5 -75.501c0 -29.333 24 -75.666 72 -138.999c46.667 14.667 88.834 41.334 126.501 80.001s56.5 75 56.5 109zM403.002 126.001c0 20 -11.333 47.334 -34 82.001l-66 95
c-53.333 -10 -99.666 -33.5 -138.999 -70.5s-59 -75.833 -59 -116.5c0 -64.667 42 -97 126 -97c49.333 0 89.666 9.33301 120.999 28c34 19.333 51 45.666 51 78.999z" />
    <glyph glyph-name="nine" unicode="9" horiz-adv-x="546" 
d="M669 495c0 -61.333 -29 -132.999 -87 -214.999c-55.333 -78.667 -122 -145.334 -200 -200.001c-84 -59.333 -159 -89 -225 -89c-40.667 0 -72 10.667 -94 32s-33 49 -33 83c0 20.667 5.66699 40.167 17 58.5s22 27.5 32 27.5c13.333 0 35.5 -4.83301 66.5 -14.5
s46.5 -17.834 46.5 -24.501c0 0.666992 -13.167 -12.166 -39.5 -38.499s-39.5 -48.5 -39.5 -66.5c0 -15.333 9 -23 27 -23c59.333 0 126.333 39 201 117c50.667 52 91.334 104.333 122.001 157l-4 4c-9.33301 -7.33301 -26 -15.333 -50 -24
c-34.667 -12.667 -69.334 -19 -104.001 -19c-35.333 0 -63 9 -83 27c-18 16 -27 36.667 -27 62c0 62.667 35.333 122.667 106 180c74.667 60 158 90 250 90c78.667 0 118 -41.333 118 -124zM594 545.001c0 30.667 -20 46 -60 46c-53.333 0 -107.333 -36 -162 -108
c-48 -64 -72 -114.333 -72 -151c0 -10 4.16699 -18.833 12.5 -26.5s18.5 -11.5 30.5 -11.5c37.333 0 77 18.333 119 55c34.667 29.333 66 66 94 110c25.333 39.333 38 68 38 86z" />
    <glyph glyph-name="colon" unicode=":" horiz-adv-x="292" 
d="M253 212c0.666992 -9.33301 -5.00098 -21.666 -17.001 -36.999s-23.333 -23 -34 -23c-9.33301 0 -17.666 3 -24.999 9s-11 12.667 -11 20c0 8.66699 5.5 19.5 16.5 32.5s21.5 20.5 31.5 22.5c7.33301 1.33301 15.5 -0.333984 24.5 -5.00098s13.833 -11 14.5 -19z
M130.999 52c0.666992 -9.33301 -5.00098 -21.6689 -17.001 -37.002s-23.333 -23 -34 -23c-9.33301 0 -17.666 3 -24.999 9s-11 12.667 -11 20c0 8.66699 5.5 19.334 16.5 32.001s21.5 20.334 31.5 23.001c7.33301 1.33301 15.5 -0.5 24.5 -5.5s13.833 -11.167 14.5 -18.5z
" />
    <glyph glyph-name="semicolon" unicode=";" horiz-adv-x="272" 
d="M253 212c0.666992 -9.33301 -5.00098 -21.666 -17.001 -36.999s-23.333 -23 -34 -23c-9.33301 0 -17.666 3 -24.999 9s-11 12.667 -11 20c0 8.66699 5.5 19.5 16.5 32.5s21.5 20.5 31.5 22.5c7.33301 1.33301 15.5 -0.333984 24.5 -5.00098s13.833 -11 14.5 -19z
M130.999 52c0 -19.333 -13.666 -45.002 -40.999 -77.002s-49.666 -48 -66.999 -48c-6 0 -12 1.66699 -18 5c11.333 4 23.666 13.333 36.999 28s20 26.667 20 36c-12 0 -18 8.33301 -18 25c0 8.66699 5.5 19.334 16.5 32.001s21.5 20.334 31.5 23.001
c7.33301 1.33301 15.666 -0.5 24.999 -5.5s14 -11.167 14 -18.5z" />
    <glyph glyph-name="less" unicode="&#x3c;" horiz-adv-x="515" 
d="M549 472l-31 -84l-296 -136l197 -138l-29 -77l-291 198l13 35z" />
    <glyph glyph-name="equal" unicode="=" horiz-adv-x="405" 
d="M390 285l-6 -16c-4 -10 -11 -15 -21 -15h-238c-10 0 -13 5 -9 15l6 16c3.33301 10 10 15 20 15h238c10 0 13.333 -5 10 -15zM357 186l-6 -16c-3.33301 -10 -10 -15 -20 -15h-238c-10 0 -13.333 5 -10 15l6 16c3.33301 10 10 15 20 15h238c10 0 13.333 -5 10 -15z" />
    <glyph glyph-name="greater" unicode="&#x3e;" horiz-adv-x="538" 
d="M531 281l-13 -34l-437 -202l30 83l296 136l-196 139l28 77z" />
    <glyph glyph-name="question" unicode="?" horiz-adv-x="571" 
d="M631 521c0 -38 -36.667 -89.3359 -110 -154.003l-159 -128c-33.333 -28.667 -72.333 -68.667 -117 -120c-6 -7.33301 -13.333 -11 -22 -11c-5.33301 0 -8 2.33301 -8 7c0 2.66699 1.33301 6.33398 4 11.001c16.667 31.333 53.667 72.666 111 123.999
c74 66.667 119.667 109.667 137 129c44.667 50 67 95.667 67 137c0 31.333 -19 47 -57 47c-35.333 0 -73.666 -15.667 -114.999 -47c-43.333 -33.333 -65 -67 -65 -101c0 -16.667 6.33301 -26.5 19 -29.5s19 -6.5 19 -10.5c0 -7.33301 -3.83301 -17.666 -11.5 -30.999
s-14.834 -20 -21.501 -20c-15.333 0 -29.833 6.33301 -43.5 19s-20.5 26.667 -20.5 42c0 54.667 33.667 104.334 101 149.001c61.333 40.667 121 61 179 61c28 0 52.333 -5.33301 73 -16c26.667 -13.333 40 -32.666 40 -57.999zM222 49.9971
c0 -10 -5.99902 -22.167 -17.999 -36.5s-23 -21.5 -33 -21.5c-8.66699 0 -16.834 2.83301 -24.501 8.5s-11.5 12.5 -11.5 20.5c0 10 6.33301 21.667 19 35s24 20 34 20c8 0 15.667 -2.5 23 -7.5s11 -11.167 11 -18.5z" />
    <glyph glyph-name="at" unicode="@" horiz-adv-x="958" 
d="M950 317c0 -91.333 -27 -169.668 -81 -235.001c-50.667 -61.333 -107 -92 -169 -92v-1c-58 0 -94.667 29.333 -110 88c-40 -56.667 -87.333 -85 -142 -85c-44 0 -80 14.667 -108 44c-30.667 31.333 -46 74.333 -46 129c0 62 22.667 122 68 180
c51.333 66.667 113.666 100 186.999 100c52.667 0 88.667 -24.333 108 -73l17 62h110l-89 -312c-5.33301 -18.667 -8 -34 -8 -46c0 -25.333 10 -38 30 -38c37.333 0 75.333 22 114 66c48 54.667 72 125.334 72 212.001s-29.833 157.334 -89.5 212.001s-137.5 82 -233.5 82
c-114 0 -210.333 -39 -289 -117c-80.667 -80 -121 -180.667 -121 -302c0 -106 33.167 -190.5 99.5 -253.5s156.5 -94.5 270.5 -94.5c109.333 0 212.333 34.333 309 103l30 -34c-48 -36.667 -93.667 -63.667 -137 -81c-61.333 -24.667 -130.666 -37 -207.999 -37
c-144 0 -259 36.833 -345 110.5s-129 171.5 -129 293.5c0 118 40.667 221 122 309c94 101.333 222 152 384 152c120.667 0 216 -33.333 286 -100c65.333 -62.667 98 -143.334 98 -242.001zM619 318.998c0 52 -17.666 78 -52.999 78c-31.333 0 -64 -28.333 -98 -85
c-36.667 -60 -55 -123.333 -55 -190c0 -55.333 16.667 -83 50 -83c35.333 0 70.166 32 104.499 96s51.5 125.333 51.5 184z" />
    <glyph glyph-name="A" unicode="A" horiz-adv-x="1192" 
d="M1345 683c0 -41.333 -24.3359 -99 -73.0029 -173c-15.333 -22.667 -67 -92.334 -155 -209.001c51.333 -3.33301 77 -13.333 77 -30c0 -11.333 -10 -31.333 -30 -60s-35.333 -43 -46 -43c-11.333 0 -26.666 0.666992 -45.999 2c-22.667 1.33301 -38 2 -46 2
c-52 -81.333 -78 -147 -78 -197c0 -48 20.667 -71.667 62 -71c0.666992 -1.33301 1 -3 1 -5c0 -3.33301 -1.66699 -7.66602 -5 -12.999s-6.66602 -8 -9.99902 -8c-25.333 0 -45.333 8.66699 -60 26s-22 39.333 -22 66c0 52.667 25.333 120 76 202
c-83.333 -0.666992 -167.666 -2.66699 -252.999 -6c-153.333 -146 -339 -219 -557 -219c-50 0 -90 6.83301 -120 20.5s-45 33.5 -45 59.5c0 63.333 82.333 119.333 247 168c144 42.667 325.333 73.667 544 93c26 30 79.667 99.667 161 209c60 80 109.333 136.667 148 170
c55.333 46.667 112.333 70 171 70c39.333 0 59 -18 59 -54zM1245 580c0 10 -4 18.501 -12 25.501s-17 10.5 -27 10.5c-42 0 -83.333 -16 -124 -48c-30.667 -24 -67.667 -64 -111 -120l-121 -157c78.667 6 155 9.33301 229 10c64.667 88 102.667 140.667 114 158
c34.667 53.333 52 93.666 52 120.999zM681.997 164.001c-180 -9.33301 -324.666 -24.333 -433.999 -45c-132 -25.333 -198 -57 -198 -95c0 -16 16.333 -27.667 49 -35c21.333 -4.66699 43.666 -7 66.999 -7c200 0 372 60.667 516 182z" />
    <glyph glyph-name="B" unicode="B" horiz-adv-x="1383" 
d="M1687 584c0 -52 -61.001 -103.005 -183.001 -153.005c-99.333 -40.667 -226.666 -76.334 -381.999 -107.001c124 -40 186 -92.333 186 -157c0 -63.333 -50.333 -113.333 -151 -150c-87.333 -32 -191 -48 -311 -48c-143.333 0 -226.333 23 -249 69l-22 -29
c-10.667 -13.333 -25 -19.666 -43 -18.999c-25.333 1.33301 -38 12 -38 32c0 6 1.66699 11.333 5 16c36.667 49.333 103.334 129.333 200.001 240c-22 -2 -42.333 -3 -61 -3c-74 0 -111 20 -111 60c0 38 42.667 57 128 57c40 0 87.667 -2.33301 143 -7
c25.333 26.667 54.666 61.334 87.999 104.001c10 12.667 19 19 27 19c8.66699 0 13 -3.66699 13 -11c0 -5.33301 -2.66699 -11.666 -8 -18.999l-68 -99c64 -7.33301 122.667 -17 176 -29c155.333 28 291 61.333 407 100c142.667 47.333 214 91.333 214 132
c0 42.667 -56.667 64 -170 64c-78.667 0 -233.667 -24.333 -465 -73c-248 -52 -460 -107.333 -636 -166c-213.333 -71.333 -320 -131.666 -320 -180.999c0 -11.333 -4.66699 -16.666 -14 -15.999c-10.667 0 -16 6.66699 -16 20c0 90.667 95 178 285 262
c152 67.333 344.667 125.333 578 174c201.333 42 353 63 455 63c100.667 0 181 -11 241 -33c68 -25.333 102 -62.666 102 -111.999zM1156 135.995c0 27.333 -20.334 55.666 -61.001 84.999c-37.333 26.667 -87.333 51.334 -150 74.001c-34 -4 -90.667 -9 -170 -15l-154 -210
c0.666992 -2 1 -4 1 -6c0 -13.333 12.333 -26 37 -38c36 -17.333 92 -26 168 -26c102.667 0 185.334 15.333 248.001 46c54 26.667 81 56.667 81 90zM757.998 342.995c-51.333 8.66699 -99.667 13 -145 13c-34 0 -51 -7.66699 -51 -23s25 -23 75 -23c28 0 60 2.33301 96 7z
" />
    <glyph glyph-name="C" unicode="C" horiz-adv-x="777" 
d="M904 626c0 -46 -18.3301 -107 -54.9971 -183c-32.667 -66.667 -70.334 -128 -113.001 -184s-73 -84 -91 -84c-12.667 0 -27 8 -43 24s-24 30.667 -24 44c0 10 12.333 27 37 51l57 51c46 42.667 86.333 86.334 121 131.001c50.667 66.667 76 120.667 76 162
c0 46.667 -27.333 70 -82 70c-78 0 -170.667 -40.667 -278 -122c-100.667 -76 -188 -166.667 -262 -272c-77.333 -110 -116 -204 -116 -282c0 -100.667 47.333 -151 142 -151c61.333 0 130 21 206 63c60 33.333 118.667 76 176 128c4 1.33301 7.66699 2 11 2
c15.333 0 21 -9 17 -27c-62.667 -58.667 -133 -108 -211 -148c-88.667 -45.333 -170.334 -68 -245.001 -68c-68.667 0 -122 16 -160 48s-57 79.333 -57 142c0 97.333 44.333 204.666 133 321.999c82.667 110 183.667 203.667 303 281c123.333 80 232.666 120 327.999 120
c86.667 0 130 -39.333 130 -118z" />
    <glyph glyph-name="D" unicode="D" horiz-adv-x="1483" 
d="M1687 559c0 -102 -63.6641 -200.335 -190.997 -295.002c-106.667 -79.333 -242.334 -146.333 -407.001 -201c-150 -49.333 -275 -74 -375 -74c-94 0 -141 21.333 -141 64c4.66699 5.33301 11 8 19 8s13.333 -2 16 -6c0 -17.333 24.667 -26 74 -26c88 0 207 24 357 72
c165.333 52.667 302.333 115.334 411 188.001c131.333 88 197 176.667 197 266c0 62 -67.333 93 -202 93c-124.667 0 -284.334 -22 -479.001 -66c-105.333 -142 -255.666 -333 -450.999 -573c-10.667 -13.333 -25 -19.666 -43 -18.999c-25.333 1.33301 -38 12 -38 32
c0 6 1.66699 11.333 5 16l438 514c3.33301 4 6.66602 7.66699 9.99902 11c-208.667 -51.333 -399.334 -111.833 -572.001 -181.5s-259 -121.5 -259 -155.5c0 -10.667 -4.33301 -16 -13 -16c-11.333 0 -17 6.66699 -17 20c0 90.667 95 178 285 262
c152 67.333 344.667 125.333 578 174c201.333 42 353 63 455 63c102.667 0 183.667 -13 243 -39c66.667 -29.333 100 -73 100 -131z" />
    <glyph glyph-name="E" unicode="E" horiz-adv-x="760" 
d="M1126 668c0 -24 -16.4961 -56.168 -49.4961 -96.501s-60.833 -60.5 -83.5 -60.5c-42 0 -95 11.667 -159 35c-14.667 5.33301 -70.334 28.333 -167.001 69l-288 -85c15.333 -64.667 51.333 -121.334 108 -170.001c45.333 6.66699 88 10 128 10
c26 0 46.833 -5.16699 62.5 -15.5s23.5 -22.833 23.5 -37.5c0 -31.333 -25.667 -47 -77 -47c-47.333 0 -93.333 16.667 -138 50c-86.667 -21.333 -160.667 -53.666 -222 -96.999c-70 -48.667 -105 -99.667 -105 -153c0 -40 17.167 -72.833 51.5 -98.5
s76.5 -38.5 126.5 -38.5c81.333 0 152 17 212 51c54.667 31.333 82 63 82 95c4 6 8.66699 9 14 9c8 0 14 -5.33301 18 -16c0 -42 -33.667 -81.333 -101 -118c-70.667 -38.667 -151.334 -58 -242.001 -58c-80 0 -146.333 16.333 -199 49
c-57.333 35.333 -86 82.666 -86 141.999c0 61.333 43.667 117.333 131 168c76.667 44.667 170.667 77.334 282 98.001c-51.333 51.333 -84.333 107 -99 167l-149 -39c-6.66699 -1.33301 -11.334 -2 -14.001 -2c-5.33301 0 -10.333 4.16699 -15 12.5s-7 14.5 -7 18.5
c0 4.66699 4 8.33398 12 11.001l168 43v10c0 44 19 81.833 57 113.5s83.667 47.5 137 47.5c45.333 0 132.666 -15 261.999 -45l89 25c56.667 16 100.667 24 132 24c30 0 55 -6.5 75 -19.5s30 -30.167 30 -51.5zM1080 683.999c0 16.667 -19.667 24.999 -59 24.999
c-28.667 0 -56 -4 -82 -12c-9.33301 -2.66699 -33 -10 -71 -22c68.667 -14 121.667 -21 159 -21c11.333 0 23 2.83301 35 8.5s18 12.834 18 21.501zM609.004 637.998c-56.667 20 -100.332 30.001 -130.999 30.001c-32.667 0 -58.834 -9.33301 -78.501 -28
s-29.5 -41.334 -29.5 -68.001zM662.006 318.999c0 13.333 -13.667 20 -41 20c-28 0 -59 -3 -93 -9c33.333 -20 67.333 -30 102 -30c21.333 0 32 6.33301 32 19z" />
    <glyph glyph-name="F" unicode="F" horiz-adv-x="1213" 
d="M1361 559c0 -52.667 -27.332 -110.337 -81.999 -173.004c-51.333 -59.333 -122.333 -117.666 -213 -174.999h100c10 0 15 -5 15 -15v-16c0 -10 -5 -15 -15 -15h-177c-117.333 -65.333 -242 -117.333 -374 -156c-140.667 -42 -271.334 -63 -392.001 -63
c-60.667 0 -108.334 9 -143.001 27s-52 44 -52 78c0 58 48 104.667 144 140c82 30 173 45 273 45c32.667 0 62 -3 88 -9s39 -12.667 39 -20c0 -16 -10 -37.333 -30 -64s-35.333 -40 -46 -40c-4.66699 0 -19 0.666992 -43 2s-45 2 -63 2
c-77.333 0 -149.166 -8.16699 -215.499 -24.5s-99.5 -34.166 -99.5 -53.499c0 -12 15.333 -22 46 -30c28.667 -8 63.334 -12 104.001 -12c84.667 0 186.667 16.667 306 50c114 32 227.333 74.667 340 128h-221c-10 0 -15 5 -15 15v16c0 10 5 15 15 15h313
c107.333 57.333 192.333 115 255 173c68.667 62.667 103 119.667 103 171c0 62 -67.333 93 -202 93c-141.333 0 -284.333 -17 -429 -51c-132.667 -31.333 -243.334 -70.666 -332.001 -117.999s-133 -91 -133 -131c0 -10 -4 -15.333 -12 -16
c-12 -1.33301 -18 5.33398 -18 20.001c0 113.333 86.333 208 259 284c157.333 70 335 105 533 105c112 0 201 -15 267 -45c71.333 -32 107 -77.667 107 -137z" />
    <glyph glyph-name="G" unicode="G" horiz-adv-x="797" 
d="M953 637c0 -49.333 -26.3311 -120.331 -78.998 -212.998c-49.333 -88 -83 -132 -101 -132c-12.667 0 -26.167 8 -40.5 24s-21.5 30.667 -21.5 44c0 5.33301 18 25.666 54 60.999c45.333 45.333 78.666 81.666 99.999 108.999c36 46 54 84.333 54 115c0 42 -26 63 -78 63
c-66 0 -141.5 -23.667 -226.5 -71s-156.167 -105 -213.5 -173c-62.667 -74 -94 -144.667 -94 -212c0 -40.667 12 -73.667 36 -99s56.333 -38 97 -38c28.667 0 63.334 9.33301 104.001 28c25.333 12 56.333 29.667 93 53c30 18.667 46.333 28 49 28
c13.333 0 24.666 -5.66699 33.999 -17s14 -23.666 14 -36.999c0 -33.333 -21.667 -77.666 -65 -132.999c-71.333 -92 -165 -167.667 -281 -227c-118.667 -60.667 -235 -91 -349 -91c-44.667 0 -83.334 6 -116.001 18c-46 17.333 -69 44.333 -69 81
c0 65.333 57.667 115.666 173 150.999c84 26 168.667 39 254 39c20.667 0 44 -2 70 -6c36.667 -5.33301 55 -13 55 -23c0 -12.667 -10.833 -33.167 -32.5 -61.5s-38.5 -42.5 -50.5 -42.5c-11.333 0 -28.833 0.666992 -52.5 2s-41.167 2 -52.5 2
c-51.333 0 -111.333 -5.33301 -180 -16c-98 -14.667 -147 -35.334 -147 -62.001c0 -28 40.667 -42 122 -42c138.667 0 268.167 37.667 388.5 113s211.833 175 274.5 299c-92.667 -70.667 -188 -106 -286 -106c-60 0 -108 13.667 -144 41c-40 30.667 -60 75 -60 133
c0 79.333 38.667 160.333 116 243c69.333 74 156 136.333 260 187c102 50 191 75 267 75c82.667 0 124 -35.667 124 -107z" />
    <glyph glyph-name="H" unicode="H" horiz-adv-x="1297" 
d="M1649 431c0 -9.33301 -5.33301 -15.998 -16 -19.998c-25.333 0 -128.666 -25.333 -309.999 -76l-181 -248c2 -14.667 3 -29.334 3 -44.001c0 -78 -18.667 -145.667 -56 -203c-32.667 -50.667 -62.667 -76 -90 -76c-30 0 -45 27.333 -45 82c0 41.333 15.333 87 46 137
c17.333 28 51.333 76.333 102 145c-12 44.667 -37.333 88.667 -76 132l-131 -28l-156 -234c-8 -14 -19.333 -17.333 -34 -10c-6.66699 3.33301 -10 8.66602 -10 15.999c0 6 2.66699 13 8 21c38.667 56.667 85 121 139 193c-150 -34.667 -252.667 -57.334 -308 -68.001
c-120 -24 -212.333 -36 -277 -36c-162 0 -243 34.667 -243 104c0 54 58 102.333 174 145c112 40.667 235.333 61 370 61c142 0 268 -20.667 378 -62h7v1h3l129 165c14.667 16.667 26 23 34 19s5.66699 -14.667 -7 -32l-103 -140l377 104c56 64 120.667 144.667 194 242
c6 12.667 13.667 17 23 13c10 -4 11.333 -11.333 4 -22l-153 -217c1.33301 0 19.666 4.33301 54.999 13c28 6 50 9 66 9c20 0 35 -5.33301 45 -16c26 -27.333 39 -50.666 39 -69.999zM1260 321.002l-197 -51.999c9.33301 -8 20.833 -24.333 34.5 -49
s22.5 -45.334 26.5 -62.001zM1115 46.0029c-19.333 -26 -44.667 -69.999 -76 -131.999c-20 -40 -30 -72 -30 -96c0 -6.66699 1.33301 -11.334 4 -14.001c13.333 0 35.333 28.667 66 86c28.667 52.667 40.667 104.667 36 156zM878.999 343.004
c-62.667 17.333 -114.333 29 -155 35c-52.667 8 -115.667 12 -189 12c-104.667 0 -210 -17.333 -316 -52c-108.667 -36 -163 -73 -163 -111c0 -7.33301 7.16699 -13.833 21.5 -19.5s31.833 -8.5 52.5 -8.5c68 0 155.333 11 262 33c188 38.667 350.333 75.667 487 111z" />
    <glyph glyph-name="I" unicode="I" horiz-adv-x="824" 
d="M1003 638c0 -72.667 -27 -154.668 -81 -246.001c-55.333 -94 -127.333 -177.667 -216 -251l21 -20c10 -9.33301 15 -16.666 15 -21.999c0 -11.333 -5 -17 -15 -17c-7.33301 0 -15.166 3.83301 -23.499 11.5l-25.5 24.5c-148.667 -114 -305.334 -171 -470.001 -171
c-60 0 -106.833 9.5 -140.5 28.5s-50.5 44.167 -50.5 75.5c0 58 47.667 104.667 143 140c82 30 172.667 45 272 45c32.667 0 62 -3 88 -9s39 -12.667 39 -20c0 -16 -10 -37.333 -30 -64s-35.333 -40 -46 -40c-4.66699 0 -19 0.666992 -43 2s-45 2 -63 2
c-80 0 -152.667 -7.33301 -218 -22c-69.333 -16 -104 -34.667 -104 -56c0 -28 41.667 -42 125 -42c147.333 0 301 64.667 461 194c-12 30.667 -18 65.667 -18 105c0 110.667 30.833 213.167 92.5 307.5s128.5 141.5 200.5 141.5c58 0 87 -32.333 87 -97zM970 639.999
c0 38 -16.668 57 -50.001 57c-49.333 0 -102.666 -47 -159.999 -141c-59.333 -97.333 -89 -191.333 -89 -282c0 -22.667 1.66699 -44 5 -64c84 73.333 154 151.333 210 234s84 148 84 196z" />
    <glyph glyph-name="J" unicode="J" horiz-adv-x="1077" 
d="M1206 559c0 -140.667 -69.332 -280.003 -207.999 -418.003c-122 -120.667 -276 -222 -462 -304c-177.333 -78.667 -333.333 -118 -468 -118c-60.667 0 -108.334 9 -143.001 27s-52 44 -52 78c0 48.667 46.333 89.334 139 122.001c82.667 29.333 172 44 268 44
c32.667 0 62 -3 88 -9s39 -12.667 39 -20c0 -13.333 -8.33301 -30.833 -25 -52.5s-30.334 -32.5 -41.001 -32.5c-4.66699 0 -19 0.666992 -43 2s-45 2 -63 2c-77.333 0 -149.166 -8.16699 -215.499 -24.5s-99.5 -34.166 -99.5 -53.499c0 -28 50 -42 150 -42
c108 0 249.667 42 425 126c180 86 332.333 186.667 457 302c142.667 132 214 254.333 214 367c0 62 -67.333 93 -202 93c-141.333 0 -284.333 -17 -429 -51c-132.667 -31.333 -243.334 -70.666 -332.001 -117.999s-133 -91 -133 -131c0 -62.667 66 -120 198 -172
c120.667 -47.333 238.334 -71 353.001 -71c8 -2.66699 12 -8 12 -16s-4 -12.667 -12 -14c-128.667 0 -246 17 -352 51c-152.667 49.333 -229 124.666 -229 225.999c0 112.667 86.333 207.334 259 284.001c158 70 335.667 105 533 105c112 0 201 -15 267 -45
c71.333 -32 107 -77.667 107 -137z" />
    <glyph glyph-name="K" unicode="K" horiz-adv-x="950" 
d="M1331 704c0 -64.667 -58.998 -140.332 -176.998 -226.999c-95.333 -70.667 -216 -139.334 -362 -206.001c-128.667 -59.333 -227 -96 -295 -110c118 -66.667 192.667 -100 224 -100c30.667 0 56.334 10.333 77.001 31c3.33301 0 7.16602 -1.66699 11.499 -5
s6.5 -7 6.5 -11c0 -2.66699 -1 -5.33398 -3 -8.00098c-10.667 -15.333 -27.667 -30.333 -51 -45c-40.667 -26 -85.334 -39 -134.001 -39c-52.667 0 -155.334 48.667 -308.001 146c-14 -3.33301 -32.667 -6 -56 -8c-39.333 -53.333 -69.666 -91.666 -90.999 -114.999
c-12 -13.333 -22.667 -15.333 -32 -6c-8.66699 8.66699 -8 21 2 37l61 77c-20 -2.66699 -38.667 -4 -56 -4c-76 0 -114 21.333 -114 64c0 27.333 16.667 49 50 65c29.333 14 65.666 21 108.999 21c55.333 0 95 -4 119 -12l292 377c10 9.33301 28.667 13.666 56 12.999
c14 0 21 -3.33301 21 -10c0 -3.33301 -1 -6.66602 -3 -9.99902c-6 -6 -54 -62.667 -144 -170c-96 -113.333 -155.667 -185.333 -179 -216l88 -41c61.333 12 149.333 45.667 264 101c128 62 234.333 126.333 319 193c104 82 156 154.333 156 217c0 23.333 28.333 35 85 35
c42.667 0 64 -11.333 64 -34zM249.002 169.002c-36 26.667 -74.333 40.001 -115 40.001c-18.667 0 -34 -3.16699 -46 -9.5s-18 -13.833 -18 -22.5c0 -12.667 7.66699 -21.334 23 -26.001c12.667 -3.33301 34.667 -5 66 -5c24 0 49.333 2 76 6c4 4 8.66699 9.66699 14 17z
" />
    <glyph glyph-name="L" unicode="L" horiz-adv-x="972" 
d="M1139 670c0 -61.333 -30.0029 -132.668 -90.0029 -214.001c-54 -72 -118.5 -135.667 -193.5 -191s-135.167 -83 -180.5 -83c-10 0 -15 5.66699 -15 17c0 6.66699 2.66699 11.667 8 15c44.667 0 102.667 27.333 174 82c69.333 52 129.333 112.667 180 182
c55.333 74.667 83 137.334 83 188.001c0 27.333 -18 41 -54 41c-54.667 0 -128.667 -37.667 -222 -113c-54 -44 -142.667 -126.667 -266 -248c-120 -118.667 -209 -201 -267 -247c31.333 -6.66699 100.333 -28.334 207 -65.001c79.333 -27.333 144.333 -41 195 -41
c38.667 0 65.334 1.33301 80.001 4c30.667 6 57 20 79 42c3.33301 3.33301 8.33301 5 15 5c10 0 15 -3 15 -9c0 -2 -1 -4.33301 -3 -7c-24 -35.333 -56.333 -69.666 -97 -102.999c-49.333 -41.333 -90.666 -62 -123.999 -62c-41.333 0 -108 26 -200 78
c-110 62 -186 99.667 -228 113c-62.667 -41.333 -115.334 -62 -158.001 -62c-19.333 0 -35.166 4.5 -47.499 13.5s-18.5 21.5 -18.5 37.5c0 18.667 11.667 34.667 35 48c26.667 16 65 24 115 24c26 0 52 -1.66699 78 -5c26.667 23.333 108.334 105.333 245.001 246
c114 118.667 208.333 206 283 262c108.667 80.667 203.667 121 285 121c58 0 87 -23 87 -69zM186.997 66.998c-22.667 4 -45.333 6 -68 6c-36 0 -54 -8.66699 -54 -26c0 -14 9.66699 -21 29 -21c24.667 0 55.667 13.667 93 41z" />
    <glyph glyph-name="M" unicode="M" horiz-adv-x="1385" 
d="M1569 645c0 -25.333 -7.00293 -50.332 -21.0029 -74.999l-277 -476c-25.333 -43.333 -38 -77.333 -38 -102c0 -38 21.333 -57 64 -57c4.66699 -2 7 -5.66699 7 -11s-2 -9 -6 -11c-47.333 0 -84.666 10 -111.999 30c-30 21.333 -45 52.666 -45 93.999
c0 30.667 13 67.334 39 110.001l206 339c16.667 28 25 47.333 25 58c0 4.66699 -1.66699 7 -5 7c-9.33301 0 -51.333 -49.667 -126 -149c-102 -136.667 -173.667 -229.334 -215 -278.001c-84 -99.333 -142.333 -149 -175 -149c-21.333 0 -41 9.5 -59 28.5
s-27 39.167 -27 60.5c0 26 21 87 63 183l91 207c-73.333 -128.667 -180 -237.667 -320 -327c-144 -92.667 -285.333 -139 -424 -139c-130 0 -195 32 -195 96c0 48.667 46.333 89.334 139 122.001c82.667 29.333 172 44 268 44c32.667 0 62 -3 88 -9s39 -12.667 39 -20
c0 -13.333 -8.33301 -30.833 -25 -52.5s-30.334 -32.5 -41.001 -32.5c-4.66699 0 -19 0.666992 -43 2s-45 2 -63 2c-77.333 0 -149.166 -8.16699 -215.499 -24.5s-99.5 -34.166 -99.5 -53.499c0 -28 50 -42 150 -42c108 0 225.333 36.667 352 110
c117.333 68.667 216.666 152.667 297.999 252c84 102.667 126 194.667 126 276c-9.33301 16.667 -24.666 25 -45.999 25c-16.667 0 -29.667 -4.66699 -39 -14c0 15.333 7.66699 29.666 23 42.999c20 17.333 47 26 81 26c53.333 0 80 -33.333 80 -100
c0 -46.667 -15.333 -114.334 -46 -203.001c-12 -34.667 -40.667 -108 -86 -220c-30.667 -76 -46 -123 -46 -141c0 -15.333 6.66699 -23 20 -23c16.667 0 103.334 100.667 260.001 302c110.667 142 171.667 219.667 183 233c64.667 74.667 113.334 112 146.001 112
c31.333 0 47 -17.667 47 -53z" />
    <glyph glyph-name="N" unicode="N" horiz-adv-x="1218" 
d="M1816 694c0 -30 -9.99902 -45.001 -29.999 -45.001c-7.33301 0 -11 3.66699 -11 11c0 2.66699 0.833008 6.66699 2.5 12s2.5 9.66602 2.5 12.999c0 14 -13.667 21 -41 21c-50 0 -114.333 -37.333 -193 -112c-20 -18.667 -80.667 -85.667 -182 -201
c-112 -128 -195.667 -220.667 -251 -278c-90 -93.333 -146.667 -140 -170 -140c-21.333 0 -40.833 9.5 -58.5 28.5s-26.5 39.167 -26.5 60.5c0 27.333 12 82.333 36 165l68 225c-73.333 -128.667 -180 -237.667 -320 -327c-144 -92.667 -285.333 -139 -424 -139
c-130 0 -195 32 -195 96c0 48.667 46.333 89.334 139 122.001c82.667 29.333 172 44 268 44c32.667 0 62 -3 88 -9s39 -12.667 39 -20c0 -13.333 -8.33301 -30.833 -25 -52.5s-30.334 -32.5 -41.001 -32.5c-4.66699 0 -19 0.666992 -43 2s-45 2 -63 2
c-77.333 0 -149.166 -8.16699 -215.499 -24.5s-99.5 -34.166 -99.5 -53.499c0 -28 50 -42 150 -42c108 0 225.333 36.667 352 110c117.333 68.667 216.666 152.667 297.999 252c84 102.667 126 194.667 126 276c-8 16.667 -23.333 25 -46 25
c-16.667 0 -29.667 -4.66699 -39 -14c0 15.333 7.66699 29.666 23 42.999c20 17.333 47 26 81 26c62 0 93 -33.333 93 -100c0 -60 -23.667 -162.167 -71 -306.5s-71 -230.166 -71 -257.499c0 -15.333 6.66699 -23 20 -23c16 0 96.667 82.333 242 247
c167.333 189.333 261 293.333 281 312c48.667 45.333 83 75 103 89c44 30 87.667 45 131 45c22.667 0 40.5 -4.83301 53.5 -14.5s19.5 -21.5 19.5 -35.5z" />
    <glyph glyph-name="O" unicode="O" horiz-adv-x="916" 
d="M1071 575c0 -93.333 -46.9971 -192.331 -140.997 -296.998c-86 -96.667 -193 -178.834 -321 -246.501s-242.667 -101.5 -344 -101.5c-79.333 0 -141.333 18 -186 54c-46.667 37.333 -70 90.333 -70 159c0 85.333 37 175 111 269
c68.667 87.333 154.5 161.166 257.5 221.499s196.5 90.5 280.5 90.5h5c18.667 0 28 -6 28 -18c0 -11.333 -5.33301 -17 -16 -17h-21c-68.667 0 -149.834 -27.333 -243.501 -82s-172.834 -119.667 -237.501 -195c-70.667 -83.333 -106 -160 -106 -230
c0 -99.333 70.667 -149 212 -149c88 0 193 32 315 96c117.333 62 217.666 135.333 300.999 220c89.333 91.333 134 172 134 242c0 34.667 -9.66699 61.834 -29 81.501s-46 29.5 -80 29.5c-64 0 -156.667 -43.333 -278 -130c-46 -32.667 -118 -92 -216 -178
c-92 -80.667 -148.667 -132.667 -170 -156c-12 -13.333 -30 -20 -54 -20c-18 0 -34.667 3.66699 -50 11c-19.333 8.66699 -29 20.667 -29 36c0 17.333 58.333 68.666 175 153.999c86.667 64 169 121 247 171c150.667 97.333 268 146 352 146c54 0 96.5 -13.833 127.5 -41.5
s46.5 -67.5 46.5 -119.5z" />
    <glyph glyph-name="P" unicode="P" horiz-adv-x="1408" 
d="M1687 584c0 -72.667 -73.667 -146.338 -221 -221.005c-114 -57.333 -263.333 -111 -448 -161c-143.333 -39.333 -261.333 -65.333 -354 -78l-89 -115c-10.667 -13.333 -25 -19.666 -43 -18.999c-25.333 1.33301 -38 12 -38 32c0 6 1.66699 11.333 5 16
c6.66699 8.66699 28 33.667 64 75c-22 -1.33301 -42.333 -2 -61 -2c-74 0 -111 21 -111 63c4.66699 5.33301 11 8 19 8s13.333 -2 16 -6c0 -20 25 -30 75 -30c28 0 60 2 96 6l263 300c10 12.667 19.667 19 29 19c6.66699 0 10 -3.66699 10 -11
c0 -5.33301 -2.33301 -11.666 -7 -18.999l-196 -274c78 13.333 184.667 40 320 80c172.667 50.667 313 101.667 421 153c140 66 210 126.667 210 182c0 42.667 -56.667 64 -170 64c-78.667 0 -233.667 -24.333 -465 -73c-248 -52 -460 -107.333 -636 -166
c-213.333 -71.333 -320 -131.666 -320 -180.999c0 -11.333 -4.66699 -16.666 -14 -15.999c-10.667 0 -16 6.66699 -16 20c0 90.667 95 178 285 262c152 67.333 344.667 125.333 578 174c201.333 42 353 63 455 63c100.667 0 181 -11 241 -33
c68 -25.333 102 -62.666 102 -111.999z" />
    <glyph glyph-name="Q" unicode="Q" horiz-adv-x="1026" 
d="M1414 580c0 -74 -59.6689 -153.331 -179.002 -237.998c-96.667 -68.667 -222 -134.334 -376 -197.001c-132 -54 -244 -90.333 -336 -109c118 -66.667 192.667 -100 224 -100c30.667 0 56.334 10.333 77.001 31c3.33301 0 7.16602 -1.66699 11.499 -5s6.5 -7 6.5 -11
c0 -2.66699 -1 -5.33398 -3 -8.00098c-10.667 -15.333 -27.667 -30.333 -51 -45c-40.667 -26 -85.334 -39 -134.001 -39c-53.333 0 -154.666 47.667 -303.999 143c-54 -12.667 -104.333 -19 -151 -19c-92.667 0 -139 22.333 -139 67c0 27.333 16.667 49 50 65
c30 14 66.333 21 109 21c66.667 0 150 -23 250 -69c86 16.667 197.333 51.667 334 105c156.667 61.333 285.334 124.666 386.001 189.999c123.333 80 185 152.333 185 217c0 45.333 -55.333 68 -166 68c-100 0 -236.333 -19 -409 -57c-190.667 -42 -349 -91.667 -475 -149
c-151.333 -69.333 -227 -138.666 -227 -207.999c-4 -7.33301 -9.66699 -11 -17 -11c-8.66699 0 -15.667 6 -21 18c0 98.667 60.333 188 181 268c102.667 68.667 237.667 123.667 405 165c150.667 37.333 291.334 56 422.001 56c82 0 151 -7.33301 207 -22
c93.333 -24.667 140 -67 140 -127zM296.998 33.002c-43.333 34 -89 51 -137 51c-42.667 0 -64 -10.667 -64 -32c0 -20.667 28.333 -31 85 -31c45.333 0 84 4 116 12z" />
    <glyph glyph-name="R" unicode="R" horiz-adv-x="1397" 
d="M1687 580c0 -68 -73.3291 -139.667 -219.996 -215c-108.667 -56 -243.667 -107.667 -405 -155c-45.333 -13.333 -115 -29.666 -209 -48.999c118 -66.667 192.667 -100 224 -100c30.667 0 56.334 10.333 77.001 31c3.33301 0 7.16602 -1.66699 11.499 -5s6.5 -7 6.5 -11
c0 -2.66699 -1 -5.33398 -3 -8.00098c-10.667 -15.333 -27.667 -30.333 -51 -45c-40.667 -26 -85.334 -39 -134.001 -39c-52.667 0 -155.334 48.667 -308.001 146c-14 -3.33301 -32.667 -6 -56 -8c-28 -40.667 -58.333 -79 -91 -115c-12 -13.333 -22.667 -15.333 -32 -6
c-8.66699 8.66699 -8 21 2 37l61 77c-20 -2.66699 -38.667 -4 -56 -4c-76 0 -114 21.333 -114 64c0 27.333 16.667 49 50 65c29.333 14 65.666 21 108.999 21c49.333 0 91 -5.66699 125 -17l110 140c10.667 10.667 20.667 14 30 10c6 -2 6.33301 -7.66699 1 -17
c-16.667 -24.667 -51.334 -72.667 -104.001 -144l88 -41c92.667 18 183 40 271 66c134.667 39.333 259.334 88.333 374.001 147c135.333 69.333 203 127.333 203 174c0 45.333 -55.333 68 -166 68c-157.333 0 -392.333 -41.667 -705 -125
c-185.333 -49.333 -342 -98 -470 -146c-144.667 -54 -224.334 -97.333 -239.001 -130c-13.333 -29.333 -25 -42 -35 -38c-11.333 4.66699 -12.333 19.667 -3 45c24 65.333 99 132.5 225 201.5s287 130.5 483 184.5c218.667 60 419.667 90 603 90c82 0 151 -7.33301 207 -22
c93.333 -24.667 140 -67 140 -127zM605.004 169c-36 26.667 -74.333 40.001 -115 40.001c-18.667 0 -34 -3.16699 -46 -9.5s-18 -13.833 -18 -22.5c0 -12.667 7.66699 -21.334 23 -26.001c12.667 -3.33301 34.667 -5 66 -5c24 0 49.333 2 76 6c4 4 8.66699 9.66699 14 17z
" />
    <glyph glyph-name="S" unicode="S" horiz-adv-x="785" 
d="M1151 668c0 -24 -16.4922 -56.165 -49.4922 -96.498s-60.833 -60.5 -83.5 -60.5c-42 0 -95 11.667 -159 35c-14.667 5.33301 -70.334 28.333 -167.001 69l-289 -86c12 -32.667 43 -78.334 93 -137.001c66 -77.333 107 -127.666 123 -150.999
c40.667 -60 61 -114.333 61 -163c0 -72.667 -52 -132.334 -156 -179.001c-88.667 -40 -184 -60 -286 -60c-57.333 0 -104.333 9.66699 -141 29c-39.333 20 -59 47.667 -59 83c0 54 35.333 99.333 106 136c63.333 33.333 133.666 50 210.999 50
c23.333 0 48.666 -2.33301 75.999 -7c25.333 -4 40.833 -7.83301 46.5 -11.5s8.5 -8.83398 8.5 -15.501c0 -8 -2.66699 -12 -8 -12c-4.66699 0 -9.33398 0.666992 -14.001 2c-30.667 8.66699 -65.334 13 -104.001 13c-70 0 -134.167 -14.333 -192.5 -43s-87.5 -60 -87.5 -94
c0 -40.667 30.667 -61 92 -61c88 0 175.667 23.333 263 70c94.667 50.667 142 107.667 142 171c0 33.333 -29 89.666 -87 168.999c-64 88 -102 155.667 -114 203c-30.667 -9.33301 -49.834 -14.833 -57.501 -16.5s-12.834 -2.5 -15.501 -2.5
c-5.33301 0 -10.333 4.16699 -15 12.5s-7 14.5 -7 18.5c0 4.66699 4 8.33398 12 11.001c12 3.33301 37.333 10 76 20v10c0 44 19 81.833 57 113.5s83.667 47.5 137 47.5c45.333 0 132.666 -15 261.999 -45l89 25c56.667 16 100.667 24 132 24c30 0 55 -6.5 75 -19.5
s30 -30.167 30 -51.5zM1105.01 684.002c0 16.667 -19.667 24.999 -59 24.999c-28.667 0 -56 -4 -82 -12c-9.33301 -2.66699 -33 -10 -71 -22c68.667 -14 121.667 -21 159 -21c11.333 0 23 2.83301 35 8.5s18 12.834 18 21.501zM634.008 638.001
c-56.667 20 -100.332 30.001 -130.999 30.001c-32.667 0 -58.834 -9.33301 -78.501 -28s-29.5 -41.334 -29.5 -68.001z" />
    <glyph glyph-name="T" unicode="T" horiz-adv-x="1069" 
d="M1187 548c0 -74 -25.665 -156.669 -76.998 -248.002c-54.667 -98 -125.334 -178.333 -212.001 -241c-100 -72 -207.333 -108 -322 -108c-54 0 -97 8 -129 24c-35.333 18 -53 43.333 -53 76c0 45.333 27.333 81.833 82 109.5s125 41.5 211 41.5c32.667 0 62 -3 88 -9
s39 -12.667 39 -20c0 -16 -10 -37.333 -30 -64s-35.333 -40 -46 -40c-4.66699 0 -19 0.666992 -43 2s-45 2 -63 2c-127.333 0 -191 -14.667 -191 -44c0 -12.667 15.333 -23 46 -31c26.667 -7.33301 57.667 -11 93 -11c99.333 0 195.333 33 288 99c81.333 58 149 132 203 222
c50.667 86.667 76 165.334 76 236.001c0 32.667 -18.167 58.167 -54.5 76.5s-85.5 27.5 -147.5 27.5c-141.333 0 -284.333 -17 -429 -51c-132.667 -31.333 -243.334 -70.666 -332.001 -117.999s-133 -91 -133 -131c0 -12.667 -5.33301 -18 -16 -16
c-9.33301 1.33301 -14 8 -14 20c0 113.333 86.333 208 259 284c157.333 70 335 105 533 105c117.333 0 208.333 -16.333 273 -49c67.333 -33.333 101 -81.333 101 -144z" />
    <glyph glyph-name="U" unicode="U" horiz-adv-x="744" 
d="M1035 735c0 -69.333 -39.666 -156.001 -118.999 -260.001c-74 -96.667 -166.333 -188.334 -277 -275.001c-28 -51.333 -46.667 -86.666 -56 -105.999c-12 -28.667 -31.333 -70.667 -58 -126c-5.33301 -10 -12 -15 -20 -15c-19.333 0 -39.666 6.66699 -60.999 20
c-23.333 14.667 -35 30.667 -35 48c0 6 4.66699 18.333 14 37c-90 -46.667 -166 -70 -228 -70c-44.667 0 -79.5 11.333 -104.5 34s-37.5 53.334 -37.5 92.001c0 117.333 103.667 289 311 515c48.667 54 79.667 83.333 93 88c9.33301 4 22.666 6 39.999 6
c21.333 0 43 -2.66699 65 -8c27.333 -6.66699 41 -14.334 41 -23.001c0 -2.66699 -26.667 -30 -80 -82c-72 -70 -133 -132 -183 -186c-143.333 -155.333 -215 -260 -215 -314c0 -58.667 30.333 -88 91 -88c62 0 138.667 26 230 78c58.667 102.667 146 232.334 262 389.001
c135.333 183.333 233.666 275 294.999 275c21.333 0 32 -9.66699 32 -29zM1004 713.999c0 11.333 -6.33301 17 -19 17c-34 0 -137 -154.333 -309 -463c92.667 80 169.667 161.333 231 244c64.667 86 97 153.333 97 202z" />
    <glyph glyph-name="V" unicode="V" horiz-adv-x="869" 
d="M1445 694c0 -30 -9.99707 -44.999 -29.9971 -44.999c-8 0 -12 3.66699 -12 11c0 2.66699 1 6.66699 3 12s3 9.66602 3 12.999c0 14 -14 21 -42 21c-49.333 0 -113.333 -37.333 -192 -112l-340 -344c-184.667 -183.333 -293.334 -275 -326.001 -275
c-21.333 0 -40.833 9.5 -58.5 28.5s-26.5 39.167 -26.5 60.5c0 18 41 137.333 123 358l-234 -117c-96 -44 -163 -66 -201 -66c-48 0 -72 23.667 -72 71c0 44.667 41 103.667 123 177c75.333 67.333 162.666 127.333 261.999 180c103.333 54.667 184.333 82 243 82
c27.333 0 46.333 -7.66699 57 -23c7.33301 -12 11 -32 11 -60c0 -24 -6.33301 -58 -19 -102l215 118c3.33301 2 6.66602 3 9.99902 3c10.667 0 16 -9.33301 16 -28c0 -14 -10 -26 -30 -36l-228 -118l-97 -232c-47.333 -115.333 -71 -181 -71 -197c0 -15.333 7 -23 21 -23
c16 0 106.667 82.333 272 247l313 312c44.667 42 80 71.667 106 89c45.333 30 88 45 128 45c48.667 0 73 -16.667 73 -50zM613.003 635.001c0 24 -14 36.001 -42 36.001c-37.333 0 -97.666 -24.667 -180.999 -74c-77.333 -46 -148 -97 -212 -153
c-68 -60 -102 -103.667 -102 -131c0 -26.667 15 -40 45 -40c29.333 0 87.333 21 174 63c15.333 7.33301 105.666 53.666 270.999 138.999c31.333 88 47 141.333 47 160z" />
    <glyph glyph-name="W" unicode="W" horiz-adv-x="976" 
d="M1245 685c0 -73.333 -39.6729 -167.334 -119.006 -282.001c-77.333 -110 -167.333 -205.333 -270 -286c-111.333 -87.333 -206.666 -131 -285.999 -131c-48 0 -87 9.66699 -117 29c-25.333 16 -41.666 37 -48.999 63c-98 -60 -177 -90 -237 -90
c-44.667 0 -79.5 11.333 -104.5 34s-37.5 53.334 -37.5 92.001c0 68.667 27 150.334 81 245.001c46 80 103 157 171 231c63.333 68 114 110.333 152 127c8 4 21.333 6 40 6c16.667 0 35.334 -3.66699 56.001 -11c25.333 -8.66699 38 -19.334 38 -32.001
c0 -3.33301 -7 -10.333 -21 -21c-77.333 -57.333 -160.333 -133 -249 -227c-130.667 -138 -196 -245.333 -196 -322c0 -26 9.66699 -48 29 -66c16.667 -14.667 33.334 -22 50.001 -22c48.667 0 122.334 30.667 221.001 92c-1.33301 1.33301 -2 9 -2 23
c0 66.667 31.667 150 95 250c59.333 94.667 129 177 209 247c84.667 74.667 154.334 112 209.001 112c21.333 0 32 -13 32 -39c0 -72 -42.333 -161.667 -127 -269c-78 -98.667 -175.333 -192 -292 -280c-7.33301 -22 -11 -44.667 -11 -68c0 -45.333 21 -68 63 -68
c68 0 154.333 41 259 123c98.667 77.333 184.667 167.333 258 270c78.667 110 118 201 118 273c0 16.667 -8.66699 25 -26 25c-12.667 0 -19 3.33301 -19 10c0 4.66699 3.83301 9.66699 11.5 15s16.167 8 25.5 8c30 0 45 -20.333 45 -61zM908.994 695.999
c0 11.333 -6.33301 16.999 -19 16.999c-38 0 -103 -71.667 -195 -215c-80 -125.333 -132.667 -222.666 -158 -291.999c103.333 85.333 190.333 173.333 261 264c74 96 111 171.333 111 226z" />
    <glyph glyph-name="X" unicode="X" horiz-adv-x="856" 
d="M1217 694c0 -30 -9.99609 -45.002 -29.9961 -45.002c-7.33301 0 -11 3.66699 -11 11c0 2.66699 0.833008 6.83398 2.5 12.501s2.5 9.83398 2.5 12.501c0 14 -13.667 21 -41 21c-40 0 -98.667 -31 -176 -93c-54 -42.667 -132 -114 -234 -214l-2 -292
c-0.666992 -69.333 13.666 -103.666 42.999 -102.999c7.33301 -3.33301 11 -7.66602 11 -12.999c0 -3.33301 -1.66699 -6 -5 -8c-58.667 0.666992 -99.667 12.5 -123 35.5s-35 64.5 -35 124.5c0 48 0.333008 97.667 1 149c-108.667 -105.333 -188.667 -178.333 -240 -219
c-80.667 -65.333 -142.334 -98 -185.001 -98c-16 0 -31 6.5 -45 19.5s-21 27.5 -21 43.5c0 4.66699 1.33301 7 4 7l22 -8c14.667 -5.33301 27.667 -8 39 -8c48 0 112.333 33 193 99c46 37.333 123.667 110.666 233 219.999c0.666992 60 2 151.333 4 274
c0.666992 32.667 -19 49 -59 49c-32.667 0 -89.834 -23.333 -171.501 -70s-154.167 -97 -217.5 -151c-70.667 -60.667 -106 -106.334 -106 -137.001c0 -26.667 15 -40 45 -40c39.333 0 96.333 16 171 48c48.667 21.333 109 51.333 181 90c59.333 32 90.333 48 93 48
c10.667 0 16 -9.33301 16 -28c0 -13.333 -10 -25.333 -30 -36c-93.333 -48.667 -164.333 -83 -213 -103c-87.333 -35.333 -163 -53 -227 -53c-48 0 -72 23.667 -72 71c0 58.667 61 134 183 226c92.667 70 180.667 123.667 264 161c75.333 34.667 133 52 173 52
c52 0 77.667 -27.667 77 -83l-1 -210c92 90 167.667 156.333 227 199c79.333 56.667 145.666 85 198.999 85c40.667 0 61 -15.333 61 -46z" />
    <glyph glyph-name="Y" unicode="Y" horiz-adv-x="960" 
d="M1593 694c0 -30 -9.66602 -44.9971 -28.999 -44.9971c-8 0 -12 3.66699 -12 11c0 2.66699 0.833008 6.66699 2.5 12s2.5 9.66602 2.5 12.999c0 14 -13.667 21 -41 21c-22 0 -56 -14.667 -102 -44c-38 -24 -68.333 -46.667 -91 -68l-324 -328
c-141.333 -140.667 -266.666 -245.667 -375.999 -315c-148 -93.333 -290 -140 -426 -140c-123.333 0 -185 33 -185 99c0 65.333 57.667 115.666 173 150.999c84 26 168.667 39 254 39c20.667 0 44 -2 70 -6c36.667 -5.33301 55 -13 55 -23
c0 -12.667 -10.833 -33.167 -32.5 -61.5s-38.5 -42.5 -50.5 -42.5c-11.333 0 -28.833 0.666992 -52.5 2s-41.167 2 -52.5 2c-51.333 0 -111.333 -5.33301 -180 -16c-98 -14.667 -147 -35.334 -147 -62.001c0 -28 40.667 -42 122 -42c99.333 0 195 19.833 287 59.5
s172.667 95.167 242 166.5c-50 18.667 -75 59.334 -75 122.001c0 19.333 24 93.666 72 222.999l-234 -117c-96 -44 -163 -66 -201 -66c-48 0 -72 23.667 -72 71c0 44.667 40.667 103.667 122 177c75.333 67.333 162.666 127.333 261.999 180c104 54.667 185.333 82 244 82
c45.333 0 68 -24 68 -72c0 -29.333 -6.66699 -67 -20 -113l215 118c3.33301 2 6.33301 3 9 3c11.333 0 17 -9.33301 17 -28c0 -14 -10 -26 -30 -36l-228 -118l-55 -144c-28 -75.333 -42 -124.333 -42 -147c0 -46 14.667 -69 44 -69c16 0 91 66.667 225 200l265 267
c93.333 86.667 175.666 130 246.999 130c40 0 60 -15.333 60 -46zM763.001 635.003c0 24 -14.001 36.001 -42.001 36.001c-38 0 -98.333 -24.667 -181 -74c-78 -46 -148.667 -97 -212 -153c-68 -60 -102 -103.667 -102 -131c0 -26.667 15 -40 45 -40
c28.667 0 86.334 21 173.001 63c16 7.33301 106.667 53.666 272 138.999c31.333 88 47 141.333 47 160z" />
    <glyph glyph-name="Z" unicode="Z" horiz-adv-x="963" 
d="M1101 651c0 -80 -114.002 -126.332 -342.002 -138.999c-42 -36 -120.333 -107 -235 -213c-97.333 -90 -173.333 -156.667 -228 -200c31.333 -6.66699 100.333 -28.334 207 -65.001c79.333 -27.333 144.333 -41 195 -41c38.667 0 65.334 1.33301 80.001 4
c30.667 6 57 20 79 42c3.33301 3.33301 8.33301 5 15 5c10 0 15 -3 15 -9c0 -2 -1 -4.33301 -3 -7c-24 -35.333 -56.333 -69.666 -97 -102.999c-49.333 -41.333 -90.666 -62 -123.999 -62c-41.333 0 -108 26 -200 78c-110 62 -186 99.667 -228 113
c-62.667 -41.333 -115.334 -62 -158.001 -62c-19.333 0 -35.166 4.5 -47.499 13.5s-18.5 21.5 -18.5 37.5c0 18.667 11.667 34.667 35 48c26.667 16 65 24 115 24c26 0 52 -1.66699 78 -5c33.333 27.333 101.333 87.666 204 180.999s185.667 166.333 249 219
c-16 -0.666992 -32.333 -1 -49 -1c-104 0 -199.333 8 -286 24c-76.667 14.667 -131.334 32 -164.001 52c-14 8.66699 -21 31 -21 67c0 24 3.33301 45.5 10 64.5s15.334 28.5 26.001 28.5c2.66699 0 5.66699 -1 9 -3c142 -84 342 -129.333 600 -136
c96 68.667 168 103 216 103c21.333 0 38 -5.66699 50 -17s18 -25 18 -41zM1073 649.001c0 18.667 -13.667 28 -41 28c-36 0 -87.333 -23.667 -154 -71c130 0.666992 195 15 195 43zM186.998 67.001c-22.667 4 -45.333 6 -68 6c-36 0 -54 -8.66699 -54 -26
c0 -14 9.66699 -21 29 -21c24.667 0 55.667 13.667 93 41z" />
    <glyph glyph-name="bracketleft" unicode="[" horiz-adv-x="379" 
d="M478 693l-11 -28.998h-57c-16.667 0 -29.167 -3.33301 -37.5 -10s-15.5 -18.334 -21.5 -35.001l-252 -693c-3.33301 -8.66699 -5 -16.334 -5 -23.001c0 -16 9.66699 -24 29 -24h59l-11 -29h-174l307 843h174z" />
    <glyph glyph-name="backslash" unicode="\" horiz-adv-x="500" 
d="M309 -92h-39l-264 791h39z" />
    <glyph glyph-name="bracketright" unicode="]" horiz-adv-x="362" 
d="M505 693l-306.999 -843h-174l11 29h59c27.333 0 46.666 15.667 57.999 47l252 693c4 11.333 6 20 6 26c0 12.667 -11 19 -33 19h-57l11 29h174z" />
    <glyph glyph-name="asciicircum" unicode="^" horiz-adv-x="665" 
d="M632 522h-68l-231 220l-232 -220h-65l258 277h80z" />
    <glyph glyph-name="underscore" unicode="_" horiz-adv-x="490" 
d="M448 -101h-490v58h490v-58z" />
    <glyph glyph-name="grave" unicode="`" horiz-adv-x="263" 
d="M220 653l-36 -0.000976562l-114 61c-12 6.66699 -18 16.334 -18 29.001c0 20 10 30 30 30c12.667 0 25.667 -6.66699 39 -20z" />
    <glyph glyph-name="a" unicode="a" 
d="M437 148c-2 -8 -9.99805 -18.6699 -23.998 -32.0029c-42.667 -40 -74 -66.667 -94 -80c-47.333 -32 -83.333 -48 -108 -48c-37.333 0 -56 20 -56 60c0 8.66699 0.333008 15.334 1 20.001c-12.667 -17.333 -30 -33 -52 -47c-27.333 -17.333 -54 -26 -80 -26
c-16 0 -30 6.33301 -42 19s-18 28.334 -18 47.001c0 16.667 5.33301 33.667 16 51c17.333 28 45 52 83 72s75.333 30 112 30c35.333 0 53 -12.667 53 -38c27.333 25.333 46.666 38 57.999 38c8 0 18.333 -4.16699 31 -12.5s18.667 -16.166 18 -23.499
c-0.666992 -6 -8.33398 -17.333 -23.001 -34l-34 -36c-24 -27.333 -36 -47.333 -36 -60c0 -7.33301 4.33301 -11 13 -11c18 0 46.667 16.667 86 50c20.667 18 46.667 39.333 78 64c6 4 10.333 6 13 6c3.33301 0 5 -2 5 -6v-3zM211.002 159.997c1.33301 8 -5.66699 12 -21 12
c-27.333 0 -55.666 -14 -84.999 -42c-18 -17.333 -27 -33.333 -27 -48c0 -10.667 5.33301 -16 16 -16c21.333 0 45.666 16.667 72.999 50c14 17.333 28.667 32 44 44z" />
    <glyph glyph-name="b" unicode="b" horiz-adv-x="313" 
d="M446 463c0 -33.333 -55.332 -93.999 -165.999 -181.999c-77.333 -61.333 -140.333 -108 -189 -140c-12 -22.667 -18 -43 -18 -61c0 -19.333 6.66699 -29 20 -29c20 0 44 15.667 72 47c-6 7.33301 -9 15.333 -9 24c0 16.667 7.33301 32.5 22 47.5s30 22.5 46 22.5
c11.333 -1.33301 17 -9.33301 17 -24c0 -20 -8.33301 -39.333 -25 -58c8 -2 16 -3 24 -3c16 0 47.667 16 95 48c6 4 9.66699 3.33301 11 -2c4 -8.66699 0 -18 -12 -28c-38 -32 -74.333 -48 -109 -48c-13.333 0 -23.333 1.66699 -30 5c-14 -19.333 -32.667 -38 -56 -56
c-29.333 -22.667 -60.333 -34 -93 -34c-42 0 -63 21.667 -63 65c0 59.333 40.333 139.666 121 240.999c41.333 52 90.333 98.333 147 139c59.333 42.667 107.666 64 144.999 64c12.667 0 24.167 -3.33301 34.5 -10s15.5 -16 15.5 -28zM403.001 452.001
c-8 8 -42.999 -15.665 -104.999 -70.998c-54 -48.667 -94 -88.334 -120 -119.001c-16.667 -20 -30.334 -37.333 -41.001 -52c55.333 36.667 103.5 72.667 144.5 108s73.5 67.666 97.5 96.999c18 22.667 26 35 24 37z" />
    <glyph glyph-name="c" unicode="c" horiz-adv-x="308" 
d="M344 146c0 -6 -3.66602 -12.0039 -10.999 -18.0039l-94 -83c-50.667 -38.667 -102 -58 -154 -58c-70.667 0 -106 28.667 -106 86c0 37.333 20 71.333 60 102c38 30 77 45 117 45c18.667 0 35.5 -3.66699 50.5 -11s22.5 -16 22.5 -26c0 -16 -6 -33.167 -18 -51.5
s-24.333 -27.5 -37 -27.5c-25.333 0 -38 6.66699 -38 20c0 4.66699 8.66699 15.334 26 32.001c9.33301 8.66699 14 14.334 14 17.001c0 3.33301 -2 5 -6 5c-9.33301 0 -21.333 -6 -36 -18c-16.667 -13.333 -29.834 -29 -39.501 -47s-14.5 -34 -14.5 -48
c0 -24 12.333 -36 37 -36c44 0 89.167 20.667 135.5 62s73.833 63.333 82.5 66c2.66699 0.666992 5 -0.166016 7 -2.49902s2.66699 -5.16602 2 -8.49902z" />
    <glyph glyph-name="d" unicode="d" horiz-adv-x="363" 
d="M550 485c0 -4.66699 -3.66504 -10 -10.998 -16c-67.333 -54.667 -137.333 -124.667 -210 -210c-84.667 -98.667 -127 -167.667 -127 -207c0 -11.333 5.33301 -17 16 -17c15.333 0 43.333 17.333 84 52l79 65c5.33301 4 9.66602 5.66699 12.999 5
s4.66602 -3.33398 3.99902 -8.00098c-2 -10 -10 -21 -24 -33c-57.333 -49.333 -88 -75.333 -92 -78c-42.667 -32.667 -77.667 -49 -105 -49c-25.333 0 -38 17.333 -38 52v12c-46.667 -38.667 -86.334 -58 -119.001 -58c-16 0 -30 6.33301 -42 19s-18 28.334 -18 47.001
c0 38.667 24 74.334 72 107.001c44.667 31.333 89.334 47 134.001 47c20 0 30 -6.66699 30 -20c26.667 46.667 71.667 106.667 135 180c66 76 110 116 132 120c11.333 2 22.333 3 33 3c21.333 0 36.333 -1.66699 45 -5c4.66699 -0.666992 7.66699 -3.33398 9 -8.00098z
M183.002 172h-2.99902c-30 -3.33301 -59 -20.333 -87 -51c-12.667 -14 -19 -27 -19 -39c0 -14 6.66699 -21 20 -21c11.333 0 28.666 9.33301 51.999 28c6 24 18.333 51.667 37 83z" />
    <glyph glyph-name="e" unicode="e" horiz-adv-x="288" 
d="M323 143c-1.33301 -6 -4.66602 -11.001 -9.99902 -15.001l-94 -83c-26 -20 -46.333 -33.333 -61 -40c-24.667 -12 -52 -18 -82 -18c-28 0 -50.667 7 -68 21c-19.333 15.333 -29 37 -29 65c0 34.667 18.167 67.834 54.5 99.501s77.166 47.5 122.499 47.5
c16 0 31.167 -4.33301 45.5 -13s21.5 -19 21.5 -31c0 -19.333 -13 -41.333 -39 -66c-28.667 -26.667 -57.667 -40 -87 -40c-8 0 -13.667 0.333008 -17 1v-6c0 -22 11.333 -33 34 -33c34.667 0 73.667 19.333 117 58c47.333 42 75.333 64.333 84 67h2c6 0 8 -4.66699 6 -14z
M176 172.999c0 3.33301 -1.99902 5.00098 -5.99902 5.00098c-8.66699 0 -21 -6.33301 -37 -19s-29 -28.334 -39 -47.001l-7 -14h4c21.333 0 41.666 10 60.999 30c16 18 24 33 24 45z" />
    <glyph glyph-name="f" unicode="f" horiz-adv-x="251" 
d="M463 485c0 -4.66699 -4.33203 -9.99902 -12.999 -15.999c-92 -64.667 -198.333 -166.334 -319 -305.001c-4 -47.333 -12.667 -89 -26 -125c1.33301 -0.666992 3.33301 -1 6 -1c15.333 0 33.666 9.33301 54.999 28c68.667 61.333 106.667 92 114 92
c3.33301 0 5 -4.33301 5 -13c0 -9.33301 -36 -43 -108 -101c-38.667 -30.667 -67.667 -45.667 -87 -45c-21.333 -58 -53.333 -115 -96 -171c-54.667 -70 -105.667 -105 -153 -105c-34.667 0 -52 16.667 -52 50c0 41.333 26.333 99.333 79 174c2.66699 4 44 56.667 124 158
c0.666992 -2.66699 1 4 1 20c0 20.667 8.5 40 25.5 58s35.833 27 56.5 27c67.333 79.333 134.333 149.333 201 210c54 49.333 85.667 74.333 95 75c26 2 37 3 33 3c26 0 43 -1.66699 51 -5c5.33301 -1.33301 8 -4 8 -8zM60.001 6.00098c-15.333 6 -27.332 14.667 -35.999 26
c-104.667 -132 -157 -210 -157 -234c0 -10.667 5.66699 -16 17 -16c27.333 0 63.666 33.333 108.999 100c40 58.667 62.333 100 67 124z" />
    <glyph glyph-name="g" unicode="g" horiz-adv-x="397" 
d="M431 149c0 -10 -6.6709 -20.334 -20.0039 -31.001c-59.333 -46.667 -90.666 -71.667 -93.999 -75c-39.333 -27.333 -75 -44.666 -107 -51.999c-3.33301 -0.666992 -8.66602 -2 -15.999 -4l-70 -92c-41.333 -54.667 -90 -101 -146 -139
c-51.333 -34.667 -91.333 -52 -120 -52c-13.333 0 -28.166 6.5 -44.499 19.5s-24.5 24.5 -24.5 34.5c0 32 39 74.667 117 128c68.667 46.667 129.334 78.667 182.001 96l94 125c-20.667 -18 -36.667 -31 -48 -39c-70 -48 -117.333 -72 -142 -72c-28 0 -42 15.333 -42 46
c0 42.667 26.333 83.334 79 122.001c50.667 36.667 100 55 148 55c24 0 42.333 -4.33301 55 -13c2 -0.666992 3 -2.66699 3 -6s-1.33301 -5 -4 -5c-8 -0.666992 -20.667 -3 -38 -7c-37.333 -14 -72.333 -37.333 -105 -70c-23.333 -23.333 -35 -40.333 -35 -51
c0 -3.33301 2 -5 6 -5c9.33301 0 27 8 53 24c23.333 14.667 44 29.667 62 45l89 85c4 4 9.33301 6 16 6c8 0 14.333 -7 19 -21c2 -10 4.5 -19.833 7.5 -29.5s4.5 -14.834 4.5 -15.501c-0.666992 -8.66699 -30.667 -53 -90 -133c28.667 5.33301 62.667 24 102 56
c57.333 46 88 70.333 92 73c11.333 7.33301 17 6.33301 17 -3zM56.9961 -64.001c-34 -14.667 -63.668 -30.333 -89.001 -47c-31.333 -20.667 -59.166 -43.667 -83.499 -69s-36.5 -45 -36.5 -59c0 -9.33301 4.33301 -14 13 -14c18 0 59.333 34.333 124 103
c12.667 13.333 36.667 42 72 86z" />
    <glyph glyph-name="h" unicode="h" horiz-adv-x="349" 
d="M450 485c0 -4.66699 -4.33398 -10 -13.001 -16c-94 -66 -194.667 -160.667 -302 -284l-43 -49c70 51.333 115.333 77 136 77c8.66699 0 17.834 -6.16699 27.501 -18.5s14.5 -23.5 14.5 -33.5c0 -6 -9.33301 -19.667 -28 -41l-33 -37
c-12.667 -15.333 -19 -26.666 -19 -33.999c0 -8.66699 5 -13 15 -13c14.667 0 42.334 17 83.001 51l79 65c5.33301 4 9.66602 5.66699 12.999 5s4.66602 -3.33398 3.99902 -8.00098c-2 -10 -10 -21 -24 -33l-79 -69c-42 -32 -77 -48 -105 -48
c-19.333 0 -34.833 6.16699 -46.5 18.5s-17.5 27.5 -17.5 45.5c0 22 8 41 24 57c2 2 3 3.66699 3 5s-0.666992 2 -2 2s-6.33301 -2.33301 -15 -7c-23.333 -13.333 -43.666 -27 -60.999 -41c-36.667 -30.667 -62.334 -57 -77.001 -79c-40 -0 -60 4.33301 -60 13
c0 16.667 30.667 64 92 142c60 76 117.333 141.667 172 197c90.667 92 146.334 139.667 167.001 143c11.333 2 22.333 3 33 3c28 0 46 -1.66699 54 -5c5.33301 -1.33301 8 -4 8 -8z" />
    <glyph glyph-name="i" unicode="i" horiz-adv-x="217" 
d="M253 339c1.33301 -12 -7.33594 -29 -26.0029 -51s-33.667 -33 -45 -33c-13.333 0 -25.166 4.16699 -35.499 12.5s-15.5 17.833 -15.5 28.5c0 12 7.66699 27 23 45s30 28.667 44 32c10.667 2 22.334 -0.333008 35.001 -7s19.334 -15.667 20.001 -27zM251.998 149
c-2 -10 -9.99805 -20.999 -23.998 -32.999l-54 -48c-28 -24 -53.333 -42 -76 -54c-32 -16.667 -61.333 -25 -88 -25c-35.333 0 -53 14 -53 42c0 27.333 15 61 45 101c39.333 52 66 79.667 80 83c8.66699 2 19.667 3 33 3c27.333 0 45.333 -2 54 -6
c2.66699 -1.33301 4 -2.66602 4 -3.99902c0 -2.66699 -12 -16.334 -36 -41.001l-43 -42c-34 -38 -51 -64.333 -51 -79c0 -9.33301 4 -14 12 -14c24 0 57.667 18.333 101 55l79 65c5.33301 4 9.66602 5.66699 12.999 5s4.66602 -3.33398 3.99902 -8.00098z" />
    <glyph glyph-name="j" unicode="j" horiz-adv-x="203" 
d="M245 339c0.666992 -12 -8.16895 -29 -26.502 -51s-33.5 -33 -45.5 -33c-13.333 0 -25.166 4.16699 -35.499 12.5s-15.5 17.833 -15.5 28.5c0 12 7.66699 27 23 45s30 28.667 44 32c10.667 2 22.334 -0.333008 35.001 -7s19.667 -15.667 21 -27zM236.997 149
c0 -10.667 -19.002 -31.335 -57.002 -62.002c-26.667 -21.333 -51.334 -39.333 -74.001 -54c-33.333 -22 -63.666 -36 -90.999 -42c-3.33301 -0.666992 -8.66602 -2 -15.999 -4l-70.5 -93c-31.667 -41.333 -71.167 -80.666 -118.5 -117.999
c-59.333 -48 -108.333 -72 -147 -72c-15.333 0 -30.666 5.16699 -45.999 15.5s-23 23.166 -23 38.499c0 34.667 39 78.334 117 131.001c70 47.333 130.667 78.333 182 93c0.666992 0 29.334 39.667 86.001 119c47.333 66.667 77 105 89 115c4.66699 4 10 6 16 6
c8 0 16.333 -6.83301 25 -20.5s13 -25.167 13 -34.5c0 -8.66699 -32.333 -56.667 -97 -144c25.333 4.66699 65.666 28.334 120.999 71.001c53.333 41.333 81.333 62 84 62c4.66699 -2 7 -4.33301 7 -7zM-138.005 -64.001c-42.667 -18.667 -84 -41.334 -124 -68.001
c-58.667 -39.333 -88 -72.666 -88 -99.999c0 -13.333 6.33301 -20 19 -20c28 0 92.333 62.667 193 188z" />
    <glyph glyph-name="k" unicode="k" horiz-adv-x="305" 
d="M450 485c0 -4.66699 -4.33398 -10 -13.001 -16c-94 -66 -194.667 -160.667 -302 -284c-14 -15.333 -35.333 -40.333 -64 -75c32 28 64.667 53 98 75c36 23.333 59.667 35 71 35c8.66699 0 17.334 -4.83301 26.001 -14.5s13 -19.167 13 -28.5c0 -8.66699 -3 -13 -9 -13
c-31.333 0 -82 -18 -152 -54c-2.66699 -4 -4 -11 -4 -21c0 -35.333 15.667 -53 47 -53c14.667 0 42.334 17 83.001 51l79 65c5.33301 4 9.66602 5.66699 12.999 5s4.66602 -3.33398 3.99902 -8.00098c-2 -10 -10 -21 -24 -33l-79 -69c-42 -32 -77 -48 -105 -48
c-18.667 0 -34 6 -46 18s-18 27.333 -18 46c0 8.66699 1.33301 17.334 4 26.001c-29.333 -20 -53.333 -42.333 -72 -67c-4.66699 -6 -10 -13.333 -16 -22c-40 -0 -60 4.33301 -60 13c0 16.667 30.667 64 92 142c60 76 117.333 141.667 172 197
c90.667 92 146.334 139.667 167.001 143c11.333 2 22.333 3 33 3c28 0 46 -1.66699 54 -5c5.33301 -1.33301 8 -4 8 -8z" />
    <glyph glyph-name="l" unicode="l" horiz-adv-x="268" 
d="M446 463c0 -23.333 -21.9971 -56 -65.9971 -98c-18.667 -17.333 -57.834 -50.166 -117.501 -98.499s-116.834 -90.166 -171.501 -125.499c-15.333 -28.667 -23 -51 -23 -67c0 -20 11.333 -30 34 -30s48.334 9.33301 77.001 28l107 80c6 4.66699 10.333 5.66699 13 3
c2 -2 3 -5 3 -9c0 -6 -2.66699 -11.667 -8 -17c-32.667 -32.667 -69.334 -63.334 -110.001 -92.001c-42.667 -30 -82.334 -45 -119.001 -45c-23.333 0 -42.5 7.16699 -57.5 21.5s-22.5 33.166 -22.5 56.499c0 52.667 39.667 128.667 119 228
c41.333 52 90.333 98.333 147 139c60 42.667 108.333 64 145 64c33.333 0 50 -12.667 50 -38zM403.003 452c-2.66699 2.66699 -8.33398 1.66504 -17.001 -3.00195c-33.333 -17.333 -77.333 -52.666 -132 -105.999c-50 -49.333 -89 -93.666 -117 -132.999
c56.667 37.333 104.334 73 143.001 107c92 80 133 125 123 135z" />
    <glyph glyph-name="m" unicode="m" horiz-adv-x="544" 
d="M579 149c-2 -10 -9.99902 -21.002 -23.999 -33.002l-78 -69c-42 -32 -77 -48 -105 -48c-18.667 0 -34.167 6 -46.5 18s-18.5 27.333 -18.5 46c0 22 8 41 24 57c2 2 3 3.66699 3 5s-0.666992 2 -2 2c-2 0 -7 -2.33301 -15 -7c-16.667 -10 -40.667 -28.333 -72 -55l-71 -68
c-7.33301 0 -16.5 3.33301 -27.5 10s-16.5 13.334 -16.5 20.001c0 6 18 30 54 72c26 30 39 50.333 39 61c-7.33301 0 -24 -9.66699 -50 -29c-28 -21.333 -53.667 -44 -77 -68l-63 -66c-7.33301 0 -16.5 3.33301 -27.5 10s-16.5 13.334 -16.5 20.001
c0 9.33301 17.667 34.333 53 75c26.667 30.667 40 50 40 58c-6.66699 0 -29 -13.333 -67 -40c-2.66699 -1.33301 -4.33398 -2 -5.00098 -2c-4.66699 0 -7.66699 2.66699 -9 8c-0.666992 1.33301 -1 3 -1 5c0 4 2 8 6 12c10.667 10 30 23.333 58 40c33.333 20 57 30 71 30
c8.66699 0 17.667 -4 27 -12s14 -15.667 14 -23c0 -5.33301 -3.33301 -13.333 -10 -24c52 39.333 88.667 59 110 59c8.66699 0 17.667 -4 27 -12s14 -15.667 14 -23c0 -5.33301 -5 -16 -15 -32l-3 -6c13.333 11.333 35.833 26.5 67.5 45.5s50.834 28.167 57.501 27.5
c8.66699 -0.666992 17.667 -7 27 -19s14 -23 14 -33c0 -6 -9.33301 -19.667 -28 -41l-33 -37c-12.667 -15.333 -19 -26.666 -19 -33.999c0 -8.66699 5 -13 15 -13c14.667 0 42.334 17 83.001 51l79 65c5.33301 4 9.66602 5.66699 12.999 5
s4.66602 -3.33398 3.99902 -8.00098z" />
    <glyph glyph-name="n" unicode="n" horiz-adv-x="414" 
d="M449 149c-2 -10 -9.99805 -21.001 -23.998 -33.001l-79 -69c-42 -32 -77 -48 -105 -48c-18.667 0 -34 6 -46 18s-18 27.333 -18 46c0 22 8 41 24 57c2 2 3 3.66699 3 5s-0.666992 2 -2 2c-2 0 -7 -2.33301 -15 -7c-40.667 -24 -89 -64 -145 -120c-2 -2 -5 -3 -9 -3
c-7.33301 0 -16.5 3.33301 -27.5 10s-16.5 13.334 -16.5 20.001c0 9.33301 17.667 34.333 53 75c26.667 30.667 40 50 40 58c-6.66699 0 -29 -13.333 -67 -40c-2.66699 -1.33301 -4.33398 -2 -5.00098 -2c-4.66699 0 -7.66699 2.66699 -9 8c-0.666992 1.33301 -1 3 -1 5
c0 4 2 8 6 12c10.667 10 30 23.333 58 40c33.333 20 57 30 71 30c8.66699 0 17.667 -4 27 -12s14 -15.667 14 -23c0 -5.33301 -5 -16 -15 -32c-2 -3.33301 -3 -6 -3 -8c0 -2.66699 1 -4 3 -4c1.33301 0 4 1.66699 8 5c12 10 34.167 25 66.5 45s51.833 29.667 58.5 29
c8.66699 -0.666992 17.667 -7 27 -19s14 -23 14 -33c0 -6 -9.33301 -19.667 -28 -41l-33 -37c-12.667 -15.333 -19 -26.666 -19 -33.999c0 -8.66699 5 -13 15 -13c14.667 0 42.334 17 83.001 51l79 65c5.33301 4 9.66602 5.66699 12.999 5
s4.66602 -3.33398 3.99902 -8.00098z" />
    <glyph glyph-name="o" unicode="o" horiz-adv-x="312" 
d="M345 153c2.66699 -9.33301 -1.33301 -18.666 -12 -27.999c-36.667 -31.333 -72.334 -47 -107.001 -47c-15.333 0 -25.666 1.33301 -30.999 4c-14 -18.667 -32.667 -37.334 -56 -56.001c-34 -26.667 -66 -40 -96 -40c-19.333 0 -35.833 6.33301 -49.5 19
s-20.5 30.334 -20.5 53.001c0 45.333 21 84 63 116c38.667 29.333 80.334 44 125.001 44c13.333 0 25.5 -1.83301 36.5 -5.5s16.5 -7.16699 16.5 -10.5s-1.33301 -5.33301 -4 -6c-44 -10 -81.667 -36.667 -113 -80c-12 -16.667 -18 -32.334 -18 -47.001
c0 -14 5.66699 -21 17 -21c16.667 0 39.667 16.667 69 50c-6 7.33301 -9 15.333 -9 24c0 9.33301 3 19.333 9 30c15.333 26.667 33.666 40 54.999 40c12.667 0 19 -8 19 -24c0 -22 -8 -41.667 -24 -59c4 -1.33301 10.333 -2 19 -2c16 0 33.667 5.66699 53 17
c16 10 31.667 20.333 47 31c6 4 9.66699 3.33301 11 -2z" />
    <glyph glyph-name="p" unicode="p" horiz-adv-x="350" 
d="M385 148c-2 -8 -10 -18.667 -24 -32c-44 -41.333 -75.333 -68 -94 -80c-44.667 -29.333 -81 -44 -109 -44c-10 0 -17.667 4.33301 -23 13c-25.333 -12 -48.666 -18 -69.999 -18c-46.667 0 -70 20 -70 60c-95.333 -104 -176.666 -212.333 -243.999 -325l-4 -1
c-7.33301 0 -15.166 5 -23.499 15s-12.5 18.667 -12.5 26c0 28 56.833 110.833 170.5 248.5s182.5 206.5 206.5 206.5c3.33301 0 8.66602 0.5 15.999 1.5s12.666 1.5 15.999 1.5c28.667 0 41.667 -5.66699 39 -17c20 10 37.333 15 52 15c15.333 0 28.5 -4.66699 39.5 -14
s16.5 -22 16.5 -38c0 -40.667 -24.667 -81.667 -74 -123c5.33301 -4 8.66602 -6 9.99902 -6c18 0 46.667 16.667 86 50c20.667 18 46.667 39.333 78 64c6 4 10.333 6 13 6c3.33301 0 5 -2 5 -6v-3zM191 174c0 10 -4.99902 15.001 -14.999 15.001
c-12.667 0 -39.834 -21.167 -81.501 -63.5s-62.5 -70.5 -62.5 -84.5c0 -5.33301 3.33301 -8 10 -8c16.667 0 45.667 19.167 87 57.5s62 66.166 62 83.499z" />
    <glyph glyph-name="q" unicode="q" 
d="M437 148c-2 -8 -9.99805 -18.668 -23.998 -32.001c-44 -41.333 -75.333 -68 -94 -80c-45.333 -29.333 -84 -44 -116 -44c0 -19.333 -19.333 -65.333 -58 -138c-42 -79.333 -75.333 -119 -100 -119c-12 0 -22.667 4.5 -32 13.5s-14 21.833 -14 38.5
c0 33.333 13.333 75.666 40 126.999c22 44 46.667 82 74 114l-2 1c-24.667 -22.667 -53.667 -34 -87 -34c-16 0 -30 6.33301 -42 19s-18 28.334 -18 47.001c0 16.667 5.33301 33.667 16 51c17.333 28 45 52 83 72s75.333 30 112 30c35.333 0 53 -12.667 53 -38
c27.333 25.333 46.666 38 57.999 38c8 0 18.333 -4.16699 31 -12.5s18.667 -16.166 18 -23.499c-0.666992 -6 -8.33398 -17.333 -23.001 -34l-34 -36c-24 -27.333 -36 -47.333 -36 -60c0 -7.33301 4.33301 -11 13 -11c18 0 46.667 16.667 86 50
c20.667 18 46.667 39.333 78 64c6 4 10.333 6 13 6c3.33301 0 5 -2 5 -6v-3zM211.002 159.999c1.33301 8 -5.66699 12 -21 12c-27.333 0 -55.666 -14 -84.999 -42c-18 -17.333 -27 -33.333 -27 -48c0 -10.667 5.33301 -16 16 -16c21.333 0 45.666 16.667 72.999 50
c14 17.333 28.667 32 44 44zM178.002 -5.00098c-14.667 -16 -41.667 -50.667 -81 -104c-38.667 -57.333 -58 -94 -58 -110c0 -11.333 3.66699 -17 11 -17c14 0 38.667 36 74 108c31.333 62.667 49.333 103.667 54 123z" />
    <glyph glyph-name="r" unicode="r" horiz-adv-x="278" 
d="M313 149c-2 -10 -9.99707 -20.999 -23.9971 -32.999l-84 -73c-45.333 -35.333 -82 -53 -110 -53c-19.333 0 -34.833 6.16699 -46.5 18.5s-17.5 27.5 -17.5 45.5c0 28.667 22 65 66 109c-16 -10 -31.667 -15 -47 -15h-2l-32 -27c-1.33301 -1.33301 -3.33301 -2 -6 -2
c-7.33301 0 -11 4.33301 -11 13c0 4.66699 1 7.33398 3 8.00098c6 4 12.333 9.33301 19 16c-14.667 7.33301 -22 17 -22 29c0 14 12.333 30.333 37 49c22 17.333 39 26 51 26c11.333 0 17 -11 17 -33c0 -6.66699 -2.16699 -14.167 -6.5 -22.5l-6.5 -12.5
c0 -4 3.66699 -6 11 -6c6 0 13 2 21 6c2.66699 1.33301 9 5.66602 19 12.999c7.33301 5.33301 12.666 8 15.999 8c8.66699 0 17.667 -6.16699 27 -18.5s14 -23.5 14 -33.5c0 -6 -9.33301 -19.667 -28 -41l-38 -42c-16 -18 -24 -30.667 -24 -38c0 -8.66699 5 -13 15 -13
c14 0 45 20 93 60l79 65c5.33301 4 9.66602 5.66699 12.999 5s4.66602 -3.33398 3.99902 -8.00098z" />
    <glyph glyph-name="s" unicode="s" horiz-adv-x="281" 
d="M316 149c-2 -10 -9.99707 -20.998 -23.9971 -32.998l-70 -62c-36.667 -29.333 -68.334 -47 -95.001 -53c-20 -10.667 -42.333 -16 -67 -16c-29.333 0 -53.333 5 -72 15s-28 23.667 -28 41c0 22 11 33 33 33c14 0 21 -8 21 -24c0 -2 -0.5 -6 -1.5 -12
s-1.5 -9.66699 -1.5 -11c0 -3.33301 2.66699 -5 8 -5c12 0 24.5 9.66699 37.5 29s19.5 40 19.5 62c0 17.333 -4.66699 31.333 -14 42c-1.33301 1.33301 -2.33301 2 -3 2l-57 -49c-1.33301 -1.33301 -2.66602 -2 -3.99902 -2c-9.33301 0 -14 5.66699 -14 17
c0 1.33301 0.666992 2.66602 2 3.99902c15.333 12 35.666 29 60.999 51v1c0 20.667 10.333 39.334 31 56.001s42 25 64 25c10.667 0 16 -6 16 -18c0 -6 -3.16699 -14.833 -9.5 -26.5s-9.5 -21.834 -9.5 -30.501c0 -8 6.66699 -22.5 20 -43.5s20 -40.833 20 -59.5
c0 -12.667 -2.33301 -23.667 -7 -33c8.66699 5.33301 24.667 18 48 38l79 65c5.33301 4 9.66602 5.66699 12.999 5s4.66602 -3.33398 3.99902 -8.00098z" />
    <glyph glyph-name="t" unicode="t" horiz-adv-x="236" 
d="M271 149c-1.33301 -10 -9.33594 -20.999 -24.0029 -32.999l-54 -48c-28 -24.667 -53.333 -43 -76 -55c-32 -17.333 -68.667 -26 -110 -26c-32.667 0 -49 16.333 -49 49c0 37.333 34.333 94 103 170h-15c-6 -0.666992 -9.66699 -1 -11 -1c-13.333 0 -20 7.33301 -20 22
c0 13.333 3.33301 22 10 26c4.66699 2.66699 30.667 4 78 4c40.667 46.667 67.334 71.667 80.001 75c5.33301 1.33301 16 2 32 2c21.333 0 36.333 -2 45 -6c3.33301 -0.666992 5 -3 5 -7c0 -3.33301 -1.33301 -6 -4 -8c-15.333 -13.333 -34.666 -33 -57.999 -59l14 1
c19.333 1.33301 29 -3.66699 29 -15c0 -8.66699 -4.33301 -15 -13 -19c-4 -2 -26 -4.66699 -66 -8c-59.333 -60.667 -99.666 -108.334 -120.999 -143.001c-6 -10 -9 -17.667 -9 -23c0 -11.333 7 -17 21 -17c32.667 0 71.667 19 117 57l79 65c4.66699 3.33301 8.66699 5 12 5
c4 0 5.66699 -2.66699 5 -8z" />
    <glyph glyph-name="u" unicode="u" horiz-adv-x="389" 
d="M424 149c-2 -10 -9.99707 -20.999 -23.9971 -32.999l-54 -48c-28 -24 -53.333 -42 -76 -54c-26.667 -14 -54 -21 -82 -21s-42 12.333 -42 37c0 11.333 2.66699 24.333 8 39c-20.667 -20.667 -47 -39.334 -79 -56.001c-26 -13.333 -50.333 -20 -73 -20
c-27.333 0 -41 13 -41 39c0 30 12.667 62.667 38 98s52.333 61 81 77c8 4.66699 22 7.33398 42 8.00098c19.333 1.33301 33 0.333008 41 -3c6 -2 7.66699 -4.33301 5 -7c-19.333 -18.667 -42.333 -44.667 -69 -78c-34.667 -42 -52 -69.667 -52 -83
c0 -4.66699 2.33301 -7 7 -7c10 0 28.333 10 55 30c22.667 18.667 43.667 38 63 58l45 49c24.667 26 40.167 39.667 46.5 41s16.833 2 31.5 2c27.333 0 45 -1.66699 53 -5c5.33301 -2 7 -4.33301 5 -7c-56.667 -62 -94.334 -108.667 -113.001 -140
c-5.33301 -9.33301 -8 -16.333 -8 -21s2.33301 -7 7 -7c20 0 49.667 16.667 89 50l79 65c5.33301 4 9.66602 5.66699 12.999 5s4.66602 -3.33398 3.99902 -8.00098z" />
    <glyph glyph-name="v" unicode="v" horiz-adv-x="313" 
d="M348 146c0 -6.66699 -24.333 -31.334 -73 -74.001c-35.333 -30.667 -67.333 -46 -96 -46c-18 0 -30.667 7 -38 21c-48.667 -36 -93 -54 -133 -54c-34 0 -51 15.333 -51 46c0 53.333 32.333 107.333 97 162c7.33301 6 12.333 9.33301 15 10c9.33301 2 21 3 35 3
c19.333 0 33 -1.66699 41 -5c5.33301 -2 7 -4.33301 5 -7c-18.667 -17.333 -39.667 -41 -63 -71c-29.333 -37.333 -44 -63.666 -44 -78.999c0 -10.667 4.66699 -16 14 -16c19.333 0 45.333 12.333 78 37v4c0 34.667 14.333 67.667 43 99c26 28.667 49.667 43 71 43
c12.667 0 19 -6 19 -18c0 -36 -33 -80.333 -99 -133c4 -10 11 -15 21 -15c13.333 0 30 8 50 24l90 75c4.66699 3.33301 8.66699 5 12 5c4 0 6 -3.66699 6 -11z" />
    <glyph glyph-name="w" unicode="w" horiz-adv-x="476" 
d="M511 146c0 -6.66699 -24.333 -31.332 -73 -73.999c-35.333 -30.667 -67.333 -46 -96 -46c-18 0 -30.667 7 -38 21c-48.667 -36 -90.667 -54 -126 -54c-29.333 0 -44 12.333 -44 37c0 11.333 2.66699 24.333 8 39c-53.333 -50.667 -100 -76 -140 -76
c-27.333 0 -41 13 -41 39c0 30 12.667 62.667 38 98s52.333 61 81 77c8 4.66699 22 7.33398 42 8.00098c19.333 1.33301 33 0.333008 41 -3c6 -2 7.66699 -4.33301 5 -7c-48 -46.667 -85.667 -93.334 -113 -140.001c-5.33301 -9.33301 -8 -16.333 -8 -21s2.33301 -7 7 -7
c13.333 0 47.333 29.333 102 88c18 20 43 45.333 75 76c7.33301 6 12.333 9.33301 15 10c9.33301 2 21 3 35 3c19.333 0 33 -1.66699 41 -5c5.33301 -2 7 -4.33301 5 -7c-20.667 -18.667 -41.667 -42.334 -63 -71.001c-29.333 -38.667 -44 -67.667 -44 -87
c0 -4.66699 2.33301 -7 7 -7c15.333 0 39 12 71 36v4c-0.666992 30.667 14.333 62.667 45 96c28 30.667 51 46 69 46c12.667 0 19 -6 19 -18c0 -36 -33 -80.333 -99 -133c4 -10 11 -15 21 -15c13.333 0 30 8 50 24l90 75c4.66699 3.33301 8.66699 5 12 5
c4 0 6 -3.66699 6 -11z" />
    <glyph glyph-name="x" unicode="x" horiz-adv-x="326" 
d="M361 149c-2 -10 -9.99902 -20.998 -23.999 -32.998l-54 -48c-28 -24 -53.333 -42 -76 -54c-34.667 -18 -67.334 -27 -98.001 -27c-34.667 0 -57.667 12 -69 36l-78.5 -51.5c-6.33301 -4.33301 -11.833 -6.83301 -16.5 -7.5c-2.66699 0 -4.66699 0.833008 -6 2.5
s-2 3.83398 -2 6.50098c0.666992 4.66699 3.83398 9.5 9.50098 14.5s35.5 28.167 89.5 69.5c0.666992 37.333 12 71.333 34 102l-60 -43c-1.33301 -0.666992 -3.16602 0.666016 -5.49902 3.99902s-3.5 6.66602 -3.5 9.99902c0 6.66699 11.667 18 35 34
c49.333 34 82.333 51 99 51c18 0 27 -2.33301 27 -7l-3 -7c-9.33301 -22 -17 -44.333 -23 -67l94 71c6.66699 4.66699 15 7 25 7c19.333 0 30 -5.33301 32 -16c0 -3.33301 -1.33301 -6.66602 -4 -9.99902c-6.66699 -7.33301 -59 -43 -157 -107
c0 -4.66699 -0.333008 -9.33398 -1 -14.001c0 -24 9 -36 27 -36c30 0 67.667 19.333 113 58l79 65c5.33301 4 9.66602 5.66699 12.999 5s4.66602 -3.33398 3.99902 -8.00098z" />
    <glyph glyph-name="y" unicode="y" horiz-adv-x="408" 
d="M442 149c0 -10.667 -18.999 -31.334 -56.999 -62.001c-26.667 -21.333 -51.334 -39.333 -74.001 -54c-33.333 -22 -63.666 -36 -90.999 -42c-3.33301 -0.666992 -8.66602 -2 -15.999 -4l-70.5 -93c-31.667 -41.333 -70.834 -80.666 -117.501 -117.999
c-59.333 -48 -108.333 -72 -147 -72c-15.333 0 -30.666 5.16699 -45.999 15.5s-23 23.166 -23 38.499c0 34.667 39 78.334 117 131.001c70 47.333 130.667 78.333 182 93l94 125c-27.333 -24 -57.333 -46.667 -90 -68c-44 -28 -77.333 -42 -100 -42
c-27.333 0 -41 14.667 -41 44c0 24.667 12 53.667 36 87c22 31.333 44 54 66 68s47.333 21 76 21c14.667 0 22 -5.33301 22 -16c0 -6 -16.167 -28 -48.5 -66s-48.5 -61 -48.5 -69c0 -3.33301 1.66699 -5 5 -5c10.667 0 30.667 9.66699 60 29
c23.333 15.333 41.666 29 54.999 41c20 21.333 49.667 49.666 89 84.999c6 4 11.333 6 16 6c8 0 15.667 -8.66699 23 -26c6 -14.667 9 -26 9 -34c0 -10 -30.667 -56.333 -92 -139c25.333 4.66699 65.666 28.334 120.999 71.001c53.333 41.333 81.333 62 84 62
c4.66699 -2 7 -4.33301 7 -7zM68.001 -64c-42.667 -18.667 -84 -41.334 -124 -68.001c-58.667 -39.333 -88 -72.666 -88 -99.999c0 -13.333 6.33301 -20 19 -20c28 0 92.333 62.667 193 188z" />
    <glyph glyph-name="z" unicode="z" horiz-adv-x="328" 
d="M363 149c0 -10.667 -19.002 -31.333 -57.002 -62c-26.667 -21.333 -51 -39.333 -73 -54c-17.333 -11.333 -33.333 -20.333 -48 -27c-16.667 -53.333 -69.667 -117 -159 -191s-160 -111 -212 -111c-15.333 0 -30.666 5.16699 -45.999 15.5s-23 23.166 -23 38.499
c0 34.667 45.333 79.334 136 134.001c76 45.333 140 75.333 192 90c5.33301 8 8 14.333 8 19c0 5.33301 -4.33301 8 -13 8c-9.33301 0 -23.833 -3 -43.5 -9s-30.5 -9 -32.5 -9c-4 0 -7.66699 3.66699 -11 11s-5 14.333 -5 21c0 2 0.5 4.5 1.5 7.5s36.5 24.167 106.5 63.5
c66 37.333 104.667 58.333 116 63c-18.667 -4.66699 -48.667 -7 -90 -7c-11.333 0 -27 3.33301 -47 10c-2 -1.33301 -25 -21.333 -69 -60c-4.66699 -4 -9.66699 -6 -15 -6c-9.33301 0 -14 3 -14 9c0 4.66699 2.66699 9 8 13c84.667 68.667 128.334 103 131.001 103
c3.33301 0 11.333 -2.33301 24 -7s26.667 -7 42 -7c8.66699 0 24 2.33301 46 7s34.667 7 38 7c6.66699 0 14.667 -4 24 -12c10 -10 15 -20.333 15 -31c0 -7.33301 -33.333 -28 -100 -62l-131 -65l2 -4c40.667 13.333 68.334 20 83.001 20c24 0 38 -8.33301 42 -25
c13.333 6.66699 45 28 95 64c47.333 34.667 71.666 52 72.999 52c4 -2 6 -4.33301 6 -7zM45.998 -65.999c-163.333 -71.333 -245 -126.667 -245 -166c0 -13.333 6.33301 -20 19 -20c24 0 64.667 25 122 75c53.333 46 88 83 104 111z" />
    <glyph glyph-name="braceleft" unicode="{" horiz-adv-x="500" 
d="M626 740l-8 -22.998c-56.667 -3.33301 -96.667 -16.333 -120 -39c-18 -17.333 -37.667 -55.666 -59 -114.999l-17 -47c-26 -71.333 -51.333 -119 -76 -143c-27.333 -26.667 -75 -47.334 -143 -62.001c32 -8 54.333 -16.333 67 -25c20.667 -14 31 -34.333 31 -61
c0 -27.333 -10.667 -70 -32 -128l-17 -48c-17.333 -46.667 -26 -77.667 -26 -93c0 -31.333 32.333 -48 97 -50l-9 -23c-96 0 -153.667 7.33301 -173 22c-15.333 12 -23 30.333 -23 55c0 23.333 6.66699 53.666 20 90.999l39 105c12 34 18 58.667 18 74
c0 35.333 -35.333 57.666 -106 66.999l10 27c60.667 9.33301 100.667 20 120 32c26.667 17.333 50 53.666 70 108.999l38 105c28 76.667 64.667 125.334 110 146.001c28.667 13.333 91.667 21.333 189 24z" />
    <glyph glyph-name="bar" unicode="|" horiz-adv-x="500" 
d="M286 -136h-72v900h72v-900z" />
    <glyph glyph-name="braceright" unicode="}" horiz-adv-x="500" 
d="M593 324l-10 -27.0039c-44.667 -5.33301 -78.334 -13.333 -101.001 -24c-31.333 -14.667 -55 -38.667 -71 -72c-5.33301 -10.667 -11.666 -25.667 -18.999 -45l-38 -105c-27.333 -75.333 -63.666 -124 -108.999 -146c-30 -14.667 -93 -22 -189 -22l8 23
c56 2 95 12.667 117 32c18 16.667 37.333 53.667 58 111l18 48c26.667 72.667 52.667 122 78 148c29.333 30 77.333 52 144 66c-68 17.333 -102 46.333 -102 87c0 18.667 10.667 58 32 118l17 47c18 49.333 27 82.333 27 99c0 32.667 -31 51 -93 55l8 23
c95.333 -2.66699 152.666 -10.667 171.999 -24c16.667 -11.333 25 -28.666 25 -51.999c0 -22.667 -7.33301 -54 -22 -94l-38 -105c-11.333 -31.333 -17 -56.666 -17 -75.999c0 -25.333 11.667 -42.666 35 -51.999c4.66699 -1.33301 28 -5.66602 70 -12.999z" />
    <glyph glyph-name="asciitilde" unicode="~" horiz-adv-x="647" 
d="M625 752c-11.333 -28.667 -28.668 -52.333 -52.001 -71c-29.333 -24 -64 -36 -104 -36c-31.333 0 -78.666 10.167 -141.999 30.5s-110 30.5 -140 30.5c-49.333 0 -91 -25.667 -125 -77l-27 15c24.667 41.333 49.5 70.833 74.5 88.5s55.167 26.5 90.5 26.5
c32 0 78.333 -10 139 -30s107 -30 139 -30c49.333 0 90 23 122 69z" />
    <glyph glyph-name="nonbreakingspace" unicode="&#xa0;" horiz-adv-x="200" 
 />
    <glyph glyph-name="exclamdown" unicode="&#xa1;" horiz-adv-x="328" 
d="M463 549c0 -8.66699 -5.33105 -19.5 -15.998 -32.5s-21.334 -20.5 -32.001 -22.5c-7.33301 -1.33301 -15.5 0.333984 -24.5 5.00098s-13.833 11 -14.5 19c-0.666992 9.33301 5 21.666 17 36.999s23.333 23 34 23c9.33301 0 17.666 -3 24.999 -9s11 -12.667 11 -20z
M380.002 436l-316.002 -431.001c-7.33301 -10.667 -15.666 -15 -24.999 -13l-56 12c-8.66699 2 -13 5.33301 -13 10c0 2 0.666992 3.66699 2 5l365 417c8.66699 10 15 15 19 15h13c4.66699 0 8.33398 -1.66699 11.001 -5s2.66699 -6.66602 0 -9.99902z" />
    <glyph glyph-name="cent" unicode="&#xa2;" horiz-adv-x="735" 
d="M708 535c0 -47.333 -24.666 -111.335 -73.999 -192.002c-48 -76.667 -82 -115 -102 -115c-8.66699 0 -18.5 5.33301 -29.5 16s-16.5 20.667 -16.5 30c0 6.66699 8.33301 18 25 34l39 35c89.333 82.667 134 149.334 134 200.001c0 31.333 -18.667 47 -56 47h-9l-370 -559
c9.33301 -2 19.333 -3 30 -3c78 0 164.333 43.333 259 130c2.66699 0.666992 5.33398 1 8.00098 1c10 0 13.667 -6 11 -18c-42 -40 -89.667 -73.667 -143 -101c-60 -30.667 -115.333 -46 -166 -46c-8 0 -15.667 0.333008 -23 1l-72 -110
c-6.66699 -10 -11.334 -15 -14.001 -15c-4.66699 0 -10.334 1.66699 -17.001 5s-8.66699 6.66602 -6 9.99902l76 115c-61.333 16 -92 57 -92 123c0 64 28.333 134.333 85 211c52.667 72 117.667 134.667 195 188c80 54.667 152.667 85.334 218 92.001l54 81
c6 10 13.667 15 23 15c10 0 15 -4 15 -12c-0.666992 -1.33301 -1 -2.33301 -1 -3l-54 -81c48.667 -5.33301 73 -31.666 73 -78.999zM577.001 581.998c-84 -24.667 -170.833 -87.833 -260.5 -189.5s-134.5 -189.167 -134.5 -262.5c0 -41.333 12.667 -70.333 38 -87z" />
    <glyph glyph-name="sterling" unicode="&#xa3;" horiz-adv-x="580" 
d="M689 540c0 -16.667 -7.83398 -31.998 -23.501 -45.998s-31.834 -21 -48.501 -21c-24 0 -36 8 -36 24c0 11.333 6.66699 23 20 35c11.333 9.33301 23.333 16.333 36 21c2.66699 5.33301 4 10.333 4 15c0 18.667 -16 28 -48 28c-70.667 0 -146 -87.667 -226 -263h116
c6 0 9 -3.66699 9 -11c0 -10 -6.66699 -15 -20 -15h-115c-41.333 -88.667 -95 -163.334 -161 -224.001c22.667 -12 37.334 -19 44.001 -21c12 -4 28.333 -6 49 -6c74 0 142 28 204 84l13 -10c-78.667 -93.333 -170 -140 -274 -140c-20 0 -36.667 4.66699 -50 14
c-8.66699 6 -20.667 18.333 -36 37c-40 -28.667 -74.667 -43 -104 -43c-26 0 -39 9.66699 -39 29c0 22.667 14.333 42 43 58c25.333 13.333 50 20 74 20c12 0 23.333 -1.33301 34 -4c34.667 49.333 71.667 118 111 206h-94c-8.66699 0 -13 4 -13 12c0 9.33301 8 14 24 14h93
c35.333 72 78.333 133.667 129 185c64.667 64.667 129.334 97 194.001 97c25.333 0 46.833 -6.33301 64.5 -19s26.5 -31.334 26.5 -56.001zM122.999 63.002c-9.33301 9.33301 -18.666 14.001 -27.999 14.001c-12.667 0 -25.334 -3.66699 -38.001 -11
c-15.333 -8.66699 -23 -18.334 -23 -29.001c0 -9.33301 6 -14 18 -14c24 0 47.667 13.333 71 40z" />
    <glyph glyph-name="currency" unicode="&#xa4;" horiz-adv-x="684" 
d="M750 535c0 -47.333 -24.667 -111.336 -74 -192.003c-48 -76.667 -82 -115 -102 -115c-8.66699 0 -18.5 5.33301 -29.5 16s-16.5 20.667 -16.5 30c0 6.66699 8.33301 18 25 34l39 35c89.333 82.667 134 149.334 134 200.001c0 31.333 -18.667 47 -56 47
c-46.667 0 -102 -22 -166 -66c-60 -42 -115.333 -94 -166 -156h145c10 0 13 -5 9 -15l-6 -16c-3.33301 -10 -10 -15 -20 -15h-163c-20 -28 -36.333 -55.333 -49 -82h173c10 0 13 -5 9 -15l-6 -16c-3.33301 -10 -10 -15 -20 -15h-175
c-7.33301 -23.333 -11 -44.666 -11 -63.999c0 -68 32.333 -102 97 -102c78 0 164.667 43.333 260 130c2 0.666992 4.33301 1 7 1c10 0 13.667 -6 11 -18c-42 -40 -89.667 -73.667 -143 -101c-60 -30.667 -115.333 -46 -166 -46c-98.667 0 -148 43 -148 129
c0 22.667 3.66699 46.334 11 71.001h-137c-10 0 -13.333 5 -10 15l6 16c3.33301 10 10 15 20 15h139c12 26.667 27.667 54 47 82h-146c-10 0 -13.333 5 -10 15l6 16c3.33301 10 10 15 20 15h165c57.333 69.333 123.666 127.333 198.999 174
c78.667 48.667 148.334 73 209.001 73c59.333 0 89 -26.667 89 -80z" />
    <glyph glyph-name="dieresis" unicode="&#xa8;" horiz-adv-x="302" 
d="M253 745c0.666992 -7.33301 -5.16797 -18.499 -17.501 -33.499s-22.5 -22.5 -30.5 -22.5c-8.66699 0 -16.5 2.83301 -23.5 8.5s-10.5 12.167 -10.5 19.5c0 8 5.16699 18 15.5 30s20.166 19 29.499 21c6.66699 1.33301 14.334 -0.333984 23.001 -5.00098
s13.334 -10.667 14.001 -18zM135.998 745.001c0.666992 -7.33301 -5.16797 -18.499 -17.501 -33.499s-22.5 -22.5 -30.5 -22.5c-8.66699 0 -16.5 2.83301 -23.5 8.5s-10.5 12.167 -10.5 19.5c0 8 5.16699 18 15.5 30s20.166 19 29.499 21
c6.66699 1.33301 14.334 -0.333984 23.001 -5.00098s13.334 -10.667 14.001 -18z" />
    <glyph glyph-name="copyright" unicode="&#xa9;" horiz-adv-x="739" 
d="M688 313c0 -89.333 -31.5 -165.333 -94.5 -228s-138.5 -94 -226.5 -94c-89.333 0 -165.333 31.333 -228 94s-94 138.667 -94 228c0 88 31.5 163.5 94.5 226.5s138.833 94.5 227.5 94.5c88 0 163.5 -31.5 226.5 -94.5s94.5 -138.5 94.5 -226.5zM646 313
c0 76.667 -27.1689 142.167 -81.502 196.5s-120.166 81.5 -197.499 81.5s-143.166 -27.167 -197.499 -81.5s-81.5 -119.833 -81.5 -196.5c0 -77.333 27.333 -143.333 82 -198s120.334 -82 197.001 -82c77.333 0 143.166 27.333 197.499 82s81.5 120.667 81.5 198z
M519.998 141c2.66699 -9.33301 0.334961 -14 -6.99805 -14s-26.833 -2.83301 -58.5 -8.5s-56.5 -8.5 -74.5 -8.5c-59.333 0 -110.166 19.333 -152.499 58s-63.5 85.334 -63.5 140.001c0 55.333 21.167 102.166 63.5 140.499s93.166 57.5 152.499 57.5
c13.333 0 47.333 -4.33301 102 -13c9.33301 -2 17.166 -3 23.499 -3s8.16602 -4.66699 5.49902 -14c-5.33301 -16.667 -7.66602 -39.667 -6.99902 -69c0 -5.33301 -3.33301 -8 -10 -8c-9.33301 0 -14 3.66699 -14 11l1 7c3.33301 21.333 -7.33398 38.666 -32.001 51.999
c-20.667 10.667 -42.334 15.667 -65.001 15c-44 -1.33301 -81 -18.833 -111 -52.5s-45 -74.5 -45 -122.5c0 -48.667 15 -90 45 -124s67 -51 111 -51c38 0 67.667 8.66699 89 26c14 11.333 19.667 27 17 47c0 7.33301 4.33301 11 13 11c6.66699 0 10.334 -2.33301 11.001 -7
c-0.666992 -31.333 1.33301 -54.666 6 -69.999z" />
    <glyph glyph-name="ordfeminine" unicode="&#xaa;" horiz-adv-x="541" 
d="M646 550c-2 -8 -9.99805 -18.6699 -23.998 -32.0029c-42.667 -40 -74 -66.667 -94 -80c-47.333 -32 -83.333 -48 -108 -48c-37.333 0 -56 20 -56 60c0 8.66699 0.333008 15.334 1 20.001c-12.667 -17.333 -30 -33 -52 -47c-27.333 -17.333 -54 -26 -80 -26
c-16 0 -30 6.33301 -42 19s-18 28.334 -18 47.001c0 16.667 5.33301 33.667 16 51c17.333 28 45 52 83 72s75.333 30 112 30c35.333 0 53 -12.667 53 -38c27.333 25.333 46.666 38 57.999 38c8 0 18.333 -4.16699 31 -12.5s18.667 -16.166 18 -23.499
c-0.666992 -6 -8.33398 -17.333 -23.001 -34l-34 -36c-24 -27.333 -36 -47.333 -36 -60c0 -7.33301 4.33301 -11 13 -11c18 0 46.667 16.667 86 50c20.667 18 46.667 39.333 78 64c6 4 10.333 6 13 6c3.33301 0 5 -2 5 -6v-3zM420.002 561.997c1.33301 8 -5.66699 12 -21 12
c-27.333 0 -55.666 -14 -84.999 -42c-18 -17.333 -27 -33.333 -27 -48c0 -10.667 5.33301 -16 16 -16c21.333 0 45.666 16.667 72.999 50c14 17.333 28.667 32 44 44z" />
    <glyph glyph-name="guillemotleft" unicode="&#xab;" horiz-adv-x="362" 
d="M320 318l-78.001 -78.999l32 -109c1.33301 -4.66699 0.333008 -7.66699 -3 -9c-3.33301 -0.666992 -6.33301 0.666016 -9 3.99902l-76 126c-2.66699 4 -2 7.33301 2 10l123 67c4 2 7.33301 1.66699 10 -1c2.66699 -3.33301 2.33398 -6.33301 -0.999023 -9z
M215.999 318.001l-78.001 -78.999l33 -109c1.33301 -4.66699 0.333008 -7.66699 -3 -9c-4 -0.666992 -7 0.666016 -9 3.99902l-77 126c-2.66699 4 -2 7.33301 2 10l124 67c3.33301 2 6.33301 1.66699 9 -1c2.66699 -3.33301 2.33398 -6.33301 -0.999023 -9z" />
    <glyph glyph-name="registered" unicode="&#xae;" horiz-adv-x="629" 
d="M597 504c0 -72.667 -25.833 -135 -77.5 -187s-113.834 -78 -186.501 -78c-73.333 0 -135.833 26 -187.5 78s-77.5 114.333 -77.5 187c0 73.333 26 135.833 78 187.5s114.333 77.5 187 77.5s134.834 -26 186.501 -78s77.5 -114.333 77.5 -187zM564 504
c0 64 -22.499 118.5 -67.499 163.5s-99.5 67.5 -163.5 67.5s-118.5 -22.5 -163.5 -67.5s-67.5 -99.5 -67.5 -163.5c0 -63.333 22.5 -117.666 67.5 -162.999s99.5 -68 163.5 -68c63.333 0 117.666 22.667 162.999 68s68 99.666 68 162.999zM498.001 351
c0 -6 -4.00195 -9.00098 -12.002 -9.00098c-43.333 0 -73 13.667 -89 41l-29 76c-13.333 28 -38.666 42 -75.999 42v-107c0 -16 7 -24.5 21 -25.5s21 -5.16699 21 -12.5c0 -8 -3 -12 -9 -12c-6.66699 0 -16.5 0.5 -29.5 1.5s-22.833 1.5 -29.5 1.5s-16.667 -0.5 -30 -1.5
s-23.333 -1.5 -30 -1.5c-5.33301 2 -8 6 -8 12s2.66699 10 8 12c12 0 20 1.5 24 4.5s6 10.167 6 21.5v236c0 12.667 -2.66699 20.667 -8 24c-2 1.33301 -9 2.33301 -21 3c-6 0.666992 -9 4.33398 -9 11.001c0 6 2.66699 10 8 12c10.667 0 27 -0.333008 49 -1
s38.333 -1 49 -1c4.66699 0 11.667 0.333008 21 1s16 1 20 1c26 0 47.833 -8.33301 65.5 -25s26.5 -37.334 26.5 -62.001c0 -37.333 -20.667 -64.333 -62 -81c29.333 -11.333 49.333 -36.666 60 -75.999s29.334 -65.333 56.001 -78c4.66699 -2 7 -4.33301 7 -7z
M379.999 592.999c0 20.667 -4 35.666 -12 44.999s-22 14 -42 14c-22.667 0 -34 -7.33301 -34 -22v-108c58.667 0.666992 88 24.334 88 71.001z" />
    <glyph glyph-name="macron" unicode="&#xaf;" horiz-adv-x="357" 
d="M303 726h-237v43h237v-43z" />
    <glyph glyph-name="macron" unicode="&#x2c9;" horiz-adv-x="357" 
d="M303 726h-237v43h237v-43z" />
    <glyph glyph-name="acute" unicode="&#xb4;" horiz-adv-x="268" 
d="M214 743c0 -12.667 -6 -22.333 -18 -29l-114 -61h-36l99 100c13.333 13.333 26.333 20 39 20c20 0 30 -10 30 -30z" />
    <glyph glyph-name="periodcentered" unicode="&#xb7;" horiz-adv-x="270" 
d="M199 187c0.666992 -8.66699 -5.00098 -20.832 -17.001 -36.499s-23.333 -23.5 -34 -23.5c-9.33301 0 -17.666 3 -24.999 9s-11 13 -11 21s5.5 18.5 16.5 31.5s21.5 20.5 31.5 22.5c7.33301 1.33301 15.5 -0.333984 24.5 -5.00098s13.833 -11 14.5 -19z" />
    <glyph glyph-name="periodcentered" unicode="&#x2219;" horiz-adv-x="270" 
d="M199 187c0.666992 -8.66699 -5.00098 -20.832 -17.001 -36.499s-23.333 -23.5 -34 -23.5c-9.33301 0 -17.666 3 -24.999 9s-11 13 -11 21s5.5 18.5 16.5 31.5s21.5 20.5 31.5 22.5c7.33301 1.33301 15.5 -0.333984 24.5 -5.00098s13.833 -11 14.5 -19z" />
    <glyph glyph-name="cedilla" unicode="&#xb8;" horiz-adv-x="224" 
d="M180 -61c0 -30 -22 -63.332 -66 -99.999c-23.333 -19.333 -45 -29 -65 -29c-18.667 0 -28 7.33301 -28 22c0 20.667 10.667 31 32 31c6 0 11.667 -2.33301 17 -7s9.33301 -7 12 -7c12.667 0 24.834 6.5 36.501 19.5s17.5 25.5 17.5 37.5c0 8.66699 -5.33301 13 -16 13
s-22.667 -4 -36 -12l-14 -10.5c-4.66699 -3.66699 -8.66699 -4.83398 -12 -3.50098c-4.66699 2 -4.33398 6.33301 0.999023 13l59 94h29l-22 -44c15.333 1.33301 25 2 29 2c17.333 0 26 -6.33301 26 -19z" />
    <glyph glyph-name="ordmasculine" unicode="&#xba;" horiz-adv-x="445" 
d="M550 551c2.66699 -9.33301 -1.33301 -18.665 -12 -27.998c-36.667 -31.333 -72.334 -47 -107.001 -47c-15.333 0 -25.666 1.33301 -30.999 4c-14 -18.667 -32.667 -37.334 -56 -56.001c-34 -26.667 -66 -40 -96 -40c-19.333 0 -35.333 6 -48 18
c-14.667 13.333 -22 31.333 -22 54c0 45.333 21 84 63 116c38.667 29.333 80.334 44 125.001 44c13.333 0 25.5 -1.83301 36.5 -5.5s16.5 -7.16699 16.5 -10.5s-1.33301 -5.33301 -4 -6c-44 -10 -81.667 -36.667 -113 -80c-12 -16.667 -18 -32.334 -18 -47.001
c0 -14 5.66699 -21 17 -21c16.667 0 39.667 16.667 69 50c-6 7.33301 -9 15.333 -9 24c0 9.33301 3 19.333 9 30c15.333 26.667 33.666 40 54.999 40c12.667 0 19 -8 19 -24c0 -22 -8 -41.667 -24 -59c4 -1.33301 10.333 -2 19 -2c16 0 33.667 5.66699 53 17
c16 10 31.667 20.333 47 31c6 4 9.66699 3.33301 11 -2z" />
    <glyph glyph-name="guillemotright" unicode="&#xbb;" horiz-adv-x="486" 
d="M416 207c2 -4 1 -7.33398 -3 -10.001l-123 -67c-4 -2 -7.33301 -1.66699 -10 1c-2 3.33301 -1.66699 6.33301 1 9l78 79l-32 109c-1.33301 4.66699 -0.333008 7.66699 3 9c3.33301 0.666992 6.33301 -0.666016 9 -3.99902zM312 206.999
c2.66699 -4 2.00098 -7.33398 -1.99902 -10.001l-123 -67c-4 -2 -7.33301 -1.66699 -10 1c-2.66699 3.33301 -2.33398 6.33301 0.999023 9l78 79l-33 109c-1.33301 4.66699 0 7.66699 4 9c3.33301 0.666992 6.33301 -0.666016 9 -3.99902z" />
    <glyph glyph-name="questiondown" unicode="&#xbf;" horiz-adv-x="533" 
d="M560 566c0 -10 -6.33301 -21.667 -19 -35s-24 -20 -34 -20c-8 0 -15.667 2.5 -23 7.5s-11 11.167 -11 18.5c0 10 6 22.167 18 36.5s23 21.5 33 21.5c8 0 16 -2.83301 24 -8.5s12 -12.5 12 -20.5zM479 472c0 -3.33301 -0.998047 -7.33105 -2.99805 -11.998
c-17.333 -31.333 -54.666 -72.666 -111.999 -123.999c-74 -66 -119.667 -108.667 -137 -128c-44.667 -50 -67 -95.667 -67 -137c0 -31.333 19 -47 57 -47c35.333 0 74.166 16.167 116.499 48.5s63.5 65.5 63.5 99.5c0 16.667 -6.33301 26.5 -19 29.5s-19 6.5 -19 10.5
c0 7.33301 3.83301 17.666 11.5 30.999s15.167 20 22.5 20c15.333 0 29.666 -6.33301 42.999 -19s20 -26.667 20 -42c0 -54.667 -33.667 -104.334 -101 -149.001c-60.667 -40.667 -120 -61 -178 -61c-28.667 0 -53.334 5.33301 -74.001 16c-26 13.333 -39 32.666 -39 57.999
c0 38 36.667 89.333 110 154l159 128c33.333 28.667 72.333 68.667 117 120c6 7.33301 13.333 11 22 11c4.66699 0 7 -2.33301 7 -7z" />
    <glyph glyph-name="Agrave" unicode="&#xc0;" horiz-adv-x="1192" 
d="M1345 683c0 -41.333 -24.3359 -99 -73.0029 -173c-15.333 -22.667 -67 -92.334 -155 -209.001c51.333 -3.33301 77 -13.333 77 -30c0 -11.333 -10 -31.333 -30 -60s-35.333 -43 -46 -43c-11.333 0 -26.666 0.666992 -45.999 2c-22.667 1.33301 -38 2 -46 2
c-52 -81.333 -78 -147 -78 -197c0 -48 20.667 -71.667 62 -71c0.666992 -1.33301 1 -3 1 -5c0 -3.33301 -1.66699 -7.66602 -5 -12.999s-6.66602 -8 -9.99902 -8c-25.333 0 -45.333 8.66699 -60 26s-22 39.333 -22 66c0 52.667 25.333 120 76 202
c-83.333 -0.666992 -167.666 -2.66699 -252.999 -6c-153.333 -146 -339 -219 -557 -219c-50 0 -90 6.83301 -120 20.5s-45 33.5 -45 59.5c0 63.333 82.333 119.333 247 168c144 42.667 325.333 73.667 544 93c26 30 79.667 99.667 161 209c60 80 109.333 136.667 148 170
c55.333 46.667 112.333 70 171 70c39.333 0 59 -18 59 -54zM1245 580c0 10 -4 18.501 -12 25.501s-17 10.5 -27 10.5c-42 0 -83.333 -16 -124 -48c-30.667 -24 -67.667 -64 -111 -120l-121 -157c78.667 6 155 9.33301 229 10c64.667 88 102.667 140.667 114 158
c34.667 53.333 52 93.666 52 120.999zM681.997 164.001c-180 -9.33301 -324.666 -24.333 -433.999 -45c-132 -25.333 -198 -57 -198 -95c0 -16 16.333 -27.667 49 -35c21.333 -4.66699 43.666 -7 66.999 -7c200 0 372 60.667 516 182zM1291 783.001l-36 -0.000976562
l-114 61c-12 6.66699 -18 16.334 -18 29.001c0 20 10 30 30 30c12.667 0 25.667 -6.66699 39 -20z" />
    <glyph glyph-name="Aacute" unicode="&#xc1;" horiz-adv-x="1192" 
d="M1345 683c0 -41.333 -24.3359 -99 -73.0029 -173c-15.333 -22.667 -67 -92.334 -155 -209.001c51.333 -3.33301 77 -13.333 77 -30c0 -11.333 -10 -31.333 -30 -60s-35.333 -43 -46 -43c-11.333 0 -26.666 0.666992 -45.999 2c-22.667 1.33301 -38 2 -46 2
c-52 -81.333 -78 -147 -78 -197c0 -48 20.667 -71.667 62 -71c0.666992 -1.33301 1 -3 1 -5c0 -3.33301 -1.66699 -7.66602 -5 -12.999s-6.66602 -8 -9.99902 -8c-25.333 0 -45.333 8.66699 -60 26s-22 39.333 -22 66c0 52.667 25.333 120 76 202
c-83.333 -0.666992 -167.666 -2.66699 -252.999 -6c-153.333 -146 -339 -219 -557 -219c-50 0 -90 6.83301 -120 20.5s-45 33.5 -45 59.5c0 63.333 82.333 119.333 247 168c144 42.667 325.333 73.667 544 93c26 30 79.667 99.667 161 209c60 80 109.333 136.667 148 170
c55.333 46.667 112.333 70 171 70c39.333 0 59 -18 59 -54zM1245 580c0 10 -4 18.501 -12 25.501s-17 10.5 -27 10.5c-42 0 -83.333 -16 -124 -48c-30.667 -24 -67.667 -64 -111 -120l-121 -157c78.667 6 155 9.33301 229 10c64.667 88 102.667 140.667 114 158
c34.667 53.333 52 93.666 52 120.999zM681.997 164.001c-180 -9.33301 -324.666 -24.333 -433.999 -45c-132 -25.333 -198 -57 -198 -95c0 -16 16.333 -27.667 49 -35c21.333 -4.66699 43.666 -7 66.999 -7c200 0 372 60.667 516 182zM1435 873.001
c0 -12.667 -6 -22.333 -18 -29l-114 -61h-36l99 100c13.333 13.333 26.333 20 39 20c20 0 30 -10 30 -30z" />
    <glyph glyph-name="Acircumflex" unicode="&#xc2;" horiz-adv-x="1192" 
d="M1345 683c0 -41.333 -24.3359 -99 -73.0029 -173c-15.333 -22.667 -67 -92.334 -155 -209.001c51.333 -3.33301 77 -13.333 77 -30c0 -11.333 -10 -31.333 -30 -60s-35.333 -43 -46 -43c-11.333 0 -26.666 0.666992 -45.999 2c-22.667 1.33301 -38 2 -46 2
c-52 -81.333 -78 -147 -78 -197c0 -48 20.667 -71.667 62 -71c0.666992 -1.33301 1 -3 1 -5c0 -3.33301 -1.66699 -7.66602 -5 -12.999s-6.66602 -8 -9.99902 -8c-25.333 0 -45.333 8.66699 -60 26s-22 39.333 -22 66c0 52.667 25.333 120 76 202
c-83.333 -0.666992 -167.666 -2.66699 -252.999 -6c-153.333 -146 -339 -219 -557 -219c-50 0 -90 6.83301 -120 20.5s-45 33.5 -45 59.5c0 63.333 82.333 119.333 247 168c144 42.667 325.333 73.667 544 93c26 30 79.667 99.667 161 209c60 80 109.333 136.667 148 170
c55.333 46.667 112.333 70 171 70c39.333 0 59 -18 59 -54zM1245 580c0 10 -4 18.501 -12 25.501s-17 10.5 -27 10.5c-42 0 -83.333 -16 -124 -48c-30.667 -24 -67.667 -64 -111 -120l-121 -157c78.667 6 155 9.33301 229 10c64.667 88 102.667 140.667 114 158
c34.667 53.333 52 93.666 52 120.999zM681.997 164.001c-180 -9.33301 -324.666 -24.333 -433.999 -45c-132 -25.333 -198 -57 -198 -95c0 -16 16.333 -27.667 49 -35c21.333 -4.66699 43.666 -7 66.999 -7c200 0 372 60.667 516 182zM1393 780.001l-23 -1.00098
c-7.33301 0 -12.833 0.666992 -16.5 2s-8.5 6.33301 -14.5 15l-32 45l-51 -45c-3.33301 -3.33301 -9 -7.66602 -17 -12.999c-7.33301 -2.66699 -17.333 -4 -30 -4h-24l75 81c17.333 18.667 34.666 28 51.999 28c20.667 0 35.334 -9.33301 44.001 -28z" />
    <glyph glyph-name="Atilde" unicode="&#xc3;" horiz-adv-x="1192" 
d="M1345 683c0 -41.333 -24.3359 -99 -73.0029 -173c-15.333 -22.667 -67 -92.334 -155 -209.001c51.333 -3.33301 77 -13.333 77 -30c0 -11.333 -10 -31.333 -30 -60s-35.333 -43 -46 -43c-11.333 0 -26.666 0.666992 -45.999 2c-22.667 1.33301 -38 2 -46 2
c-52 -81.333 -78 -147 -78 -197c0 -48 20.667 -71.667 62 -71c0.666992 -1.33301 1 -3 1 -5c0 -3.33301 -1.66699 -7.66602 -5 -12.999s-6.66602 -8 -9.99902 -8c-25.333 0 -45.333 8.66699 -60 26s-22 39.333 -22 66c0 52.667 25.333 120 76 202
c-83.333 -0.666992 -167.666 -2.66699 -252.999 -6c-153.333 -146 -339 -219 -557 -219c-50 0 -90 6.83301 -120 20.5s-45 33.5 -45 59.5c0 63.333 82.333 119.333 247 168c144 42.667 325.333 73.667 544 93c26 30 79.667 99.667 161 209c60 80 109.333 136.667 148 170
c55.333 46.667 112.333 70 171 70c39.333 0 59 -18 59 -54zM1245 580c0 10 -4 18.501 -12 25.501s-17 10.5 -27 10.5c-42 0 -83.333 -16 -124 -48c-30.667 -24 -67.667 -64 -111 -120l-121 -157c78.667 6 155 9.33301 229 10c64.667 88 102.667 140.667 114 158
c34.667 53.333 52 93.666 52 120.999zM681.997 164.001c-180 -9.33301 -324.666 -24.333 -433.999 -45c-132 -25.333 -198 -57 -198 -95c0 -16 16.333 -27.667 49 -35c21.333 -4.66699 43.666 -7 66.999 -7c200 0 372 60.667 516 182zM1427 853.001
c0 -2.66699 -2.66504 -7.66699 -7.99805 -15c-14.667 -21.333 -24 -34 -28 -38c-12.667 -12 -27 -18 -43 -18c-9.33301 0 -24.333 5.5 -45 16.5s-34.667 16.5 -42 16.5c-9.33301 0 -18.333 -3.66699 -27 -11s-14.334 -11 -17.001 -11c-4 0 -6 1 -6 3
c0 3.33301 3.66699 10.333 11 21c24 33.333 50 50 78 50c11.333 0 25.333 -5.5 42 -16.5s29.667 -16.5 39 -16.5s17.666 4 24.999 12s12 12 14 12c4.66699 0 7 -1.66699 7 -5z" />
    <glyph glyph-name="Adieresis" unicode="&#xc4;" horiz-adv-x="1192" 
d="M1345 683c0 -41.333 -24.3359 -99 -73.0029 -173c-15.333 -22.667 -67 -92.334 -155 -209.001c51.333 -3.33301 77 -13.333 77 -30c0 -11.333 -10 -31.333 -30 -60s-35.333 -43 -46 -43c-11.333 0 -26.666 0.666992 -45.999 2c-22.667 1.33301 -38 2 -46 2
c-52 -81.333 -78 -147 -78 -197c0 -48 20.667 -71.667 62 -71c0.666992 -1.33301 1 -3 1 -5c0 -3.33301 -1.66699 -7.66602 -5 -12.999s-6.66602 -8 -9.99902 -8c-25.333 0 -45.333 8.66699 -60 26s-22 39.333 -22 66c0 52.667 25.333 120 76 202
c-83.333 -0.666992 -167.666 -2.66699 -252.999 -6c-153.333 -146 -339 -219 -557 -219c-50 0 -90 6.83301 -120 20.5s-45 33.5 -45 59.5c0 63.333 82.333 119.333 247 168c144 42.667 325.333 73.667 544 93c26 30 79.667 99.667 161 209c60 80 109.333 136.667 148 170
c55.333 46.667 112.333 70 171 70c39.333 0 59 -18 59 -54zM1245 580c0 10 -4 18.501 -12 25.501s-17 10.5 -27 10.5c-42 0 -83.333 -16 -124 -48c-30.667 -24 -67.667 -64 -111 -120l-121 -157c78.667 6 155 9.33301 229 10c64.667 88 102.667 140.667 114 158
c34.667 53.333 52 93.666 52 120.999zM681.997 164.001c-180 -9.33301 -324.666 -24.333 -433.999 -45c-132 -25.333 -198 -57 -198 -95c0 -16 16.333 -27.667 49 -35c21.333 -4.66699 43.666 -7 66.999 -7c200 0 372 60.667 516 182zM1429 854.001
c0.666992 -7.33301 -5.16797 -18.499 -17.501 -33.499s-22.5 -22.5 -30.5 -22.5c-8.66699 0 -16.5 2.83301 -23.5 8.5s-10.5 12.167 -10.5 19.5c0 8 5.16699 18 15.5 30s20.166 19 29.499 21c6.66699 1.33301 14.334 -0.333984 23.001 -5.00098s13.334 -10.667 14.001 -18z
M1312 854.002c0.666992 -7.33301 -5.16797 -18.499 -17.501 -33.499s-22.5 -22.5 -30.5 -22.5c-8.66699 0 -16.5 2.83301 -23.5 8.5s-10.5 12.167 -10.5 19.5c0 8 5.16699 18 15.5 30s20.166 19 29.499 21c6.66699 1.33301 14.334 -0.333984 23.001 -5.00098
s13.334 -10.667 14.001 -18z" />
    <glyph glyph-name="Aring" unicode="&#xc5;" horiz-adv-x="1192" 
d="M1345 683c0 -41.333 -24.3359 -99 -73.0029 -173c-15.333 -22.667 -67 -92.334 -155 -209.001c51.333 -3.33301 77 -13.333 77 -30c0 -11.333 -10 -31.333 -30 -60s-35.333 -43 -46 -43c-11.333 0 -26.666 0.666992 -45.999 2c-22.667 1.33301 -38 2 -46 2
c-52 -81.333 -78 -147 -78 -197c0 -48 20.667 -71.667 62 -71c0.666992 -1.33301 1 -3 1 -5c0 -3.33301 -1.66699 -7.66602 -5 -12.999s-6.66602 -8 -9.99902 -8c-25.333 0 -45.333 8.66699 -60 26s-22 39.333 -22 66c0 52.667 25.333 120 76 202
c-83.333 -0.666992 -167.666 -2.66699 -252.999 -6c-153.333 -146 -339 -219 -557 -219c-50 0 -90 6.83301 -120 20.5s-45 33.5 -45 59.5c0 63.333 82.333 119.333 247 168c144 42.667 325.333 73.667 544 93c26 30 79.667 99.667 161 209c60 80 109.333 136.667 148 170
c55.333 46.667 112.333 70 171 70c39.333 0 59 -18 59 -54zM1245 580c0 10 -4 18.501 -12 25.501s-17 10.5 -27 10.5c-42 0 -83.333 -16 -124 -48c-30.667 -24 -67.667 -64 -111 -120l-121 -157c78.667 6 155 9.33301 229 10c64.667 88 102.667 140.667 114 158
c34.667 53.333 52 93.666 52 120.999zM681.997 164.001c-180 -9.33301 -324.666 -24.333 -433.999 -45c-132 -25.333 -198 -57 -198 -95c0 -16 16.333 -27.667 49 -35c21.333 -4.66699 43.666 -7 66.999 -7c200 0 372 60.667 516 182zM1444 878.001
c0 -27.333 -11.168 -51.5 -33.501 -72.5s-47.166 -31.5 -74.499 -31.5c-20 0 -36.5 6 -49.5 18s-19.5 28 -19.5 48c0 28 10.667 52.833 32 74.5s46 32.5 74 32.5c20 0 36.833 -6.5 50.5 -19.5s20.5 -29.5 20.5 -49.5zM1406 870.001c0 26.667 -13.666 40.001 -40.999 40.001
c-16.667 0 -31.334 -6.33301 -44.001 -19s-19 -27.334 -19 -44.001c0 -26 13.667 -39 41 -39c16 0 30.5 6.16699 43.5 18.5s19.5 26.833 19.5 43.5z" />
    <glyph glyph-name="AE" unicode="&#xc6;" horiz-adv-x="1662" 
d="M2028 668c0 -24 -16.499 -56.166 -49.499 -96.499s-60.833 -60.5 -83.5 -60.5c-42.667 0 -95.667 11.667 -159 35c-14.667 5.33301 -70.334 28.333 -167.001 69l-288 -85c15.333 -64.667 51 -121.334 107 -170.001c46 6.66699 89 10 129 10
c26 0 46.833 -5.16699 62.5 -15.5s23.5 -22.833 23.5 -37.5c0 -31.333 -25.667 -47 -77 -47c-47.333 0 -93.666 16.667 -138.999 50c-86 -21.333 -160 -53.666 -222 -96.999c-69.333 -48.667 -104 -99.667 -104 -153c0 -37.333 18.667 -67.333 56 -90
c32.667 -19.333 69 -29 109 -29c89.333 0 164 15 224 45c52.667 26.667 79 54.334 79 83.001c4 6 9 9 15 9c10 0 17 -5.33301 21 -16c0 -42 -33.667 -81.333 -101 -118c-70.667 -38.667 -151.334 -58 -242.001 -58c-80 0 -146.333 16.333 -199 49
c-57.333 35.333 -86 82.666 -86 141.999c0 29.333 10.333 57.666 31 84.999c-75.333 -0.666992 -151 -2.66699 -227 -6c-153.333 -146 -339 -219 -557 -219c-50 0 -90 6.83301 -120 20.5s-45 33.5 -45 59.5c0 63.333 82.333 119.333 247 168
c144 42.667 325.333 73.667 544 93c26 30 79.667 99.667 161 209c60 80 109.333 136.667 148 170c55.333 46.667 112.333 70 171 70c24.667 0 42 -8 52 -24c30 14.667 62.667 22 98 22c44.667 0 132 -15 262 -45l89 25c56.667 16 100.667 24 132 24c30 0 55 -6.5 75 -19.5
s30 -30.167 30 -51.5zM1982 684.001c0 16.667 -19.668 24.999 -59.001 24.999c-29.333 0 -56.666 -4 -81.999 -12c-9.33301 -2.66699 -33 -10 -71 -22c68.667 -14 121.667 -21 159 -21c11.333 0 23 2.83301 35 8.5s18 12.834 18 21.501zM1511 638
c-56.667 20 -100.332 30.001 -130.999 30.001c-32.667 0 -58.834 -9.33301 -78.501 -28s-29.5 -41.334 -29.5 -68.001zM1564 319.001c0 13.333 -13.667 20 -41 20c-28.667 0 -59.667 -3 -93 -9c33.333 -20 67.333 -30 102 -30c21.333 0 32 6.33301 32 19zM1350 353.001
c-40 40 -69.667 84.999 -89 134.999l-140 -187c12 -1.33301 23 -2.66602 33 -3.99902c60 24 125.333 42.667 196 56zM1246 564c0 34.667 -11.999 52 -35.999 52c-40.667 0 -81 -16 -121 -48c-31.333 -24.667 -69 -64.667 -113 -120l-122 -157c78.667 6 155 9.33301 229 10
l84 114c28.667 40.667 49.334 73.667 62.001 99l-47 -15c-6.66699 -1.33301 -11.334 -2 -14.001 -2c-5.33301 0 -10.333 4.16699 -15 12.5s-7 14.5 -7 18.5c0 4.66699 4 8.33398 12 11.001c23.333 7.33301 52.666 15.666 87.999 24.999zM686.003 164
c-180 -9.33301 -324.666 -24.333 -433.999 -45c-132 -25.333 -198 -57 -198 -95c0 -16 16.333 -27.667 49 -35c21.333 -4.66699 43.666 -7 66.999 -7c200 0 372 60.667 516 182z" />
    <glyph glyph-name="Ccedilla" unicode="&#xc7;" horiz-adv-x="777" 
d="M904 626c0 -46 -18.3311 -106.999 -54.998 -182.999c-32.667 -66.667 -70.334 -128 -113.001 -184s-73 -84 -91 -84c-12.667 0 -27 8 -43 24s-24 30.667 -24 44c0 10 12.333 27 37 51l57 51c46 42.667 86.333 86.334 121 131.001c50.667 66.667 76 120.667 76 162
c0 46.667 -27.333 70 -82 70c-78 0 -170.667 -40.667 -278 -122c-100.667 -76 -188 -166.667 -262 -272c-77.333 -110 -116 -204 -116 -282c0 -100.667 47.333 -151 142 -151c61.333 0 130 21 206 63c60 33.333 118.667 76 176 128c4 1.33301 7.66699 2 11 2
c15.333 0 21 -9 17 -27c-62.667 -58.667 -133 -108 -211 -148c-88.667 -45.333 -170.334 -68 -245.001 -68c-17.333 0 -33.666 1 -48.999 3l-15 -29c15.333 1.33301 25 2 29 2c17.333 0 26 -6.33301 26 -19c0 -30 -22 -63.333 -66 -100c-23.333 -19.333 -45 -29 -65 -29
c-18.667 0 -28 7.33301 -28 22c0 20.667 10.667 31 32 31c6 0 11.667 -2.33301 17 -7s9.33301 -7 12 -7c12.667 0 24.834 6.5 36.501 19.5s17.5 25.5 17.5 37.5c0 8.66699 -5.33301 13 -16 13s-22.667 -4 -36 -12l-14 -10.5
c-4.66699 -3.66699 -8.66699 -4.83398 -12 -3.50098c-4.66699 2 -4.33398 6.33301 0.999023 13l53 84c-93.333 22 -140 82.667 -140 182c0 97.333 44.333 204.666 133 321.999c82.667 110 183.667 203.667 303 281c123.333 80 232.666 120 327.999 120
c86.667 0 130 -39.333 130 -118z" />
    <glyph glyph-name="Egrave" unicode="&#xc8;" horiz-adv-x="760" 
d="M1126 668c0 -24 -16.4961 -56.168 -49.4961 -96.501s-60.833 -60.5 -83.5 -60.5c-42 0 -95 11.667 -159 35c-14.667 5.33301 -70.334 28.333 -167.001 69l-288 -85c15.333 -64.667 51.333 -121.334 108 -170.001c45.333 6.66699 88 10 128 10
c26 0 46.833 -5.16699 62.5 -15.5s23.5 -22.833 23.5 -37.5c0 -31.333 -25.667 -47 -77 -47c-47.333 0 -93.333 16.667 -138 50c-86.667 -21.333 -160.667 -53.666 -222 -96.999c-70 -48.667 -105 -99.667 -105 -153c0 -40 17.167 -72.833 51.5 -98.5
s76.5 -38.5 126.5 -38.5c81.333 0 152 17 212 51c54.667 31.333 82 63 82 95c4 6 8.66699 9 14 9c8 0 14 -5.33301 18 -16c0 -42 -33.667 -81.333 -101 -118c-70.667 -38.667 -151.334 -58 -242.001 -58c-80 0 -146.333 16.333 -199 49
c-57.333 35.333 -86 82.666 -86 141.999c0 61.333 43.667 117.333 131 168c76.667 44.667 170.667 77.334 282 98.001c-51.333 51.333 -84.333 107 -99 167l-149 -39c-6.66699 -1.33301 -11.334 -2 -14.001 -2c-5.33301 0 -10.333 4.16699 -15 12.5s-7 14.5 -7 18.5
c0 4.66699 4 8.33398 12 11.001l168 43v10c0 44 19 81.833 57 113.5s83.667 47.5 137 47.5c45.333 0 132.666 -15 261.999 -45l89 25c56.667 16 100.667 24 132 24c30 0 55 -6.5 75 -19.5s30 -30.167 30 -51.5zM1080 683.999c0 16.667 -19.667 24.999 -59 24.999
c-28.667 0 -56 -4 -82 -12c-9.33301 -2.66699 -33 -10 -71 -22c68.667 -14 121.667 -21 159 -21c11.333 0 23 2.83301 35 8.5s18 12.834 18 21.501zM609.004 637.998c-56.667 20 -100.332 30.001 -130.999 30.001c-32.667 0 -58.834 -9.33301 -78.501 -28
s-29.5 -41.334 -29.5 -68.001zM662.006 318.999c0 13.333 -13.667 20 -41 20c-28 0 -59 -3 -93 -9c33.333 -20 67.333 -30 102 -30c21.333 0 32 6.33301 32 19zM808.006 774.999l-36 -0.000976562l-114 61c-12 6.66699 -18 16.334 -18 29.001c0 20 10 30 30 30
c12.667 0 25.667 -6.66699 39 -20z" />
    <glyph glyph-name="Eacute" unicode="&#xc9;" horiz-adv-x="760" 
d="M1126 668c0 -24 -16.4961 -56.168 -49.4961 -96.501s-60.833 -60.5 -83.5 -60.5c-42 0 -95 11.667 -159 35c-14.667 5.33301 -70.334 28.333 -167.001 69l-288 -85c15.333 -64.667 51.333 -121.334 108 -170.001c45.333 6.66699 88 10 128 10
c26 0 46.833 -5.16699 62.5 -15.5s23.5 -22.833 23.5 -37.5c0 -31.333 -25.667 -47 -77 -47c-47.333 0 -93.333 16.667 -138 50c-86.667 -21.333 -160.667 -53.666 -222 -96.999c-70 -48.667 -105 -99.667 -105 -153c0 -40 17.167 -72.833 51.5 -98.5
s76.5 -38.5 126.5 -38.5c81.333 0 152 17 212 51c54.667 31.333 82 63 82 95c4 6 8.66699 9 14 9c8 0 14 -5.33301 18 -16c0 -42 -33.667 -81.333 -101 -118c-70.667 -38.667 -151.334 -58 -242.001 -58c-80 0 -146.333 16.333 -199 49
c-57.333 35.333 -86 82.666 -86 141.999c0 61.333 43.667 117.333 131 168c76.667 44.667 170.667 77.334 282 98.001c-51.333 51.333 -84.333 107 -99 167l-149 -39c-6.66699 -1.33301 -11.334 -2 -14.001 -2c-5.33301 0 -10.333 4.16699 -15 12.5s-7 14.5 -7 18.5
c0 4.66699 4 8.33398 12 11.001l168 43v10c0 44 19 81.833 57 113.5s83.667 47.5 137 47.5c45.333 0 132.666 -15 261.999 -45l89 25c56.667 16 100.667 24 132 24c30 0 55 -6.5 75 -19.5s30 -30.167 30 -51.5zM1080 683.999c0 16.667 -19.667 24.999 -59 24.999
c-28.667 0 -56 -4 -82 -12c-9.33301 -2.66699 -33 -10 -71 -22c68.667 -14 121.667 -21 159 -21c11.333 0 23 2.83301 35 8.5s18 12.834 18 21.501zM609.004 637.998c-56.667 20 -100.332 30.001 -130.999 30.001c-32.667 0 -58.834 -9.33301 -78.501 -28
s-29.5 -41.334 -29.5 -68.001zM662.006 318.999c0 13.333 -13.667 20 -41 20c-28 0 -59 -3 -93 -9c33.333 -20 67.333 -30 102 -30c21.333 0 32 6.33301 32 19zM917.006 854.999c0 -12.667 -6 -22.333 -18 -29l-114 -61h-36l99 100c13.333 13.333 26.333 20 39 20
c20 0 30 -10 30 -30z" />
    <glyph glyph-name="Ecircumflex" unicode="&#xca;" horiz-adv-x="760" 
d="M1126 668c0 -24 -16.4961 -56.168 -49.4961 -96.501s-60.833 -60.5 -83.5 -60.5c-42 0 -95 11.667 -159 35c-14.667 5.33301 -70.334 28.333 -167.001 69l-288 -85c15.333 -64.667 51.333 -121.334 108 -170.001c45.333 6.66699 88 10 128 10
c26 0 46.833 -5.16699 62.5 -15.5s23.5 -22.833 23.5 -37.5c0 -31.333 -25.667 -47 -77 -47c-47.333 0 -93.333 16.667 -138 50c-86.667 -21.333 -160.667 -53.666 -222 -96.999c-70 -48.667 -105 -99.667 -105 -153c0 -40 17.167 -72.833 51.5 -98.5
s76.5 -38.5 126.5 -38.5c81.333 0 152 17 212 51c54.667 31.333 82 63 82 95c4 6 8.66699 9 14 9c8 0 14 -5.33301 18 -16c0 -42 -33.667 -81.333 -101 -118c-70.667 -38.667 -151.334 -58 -242.001 -58c-80 0 -146.333 16.333 -199 49
c-57.333 35.333 -86 82.666 -86 141.999c0 61.333 43.667 117.333 131 168c76.667 44.667 170.667 77.334 282 98.001c-51.333 51.333 -84.333 107 -99 167l-149 -39c-6.66699 -1.33301 -11.334 -2 -14.001 -2c-5.33301 0 -10.333 4.16699 -15 12.5s-7 14.5 -7 18.5
c0 4.66699 4 8.33398 12 11.001l168 43v10c0 44 19 81.833 57 113.5s83.667 47.5 137 47.5c45.333 0 132.666 -15 261.999 -45l89 25c56.667 16 100.667 24 132 24c30 0 55 -6.5 75 -19.5s30 -30.167 30 -51.5zM1080 683.999c0 16.667 -19.667 24.999 -59 24.999
c-28.667 0 -56 -4 -82 -12c-9.33301 -2.66699 -33 -10 -71 -22c68.667 -14 121.667 -21 159 -21c11.333 0 23 2.83301 35 8.5s18 12.834 18 21.501zM609.004 637.998c-56.667 20 -100.332 30.001 -130.999 30.001c-32.667 0 -58.834 -9.33301 -78.501 -28
s-29.5 -41.334 -29.5 -68.001zM662.006 318.999c0 13.333 -13.667 20 -41 20c-28 0 -59 -3 -93 -9c33.333 -20 67.333 -30 102 -30c21.333 0 32 6.33301 32 19zM896.006 774.999l-23 -1.00098c-7.33301 0 -12.833 0.666992 -16.5 2s-8.5 6.33301 -14.5 15l-32 45l-51 -45
c-3.33301 -3.33301 -9 -7.66602 -17 -12.999c-7.33301 -2.66699 -17.333 -4 -30 -4h-24l75 81c17.333 18.667 34.666 28 51.999 28c20.667 0 35.334 -9.33301 44.001 -28z" />
    <glyph glyph-name="Edieresis" unicode="&#xcb;" horiz-adv-x="760" 
d="M1126 668c0 -24 -16.4961 -56.168 -49.4961 -96.501s-60.833 -60.5 -83.5 -60.5c-42 0 -95 11.667 -159 35c-14.667 5.33301 -70.334 28.333 -167.001 69l-288 -85c15.333 -64.667 51.333 -121.334 108 -170.001c45.333 6.66699 88 10 128 10
c26 0 46.833 -5.16699 62.5 -15.5s23.5 -22.833 23.5 -37.5c0 -31.333 -25.667 -47 -77 -47c-47.333 0 -93.333 16.667 -138 50c-86.667 -21.333 -160.667 -53.666 -222 -96.999c-70 -48.667 -105 -99.667 -105 -153c0 -40 17.167 -72.833 51.5 -98.5
s76.5 -38.5 126.5 -38.5c81.333 0 152 17 212 51c54.667 31.333 82 63 82 95c4 6 8.66699 9 14 9c8 0 14 -5.33301 18 -16c0 -42 -33.667 -81.333 -101 -118c-70.667 -38.667 -151.334 -58 -242.001 -58c-80 0 -146.333 16.333 -199 49
c-57.333 35.333 -86 82.666 -86 141.999c0 61.333 43.667 117.333 131 168c76.667 44.667 170.667 77.334 282 98.001c-51.333 51.333 -84.333 107 -99 167l-149 -39c-6.66699 -1.33301 -11.334 -2 -14.001 -2c-5.33301 0 -10.333 4.16699 -15 12.5s-7 14.5 -7 18.5
c0 4.66699 4 8.33398 12 11.001l168 43v10c0 44 19 81.833 57 113.5s83.667 47.5 137 47.5c45.333 0 132.666 -15 261.999 -45l89 25c56.667 16 100.667 24 132 24c30 0 55 -6.5 75 -19.5s30 -30.167 30 -51.5zM1080 683.999c0 16.667 -19.667 24.999 -59 24.999
c-28.667 0 -56 -4 -82 -12c-9.33301 -2.66699 -33 -10 -71 -22c68.667 -14 121.667 -21 159 -21c11.333 0 23 2.83301 35 8.5s18 12.834 18 21.501zM609.004 637.998c-56.667 20 -100.332 30.001 -130.999 30.001c-32.667 0 -58.834 -9.33301 -78.501 -28
s-29.5 -41.334 -29.5 -68.001zM662.006 318.999c0 13.333 -13.667 20 -41 20c-28 0 -59 -3 -93 -9c33.333 -20 67.333 -30 102 -30c21.333 0 32 6.33301 32 19zM902.006 840.999c0.666992 -7.33301 -5.16797 -18.499 -17.501 -33.499s-22.5 -22.5 -30.5 -22.5
c-8.66699 0 -16.5 2.83301 -23.5 8.5s-10.5 12.167 -10.5 19.5c0 8 5.16699 18 15.5 30s20.166 19 29.499 21c6.66699 1.33301 14.334 -0.333984 23.001 -5.00098s13.334 -10.667 14.001 -18zM785.004 841c0.666992 -7.33301 -5.16797 -18.499 -17.501 -33.499
s-22.5 -22.5 -30.5 -22.5c-8.66699 0 -16.5 2.83301 -23.5 8.5s-10.5 12.167 -10.5 19.5c0 8 5.16699 18 15.5 30s20.166 19 29.499 21c6.66699 1.33301 14.334 -0.333984 23.001 -5.00098s13.334 -10.667 14.001 -18z" />
    <glyph glyph-name="Igrave" unicode="&#xcc;" horiz-adv-x="824" 
d="M1003 638c0 -72.667 -27 -154.668 -81 -246.001c-55.333 -94 -127.333 -177.667 -216 -251l21 -20c10 -9.33301 15 -16.666 15 -21.999c0 -11.333 -5 -17 -15 -17c-7.33301 0 -15.166 3.83301 -23.499 11.5l-25.5 24.5c-148.667 -114 -305.334 -171 -470.001 -171
c-60 0 -106.833 9.5 -140.5 28.5s-50.5 44.167 -50.5 75.5c0 58 47.667 104.667 143 140c82 30 172.667 45 272 45c32.667 0 62 -3 88 -9s39 -12.667 39 -20c0 -16 -10 -37.333 -30 -64s-35.333 -40 -46 -40c-4.66699 0 -19 0.666992 -43 2s-45 2 -63 2
c-80 0 -152.667 -7.33301 -218 -22c-69.333 -16 -104 -34.667 -104 -56c0 -28 41.667 -42 125 -42c147.333 0 301 64.667 461 194c-12 30.667 -18 65.667 -18 105c0 110.667 30.833 213.167 92.5 307.5s128.5 141.5 200.5 141.5c58 0 87 -32.333 87 -97zM970 639.999
c0 38 -16.668 57 -50.001 57c-49.333 0 -102.666 -47 -159.999 -141c-59.333 -97.333 -89 -191.333 -89 -282c0 -22.667 1.66699 -44 5 -64c84 73.333 154 151.333 210 234s84 148 84 196zM977.999 774.999l-36 -0.000976562l-114 61c-12 6.66699 -18 16.334 -18 29.001
c0 20 10 30 30 30c12.667 0 25.667 -6.66699 39 -20z" />
    <glyph glyph-name="Iacute" unicode="&#xcd;" horiz-adv-x="824" 
d="M1003 638c0 -72.667 -27 -154.668 -81 -246.001c-55.333 -94 -127.333 -177.667 -216 -251l21 -20c10 -9.33301 15 -16.666 15 -21.999c0 -11.333 -5 -17 -15 -17c-7.33301 0 -15.166 3.83301 -23.499 11.5l-25.5 24.5c-148.667 -114 -305.334 -171 -470.001 -171
c-60 0 -106.833 9.5 -140.5 28.5s-50.5 44.167 -50.5 75.5c0 58 47.667 104.667 143 140c82 30 172.667 45 272 45c32.667 0 62 -3 88 -9s39 -12.667 39 -20c0 -16 -10 -37.333 -30 -64s-35.333 -40 -46 -40c-4.66699 0 -19 0.666992 -43 2s-45 2 -63 2
c-80 0 -152.667 -7.33301 -218 -22c-69.333 -16 -104 -34.667 -104 -56c0 -28 41.667 -42 125 -42c147.333 0 301 64.667 461 194c-12 30.667 -18 65.667 -18 105c0 110.667 30.833 213.167 92.5 307.5s128.5 141.5 200.5 141.5c58 0 87 -32.333 87 -97zM970 639.999
c0 38 -16.668 57 -50.001 57c-49.333 0 -102.666 -47 -159.999 -141c-59.333 -97.333 -89 -191.333 -89 -282c0 -22.667 1.66699 -44 5 -64c84 73.333 154 151.333 210 234s84 148 84 196zM1091 864.999c0 -12.667 -6 -22.333 -18 -29l-114 -61h-36l99 100
c13.333 13.333 26.333 20 39 20c20 0 30 -10 30 -30z" />
    <glyph glyph-name="Icircumflex" unicode="&#xce;" horiz-adv-x="824" 
d="M1003 638c0 -72.667 -27 -154.668 -81 -246.001c-55.333 -94 -127.333 -177.667 -216 -251l21 -20c10 -9.33301 15 -16.666 15 -21.999c0 -11.333 -5 -17 -15 -17c-7.33301 0 -15.166 3.83301 -23.499 11.5l-25.5 24.5c-148.667 -114 -305.334 -171 -470.001 -171
c-60 0 -106.833 9.5 -140.5 28.5s-50.5 44.167 -50.5 75.5c0 58 47.667 104.667 143 140c82 30 172.667 45 272 45c32.667 0 62 -3 88 -9s39 -12.667 39 -20c0 -16 -10 -37.333 -30 -64s-35.333 -40 -46 -40c-4.66699 0 -19 0.666992 -43 2s-45 2 -63 2
c-80 0 -152.667 -7.33301 -218 -22c-69.333 -16 -104 -34.667 -104 -56c0 -28 41.667 -42 125 -42c147.333 0 301 64.667 461 194c-12 30.667 -18 65.667 -18 105c0 110.667 30.833 213.167 92.5 307.5s128.5 141.5 200.5 141.5c58 0 87 -32.333 87 -97zM970 639.999
c0 38 -16.668 57 -50.001 57c-49.333 0 -102.666 -47 -159.999 -141c-59.333 -97.333 -89 -191.333 -89 -282c0 -22.667 1.66699 -44 5 -64c84 73.333 154 151.333 210 234s84 148 84 196zM1018 771.999l-23 -1.00098c-7.33301 0 -12.833 0.666992 -16.5 2
s-8.5 6.33301 -14.5 15l-32 45l-51 -45c-3.33301 -3.33301 -9 -7.66602 -17 -12.999c-7.33301 -2.66699 -17.333 -4 -30 -4h-24l75 81c17.333 18.667 34.666 28 51.999 28c20.667 0 35.334 -9.33301 44.001 -28z" />
    <glyph glyph-name="Idieresis" unicode="&#xcf;" horiz-adv-x="824" 
d="M1003 638c0 -72.667 -27 -154.668 -81 -246.001c-55.333 -94 -127.333 -177.667 -216 -251l21 -20c10 -9.33301 15 -16.666 15 -21.999c0 -11.333 -5 -17 -15 -17c-7.33301 0 -15.166 3.83301 -23.499 11.5l-25.5 24.5c-148.667 -114 -305.334 -171 -470.001 -171
c-60 0 -106.833 9.5 -140.5 28.5s-50.5 44.167 -50.5 75.5c0 58 47.667 104.667 143 140c82 30 172.667 45 272 45c32.667 0 62 -3 88 -9s39 -12.667 39 -20c0 -16 -10 -37.333 -30 -64s-35.333 -40 -46 -40c-4.66699 0 -19 0.666992 -43 2s-45 2 -63 2
c-80 0 -152.667 -7.33301 -218 -22c-69.333 -16 -104 -34.667 -104 -56c0 -28 41.667 -42 125 -42c147.333 0 301 64.667 461 194c-12 30.667 -18 65.667 -18 105c0 110.667 30.833 213.167 92.5 307.5s128.5 141.5 200.5 141.5c58 0 87 -32.333 87 -97zM970 639.999
c0 38 -16.668 57 -50.001 57c-49.333 0 -102.666 -47 -159.999 -141c-59.333 -97.333 -89 -191.333 -89 -282c0 -22.667 1.66699 -44 5 -64c84 73.333 154 151.333 210 234s84 148 84 196zM1045 840.999c0.666992 -7.33301 -5.16797 -18.499 -17.501 -33.499
s-22.5 -22.5 -30.5 -22.5c-8.66699 0 -16.5 2.83301 -23.5 8.5s-10.5 12.167 -10.5 19.5c0 8 5.16699 18 15.5 30s20.166 19 29.499 21c6.66699 1.33301 14.334 -0.333984 23.001 -5.00098s13.334 -10.667 14.001 -18zM927.997 841
c0.666992 -7.33301 -5.16797 -18.499 -17.501 -33.499s-22.5 -22.5 -30.5 -22.5c-8.66699 0 -16.5 2.83301 -23.5 8.5s-10.5 12.167 -10.5 19.5c0 8 5.16699 18 15.5 30s20.166 19 29.499 21c6.66699 1.33301 14.334 -0.333984 23.001 -5.00098s13.334 -10.667 14.001 -18z
" />
    <glyph glyph-name="Eth" unicode="&#xd0;" horiz-adv-x="1483" 
d="M1687 559c0 -98.667 -63.6641 -195.334 -190.997 -290.001c-108 -80 -244 -147.667 -408 -203c-150.667 -51.333 -275.334 -77 -374.001 -77c-94 0 -141 21.333 -141 64c4.66699 5.33301 11 8 19 8s13.333 -2 16 -6c0 -17.333 24.667 -26 74 -26
c86.667 0 205.334 25 356.001 75c164.667 54 302 117.667 412 191c131.333 88 197 174.667 197 260c0 62 -67.333 93 -202 93c-124.667 0 -284.334 -22 -479.001 -66l-210 -271h157c10 0 15 -5 15 -15v-27c0 -10 -5 -15 -15 -15h-202l-196 -245
c-10.667 -13.333 -25 -19.666 -43 -18.999c-25.333 1.33301 -38 12 -38 32c0 6 1.66699 11.333 5 16c10 13.333 71 85.333 183 216h-145c-10 0 -15 5 -15 15v27c0 10 5 15 15 15h194l206 241c3.33301 4 6.66602 7.66699 9.99902 11
c-208.667 -51.333 -399.334 -111.833 -572.001 -181.5s-259 -121.5 -259 -155.5c0 -10.667 -4.33301 -16 -13 -16c-11.333 0 -17 6.66699 -17 20c0 90.667 95 178 285 262c152 67.333 344.667 125.333 578 174c201.333 42 353 63 455 63c102.667 0 183.667 -13 243 -39
c66.667 -29.333 100 -73 100 -131z" />
    <glyph glyph-name="Ntilde" unicode="&#xd1;" horiz-adv-x="1218" 
d="M1816 694c0 -30 -9.99902 -45.001 -29.999 -45.001c-7.33301 0 -11 3.66699 -11 11c0 2.66699 0.833008 6.66699 2.5 12s2.5 9.66602 2.5 12.999c0 14 -13.667 21 -41 21c-50 0 -114.333 -37.333 -193 -112c-20 -18.667 -80.667 -85.667 -182 -201
c-112 -128 -195.667 -220.667 -251 -278c-90 -93.333 -146.667 -140 -170 -140c-21.333 0 -40.833 9.5 -58.5 28.5s-26.5 39.167 -26.5 60.5c0 27.333 12 82.333 36 165l68 225c-73.333 -128.667 -180 -237.667 -320 -327c-144 -92.667 -285.333 -139 -424 -139
c-130 0 -195 32 -195 96c0 48.667 46.333 89.334 139 122.001c82.667 29.333 172 44 268 44c32.667 0 62 -3 88 -9s39 -12.667 39 -20c0 -13.333 -8.33301 -30.833 -25 -52.5s-30.334 -32.5 -41.001 -32.5c-4.66699 0 -19 0.666992 -43 2s-45 2 -63 2
c-77.333 0 -149.166 -8.16699 -215.499 -24.5s-99.5 -34.166 -99.5 -53.499c0 -28 50 -42 150 -42c108 0 225.333 36.667 352 110c117.333 68.667 216.666 152.667 297.999 252c84 102.667 126 194.667 126 276c-8 16.667 -23.333 25 -46 25
c-16.667 0 -29.667 -4.66699 -39 -14c0 15.333 7.66699 29.666 23 42.999c20 17.333 47 26 81 26c62 0 93 -33.333 93 -100c0 -60 -23.667 -162.167 -71 -306.5s-71 -230.166 -71 -257.499c0 -15.333 6.66699 -23 20 -23c16 0 96.667 82.333 242 247
c167.333 189.333 261 293.333 281 312c48.667 45.333 83 75 103 89c44 30 87.667 45 131 45c22.667 0 40.5 -4.83301 53.5 -14.5s19.5 -21.5 19.5 -35.5zM1470 819.999c0 -3.33301 -2.33398 -8.33301 -7.00098 -15c-15.333 -21.333 -25 -34 -29 -38
c-12 -12 -26.333 -18 -43 -18c-9.33301 0 -24.166 5.33301 -44.499 16s-34.166 16 -41.499 16c-9.33301 0 -18.5 -3.66699 -27.5 -11s-14.5 -11 -16.5 -11c-4.66699 0 -7 1.33301 -7 4s4 9.66699 12 21c24 33.333 49.667 50 77 50c12 0 26.167 -5.5 42.5 -16.5
s29.166 -16.5 38.499 -16.5c10 0 18.5 4 25.5 12s11.833 12 14.5 12c4 0 6 -1.66699 6 -5z" />
    <glyph glyph-name="Ograve" unicode="&#xd2;" horiz-adv-x="916" 
d="M1071 575c0 -93.333 -46.9971 -192.331 -140.997 -296.998c-86 -96.667 -193 -178.834 -321 -246.501s-242.667 -101.5 -344 -101.5c-79.333 0 -141.333 18 -186 54c-46.667 37.333 -70 90.333 -70 159c0 85.333 37 175 111 269
c68.667 87.333 154.5 161.166 257.5 221.499s196.5 90.5 280.5 90.5h5c18.667 0 28 -6 28 -18c0 -11.333 -5.33301 -17 -16 -17h-21c-68.667 0 -149.834 -27.333 -243.501 -82s-172.834 -119.667 -237.501 -195c-70.667 -83.333 -106 -160 -106 -230
c0 -99.333 70.667 -149 212 -149c88 0 193 32 315 96c117.333 62 217.666 135.333 300.999 220c89.333 91.333 134 172 134 242c0 34.667 -9.66699 61.834 -29 81.501s-46 29.5 -80 29.5c-64 0 -156.667 -43.333 -278 -130c-46 -32.667 -118 -92 -216 -178
c-92 -80.667 -148.667 -132.667 -170 -156c-12 -13.333 -30 -20 -54 -20c-18 0 -34.667 3.66699 -50 11c-19.333 8.66699 -29 20.667 -29 36c0 17.333 58.333 68.666 175 153.999c86.667 64 169 121 247 171c150.667 97.333 268 146 352 146c54 0 96.5 -13.833 127.5 -41.5
s46.5 -67.5 46.5 -119.5zM968.003 783.002l-36 -0.000976562l-114 61c-12 6.66699 -18 16.334 -18 29.001c0 20 10 30 30 30c12.667 0 25.667 -6.66699 39 -20z" />
    <glyph glyph-name="Oacute" unicode="&#xd3;" horiz-adv-x="916" 
d="M1071 575c0 -93.333 -46.9971 -192.331 -140.997 -296.998c-86 -96.667 -193 -178.834 -321 -246.501s-242.667 -101.5 -344 -101.5c-79.333 0 -141.333 18 -186 54c-46.667 37.333 -70 90.333 -70 159c0 85.333 37 175 111 269
c68.667 87.333 154.5 161.166 257.5 221.499s196.5 90.5 280.5 90.5h5c18.667 0 28 -6 28 -18c0 -11.333 -5.33301 -17 -16 -17h-21c-68.667 0 -149.834 -27.333 -243.501 -82s-172.834 -119.667 -237.501 -195c-70.667 -83.333 -106 -160 -106 -230
c0 -99.333 70.667 -149 212 -149c88 0 193 32 315 96c117.333 62 217.666 135.333 300.999 220c89.333 91.333 134 172 134 242c0 34.667 -9.66699 61.834 -29 81.501s-46 29.5 -80 29.5c-64 0 -156.667 -43.333 -278 -130c-46 -32.667 -118 -92 -216 -178
c-92 -80.667 -148.667 -132.667 -170 -156c-12 -13.333 -30 -20 -54 -20c-18 0 -34.667 3.66699 -50 11c-19.333 8.66699 -29 20.667 -29 36c0 17.333 58.333 68.666 175 153.999c86.667 64 169 121 247 171c150.667 97.333 268 146 352 146c54 0 96.5 -13.833 127.5 -41.5
s46.5 -67.5 46.5 -119.5zM1085 870.002c0 -12.667 -6 -22.333 -18 -29l-114 -61h-36l99 100c13.333 13.333 26.333 20 39 20c20 0 30 -10 30 -30z" />
    <glyph glyph-name="Ocircumflex" unicode="&#xd4;" horiz-adv-x="916" 
d="M1071 575c0 -93.333 -46.9971 -192.331 -140.997 -296.998c-86 -96.667 -193 -178.834 -321 -246.501s-242.667 -101.5 -344 -101.5c-79.333 0 -141.333 18 -186 54c-46.667 37.333 -70 90.333 -70 159c0 85.333 37 175 111 269
c68.667 87.333 154.5 161.166 257.5 221.499s196.5 90.5 280.5 90.5h5c18.667 0 28 -6 28 -18c0 -11.333 -5.33301 -17 -16 -17h-21c-68.667 0 -149.834 -27.333 -243.501 -82s-172.834 -119.667 -237.501 -195c-70.667 -83.333 -106 -160 -106 -230
c0 -99.333 70.667 -149 212 -149c88 0 193 32 315 96c117.333 62 217.666 135.333 300.999 220c89.333 91.333 134 172 134 242c0 34.667 -9.66699 61.834 -29 81.501s-46 29.5 -80 29.5c-64 0 -156.667 -43.333 -278 -130c-46 -32.667 -118 -92 -216 -178
c-92 -80.667 -148.667 -132.667 -170 -156c-12 -13.333 -30 -20 -54 -20c-18 0 -34.667 3.66699 -50 11c-19.333 8.66699 -29 20.667 -29 36c0 17.333 58.333 68.666 175 153.999c86.667 64 169 121 247 171c150.667 97.333 268 146 352 146c54 0 96.5 -13.833 127.5 -41.5
s46.5 -67.5 46.5 -119.5zM988.003 780.002l-23 -1.00098c-7.33301 0 -12.833 0.666992 -16.5 2s-8.5 6.33301 -14.5 15l-32 45l-51 -45c-3.33301 -3.33301 -9 -7.66602 -17 -12.999c-7.33301 -2.66699 -17.333 -4 -30 -4h-24l75 81c17.333 18.667 34.666 28 51.999 28
c20.667 0 35.334 -9.33301 44.001 -28z" />
    <glyph glyph-name="Otilde" unicode="&#xd5;" horiz-adv-x="916" 
d="M1071 575c0 -93.333 -46.9971 -192.331 -140.997 -296.998c-86 -96.667 -193 -178.834 -321 -246.501s-242.667 -101.5 -344 -101.5c-79.333 0 -141.333 18 -186 54c-46.667 37.333 -70 90.333 -70 159c0 85.333 37 175 111 269
c68.667 87.333 154.5 161.166 257.5 221.499s196.5 90.5 280.5 90.5h5c18.667 0 28 -6 28 -18c0 -11.333 -5.33301 -17 -16 -17h-21c-68.667 0 -149.834 -27.333 -243.501 -82s-172.834 -119.667 -237.501 -195c-70.667 -83.333 -106 -160 -106 -230
c0 -99.333 70.667 -149 212 -149c88 0 193 32 315 96c117.333 62 217.666 135.333 300.999 220c89.333 91.333 134 172 134 242c0 34.667 -9.66699 61.834 -29 81.501s-46 29.5 -80 29.5c-64 0 -156.667 -43.333 -278 -130c-46 -32.667 -118 -92 -216 -178
c-92 -80.667 -148.667 -132.667 -170 -156c-12 -13.333 -30 -20 -54 -20c-18 0 -34.667 3.66699 -50 11c-19.333 8.66699 -29 20.667 -29 36c0 17.333 58.333 68.666 175 153.999c86.667 64 169 121 247 171c150.667 97.333 268 146 352 146c54 0 96.5 -13.833 127.5 -41.5
s46.5 -67.5 46.5 -119.5zM1032 851.002c0 -3.33301 -2.33301 -8.33301 -7 -15c-15.333 -21.333 -25 -34 -29 -38c-12 -12 -26.333 -18 -43 -18c-9.33301 0 -24.166 5.5 -44.499 16.5s-34.166 16.5 -41.499 16.5c-10 0 -19.333 -3.66699 -28 -11s-14.334 -11 -17.001 -11
c-4 0 -6 1 -6 3c0 3.33301 4 10.333 12 21c23.333 33.333 49 50 77 50c11.333 0 25.333 -5.5 42 -16.5s29.667 -16.5 39 -16.5s17.666 4 24.999 12s12.333 12 15 12c4 0 6 -1.66699 6 -5z" />
    <glyph glyph-name="Odieresis" unicode="&#xd6;" horiz-adv-x="916" 
d="M1071 575c0 -93.333 -46.9971 -192.331 -140.997 -296.998c-86 -96.667 -193 -178.834 -321 -246.501s-242.667 -101.5 -344 -101.5c-79.333 0 -141.333 18 -186 54c-46.667 37.333 -70 90.333 -70 159c0 85.333 37 175 111 269
c68.667 87.333 154.5 161.166 257.5 221.499s196.5 90.5 280.5 90.5h5c18.667 0 28 -6 28 -18c0 -11.333 -5.33301 -17 -16 -17h-21c-68.667 0 -149.834 -27.333 -243.501 -82s-172.834 -119.667 -237.501 -195c-70.667 -83.333 -106 -160 -106 -230
c0 -99.333 70.667 -149 212 -149c88 0 193 32 315 96c117.333 62 217.666 135.333 300.999 220c89.333 91.333 134 172 134 242c0 34.667 -9.66699 61.834 -29 81.501s-46 29.5 -80 29.5c-64 0 -156.667 -43.333 -278 -130c-46 -32.667 -118 -92 -216 -178
c-92 -80.667 -148.667 -132.667 -170 -156c-12 -13.333 -30 -20 -54 -20c-18 0 -34.667 3.66699 -50 11c-19.333 8.66699 -29 20.667 -29 36c0 17.333 58.333 68.666 175 153.999c86.667 64 169 121 247 171c150.667 97.333 268 146 352 146c54 0 96.5 -13.833 127.5 -41.5
s46.5 -67.5 46.5 -119.5zM1034 836.002c0.666992 -7.33301 -5.16797 -18.499 -17.501 -33.499s-22.5 -22.5 -30.5 -22.5c-8.66699 0 -16.5 2.83301 -23.5 8.5s-10.5 12.167 -10.5 19.5c0 8 5.16699 18 15.5 30s20.166 19 29.499 21
c6.66699 1.33301 14.334 -0.333984 23.001 -5.00098s13.334 -10.667 14.001 -18zM917.001 836.003c0.666992 -7.33301 -5.16797 -18.499 -17.501 -33.499s-22.5 -22.5 -30.5 -22.5c-8.66699 0 -16.5 2.83301 -23.5 8.5s-10.5 12.167 -10.5 19.5c0 8 5.16699 18 15.5 30
s20.166 19 29.499 21c6.66699 1.33301 14.334 -0.333984 23.001 -5.00098s13.334 -10.667 14.001 -18z" />
    <glyph glyph-name="Oslash" unicode="&#xd8;" horiz-adv-x="916" 
d="M1160 734c6 -8 4.66602 -14.666 -4.00098 -19.999l-95 -64c6.66699 -19.333 10 -42.333 10 -69c0 -101.333 -47 -205 -141 -311c-84.667 -96 -191 -176.667 -319 -242s-243.333 -98 -346 -98c-90 0 -156.667 20 -200 60l-75 -49c-8.66699 -5.33301 -15.667 -4 -21 4l-4 7
c-6 8 -4.66699 15 4 21l71 46c-20.667 30.667 -31 68.334 -31 113.001c0 70.667 24.667 145 74 223c45.333 72.667 106.333 139.667 183 201c140 112 270.667 168 392 168h5c18.667 0 28 -6 28 -18c0 -11.333 -5.33301 -17 -16 -17h-21c-50 0 -108.667 -15.333 -176 -46
s-131.333 -71 -192 -121c-63.333 -52 -115.666 -110.833 -156.999 -176.5s-62 -123.834 -62 -174.501c0 -42 17.333 -75 52 -99l892 591c-18 26 -46.333 39 -85 39c-68 0 -162.667 -43.333 -284 -130c-46 -32.667 -118 -92 -216 -178
c-92 -80.667 -148.667 -132.667 -170 -156c-12 -13.333 -30 -20 -54 -20c-18 0 -34.667 3.66699 -50 11c-19.333 8.66699 -29 20.667 -29 36c0 17.333 58.333 68.666 175 153.999c86.667 64 169 121 247 171c150.667 97.333 268 146 352 146c70 0 118.333 -17.333 145 -52
l93 61c8.66699 5.33301 15.667 4 21 -4zM1029 597.001c0 10.667 -1 20.667 -3 30l-869 -575c33.333 -12.667 74 -19 122 -19c88 0 193 32.667 315 98c116.667 62 217 136.333 301 223c89.333 92 134 173 134 243z" />
    <glyph glyph-name="Ugrave" unicode="&#xd9;" horiz-adv-x="744" 
d="M1035 735c0 -69.333 -39.666 -156.001 -118.999 -260.001c-74 -96.667 -166.333 -188.334 -277 -275.001c-28 -51.333 -46.667 -86.666 -56 -105.999c-12 -28.667 -31.333 -70.667 -58 -126c-5.33301 -10 -12 -15 -20 -15c-19.333 0 -39.666 6.66699 -60.999 20
c-23.333 14.667 -35 30.667 -35 48c0 6 4.66699 18.333 14 37c-90 -46.667 -166 -70 -228 -70c-44.667 0 -79.5 11.333 -104.5 34s-37.5 53.334 -37.5 92.001c0 117.333 103.667 289 311 515c48.667 54 79.667 83.333 93 88c9.33301 4 22.666 6 39.999 6
c21.333 0 43 -2.66699 65 -8c27.333 -6.66699 41 -14.334 41 -23.001c0 -2.66699 -26.667 -30 -80 -82c-72 -70 -133 -132 -183 -186c-143.333 -155.333 -215 -260 -215 -314c0 -58.667 30.333 -88 91 -88c62 0 138.667 26 230 78c58.667 102.667 146 232.334 262 389.001
c135.333 183.333 233.666 275 294.999 275c21.333 0 32 -9.66699 32 -29zM1004 713.999c0 11.333 -6.33301 17 -19 17c-34 0 -137 -154.333 -309 -463c92.667 80 169.667 161.333 231 244c64.667 86 97 153.333 97 202zM791.001 764.999l-36 -0.000976562l-114 61
c-12 6.66699 -18 16.334 -18 29.001c0 20 10 30 30 30c12.667 0 25.667 -6.66699 39 -20z" />
    <glyph glyph-name="Uacute" unicode="&#xda;" horiz-adv-x="744" 
d="M1035 735c0 -69.333 -39.666 -156.001 -118.999 -260.001c-74 -96.667 -166.333 -188.334 -277 -275.001c-28 -51.333 -46.667 -86.666 -56 -105.999c-12 -28.667 -31.333 -70.667 -58 -126c-5.33301 -10 -12 -15 -20 -15c-19.333 0 -39.666 6.66699 -60.999 20
c-23.333 14.667 -35 30.667 -35 48c0 6 4.66699 18.333 14 37c-90 -46.667 -166 -70 -228 -70c-44.667 0 -79.5 11.333 -104.5 34s-37.5 53.334 -37.5 92.001c0 117.333 103.667 289 311 515c48.667 54 79.667 83.333 93 88c9.33301 4 22.666 6 39.999 6
c21.333 0 43 -2.66699 65 -8c27.333 -6.66699 41 -14.334 41 -23.001c0 -2.66699 -26.667 -30 -80 -82c-72 -70 -133 -132 -183 -186c-143.333 -155.333 -215 -260 -215 -314c0 -58.667 30.333 -88 91 -88c62 0 138.667 26 230 78c58.667 102.667 146 232.334 262 389.001
c135.333 183.333 233.666 275 294.999 275c21.333 0 32 -9.66699 32 -29zM1004 713.999c0 11.333 -6.33301 17 -19 17c-34 0 -137 -154.333 -309 -463c92.667 80 169.667 161.333 231 244c64.667 86 97 153.333 97 202zM901.001 852.999c0 -12.667 -6 -22.333 -18 -29
l-114 -61h-36l99 100c13.333 13.333 26.333 20 39 20c20 0 30 -10 30 -30z" />
    <glyph glyph-name="Ucircumflex" unicode="&#xdb;" horiz-adv-x="744" 
d="M1035 735c0 -69.333 -39.666 -156.001 -118.999 -260.001c-74 -96.667 -166.333 -188.334 -277 -275.001c-28 -51.333 -46.667 -86.666 -56 -105.999c-12 -28.667 -31.333 -70.667 -58 -126c-5.33301 -10 -12 -15 -20 -15c-19.333 0 -39.666 6.66699 -60.999 20
c-23.333 14.667 -35 30.667 -35 48c0 6 4.66699 18.333 14 37c-90 -46.667 -166 -70 -228 -70c-44.667 0 -79.5 11.333 -104.5 34s-37.5 53.334 -37.5 92.001c0 117.333 103.667 289 311 515c48.667 54 79.667 83.333 93 88c9.33301 4 22.666 6 39.999 6
c21.333 0 43 -2.66699 65 -8c27.333 -6.66699 41 -14.334 41 -23.001c0 -2.66699 -26.667 -30 -80 -82c-72 -70 -133 -132 -183 -186c-143.333 -155.333 -215 -260 -215 -314c0 -58.667 30.333 -88 91 -88c62 0 138.667 26 230 78c58.667 102.667 146 232.334 262 389.001
c135.333 183.333 233.666 275 294.999 275c21.333 0 32 -9.66699 32 -29zM1004 713.999c0 11.333 -6.33301 17 -19 17c-34 0 -137 -154.333 -309 -463c92.667 80 169.667 161.333 231 244c64.667 86 97 153.333 97 202zM873.001 762.999l-23 -1.00098
c-7.33301 0 -12.833 0.666992 -16.5 2s-8.5 6.33301 -14.5 15l-32 45l-51 -45c-3.33301 -3.33301 -9 -7.66602 -17 -12.999c-7.33301 -2.66699 -17.333 -4 -30 -4h-24l75 81c17.333 18.667 34.666 28 51.999 28c20.667 0 35.334 -9.33301 44.001 -28z" />
    <glyph glyph-name="Udieresis" unicode="&#xdc;" horiz-adv-x="744" 
d="M1035 735c0 -69.333 -39.666 -156.001 -118.999 -260.001c-74 -96.667 -166.333 -188.334 -277 -275.001c-28 -51.333 -46.667 -86.666 -56 -105.999c-12 -28.667 -31.333 -70.667 -58 -126c-5.33301 -10 -12 -15 -20 -15c-19.333 0 -39.666 6.66699 -60.999 20
c-23.333 14.667 -35 30.667 -35 48c0 6 4.66699 18.333 14 37c-90 -46.667 -166 -70 -228 -70c-44.667 0 -79.5 11.333 -104.5 34s-37.5 53.334 -37.5 92.001c0 117.333 103.667 289 311 515c48.667 54 79.667 83.333 93 88c9.33301 4 22.666 6 39.999 6
c21.333 0 43 -2.66699 65 -8c27.333 -6.66699 41 -14.334 41 -23.001c0 -2.66699 -26.667 -30 -80 -82c-72 -70 -133 -132 -183 -186c-143.333 -155.333 -215 -260 -215 -314c0 -58.667 30.333 -88 91 -88c62 0 138.667 26 230 78c58.667 102.667 146 232.334 262 389.001
c135.333 183.333 233.666 275 294.999 275c21.333 0 32 -9.66699 32 -29zM1004 713.999c0 11.333 -6.33301 17 -19 17c-34 0 -137 -154.333 -309 -463c92.667 80 169.667 161.333 231 244c64.667 86 97 153.333 97 202zM875.001 823.999
c0.666992 -7.33301 -5.16797 -18.499 -17.501 -33.499s-22.5 -22.5 -30.5 -22.5c-8.66699 0 -16.5 2.83301 -23.5 8.5s-10.5 12.167 -10.5 19.5c0 8 5.16699 18 15.5 30s20.166 19 29.499 21c6.66699 1.33301 14.334 -0.333984 23.001 -5.00098s13.334 -10.667 14.001 -18z
M757.999 824c0.666992 -7.33301 -5.16797 -18.499 -17.501 -33.499s-22.5 -22.5 -30.5 -22.5c-8.66699 0 -16.5 2.83301 -23.5 8.5s-10.5 12.167 -10.5 19.5c0 8 5.16699 18 15.5 30s20.166 19 29.499 21c6.66699 1.33301 14.334 -0.333984 23.001 -5.00098
s13.334 -10.667 14.001 -18z" />
    <glyph glyph-name="Yacute" unicode="&#xdd;" horiz-adv-x="960" 
d="M1593 694c0 -30 -9.66602 -44.9971 -28.999 -44.9971c-8 0 -12 3.66699 -12 11c0 2.66699 0.833008 6.66699 2.5 12s2.5 9.66602 2.5 12.999c0 14 -13.667 21 -41 21c-22 0 -56 -14.667 -102 -44c-38 -24 -68.333 -46.667 -91 -68l-324 -328
c-141.333 -140.667 -266.666 -245.667 -375.999 -315c-148 -93.333 -290 -140 -426 -140c-123.333 0 -185 33 -185 99c0 65.333 57.667 115.666 173 150.999c84 26 168.667 39 254 39c20.667 0 44 -2 70 -6c36.667 -5.33301 55 -13 55 -23
c0 -12.667 -10.833 -33.167 -32.5 -61.5s-38.5 -42.5 -50.5 -42.5c-11.333 0 -28.833 0.666992 -52.5 2s-41.167 2 -52.5 2c-51.333 0 -111.333 -5.33301 -180 -16c-98 -14.667 -147 -35.334 -147 -62.001c0 -28 40.667 -42 122 -42c99.333 0 195 19.833 287 59.5
s172.667 95.167 242 166.5c-50 18.667 -75 59.334 -75 122.001c0 19.333 24 93.666 72 222.999l-234 -117c-96 -44 -163 -66 -201 -66c-48 0 -72 23.667 -72 71c0 44.667 40.667 103.667 122 177c75.333 67.333 162.666 127.333 261.999 180c104 54.667 185.333 82 244 82
c45.333 0 68 -24 68 -72c0 -29.333 -6.66699 -67 -20 -113l215 118c3.33301 2 6.33301 3 9 3c11.333 0 17 -9.33301 17 -28c0 -14 -10 -26 -30 -36l-228 -118l-55 -144c-28 -75.333 -42 -124.333 -42 -147c0 -46 14.667 -69 44 -69c16 0 91 66.667 225 200l265 267
c93.333 86.667 175.666 130 246.999 130c40 0 60 -15.333 60 -46zM763.001 635.003c0 24 -14.001 36.001 -42.001 36.001c-38 0 -98.333 -24.667 -181 -74c-78 -46 -148.667 -97 -212 -153c-68 -60 -102 -103.667 -102 -131c0 -26.667 15 -40 45 -40
c28.667 0 86.334 21 173.001 63c16 7.33301 106.667 53.666 272 138.999c31.333 88 47 141.333 47 160zM1291 839.004c0 -12.667 -6 -22.333 -18 -29l-114 -61h-36l99 100c13.333 13.333 26.333 20 39 20c20 0 30 -10 30 -30z" />
    <glyph glyph-name="Thorn" unicode="&#xde;" horiz-adv-x="1717" 
d="M1687 509c0 -92.667 -124.668 -188.67 -374.001 -288.003c-218.667 -86.667 -439.667 -144.667 -663 -174c-56 -77.333 -94.333 -128.666 -115 -153.999c-10.667 -13.333 -25 -19.666 -43 -18.999c-25.333 1.33301 -38 12 -38 32c0 6 1.66699 11.333 5 16l90 115
c-16.667 -0.666992 -32.334 -1 -47.001 -1c-74 0 -111 21 -111 63c4.66699 5.33301 11 8 19 8s13.333 -2 16 -6c0 -20 25 -30 75 -30c22.667 0 48.667 1.33301 78 4l317 404c-159.333 -38 -319.666 -84.333 -480.999 -139c-239.333 -80.667 -359 -143.667 -359 -189
c0 -10.667 -4.33301 -16 -13 -16c-11.333 0 -17 6.66699 -17 20c0 100.667 135 202.667 405 306c198.667 76 391.334 130 578.001 162l104 134c10 12.667 19.667 19 29 19c6.66699 0 10 -3.66699 10 -11c0 -5.33301 -2.33301 -11.5 -7 -18.5l-80 -114.5
c102 14.667 195 22 279 22c100.667 0 181 -11 241 -33c68 -25.333 102 -62.666 102 -111.999zM1647 506.997c0 42.667 -56.667 63.999 -170 63.999c-115.333 0 -284.333 -25 -507 -75l-289 -407c206 34.667 413.667 94.334 623 179.001c228.667 92 343 171.667 343 239z" />
    <glyph glyph-name="germandbls" unicode="&#xdf;" horiz-adv-x="222" 
d="M363 431c0 -49.333 -23 -94.998 -69 -136.998l-128 -95c-46 -36 -69 -72 -69 -108c0 -22.667 16.167 -51.5 48.5 -86.5s48.5 -63.833 48.5 -86.5c0 -30 -10.833 -54.167 -32.5 -72.5s-47.834 -27.5 -78.501 -27.5c-44 0 -75.667 11.667 -95 35
c-4 5.33301 -6 9.66602 -6 12.999c0 6 3 9 9 9c2.66699 0 9.33398 -3.83301 20.001 -11.5s22 -11.5 34 -11.5c32 0 48 18.333 48 55c0 22.667 -4.66699 52.167 -14 88.5s-14 65.166 -14 86.499c0 32 17.333 69 52 111l86 95c17.333 20 35.333 45.667 54 77
c22.667 38.667 34 67 34 85c0 8.66699 -3.66699 13 -11 13c-14 0 -39 -23.667 -75 -71c-26.667 -34.667 -48 -65.667 -64 -93l-310 -539c-10.667 -18.667 -30.667 -28 -60 -28c-26.667 0 -40 7.33301 -40 22c0 4 1.66699 8.33301 5 13l412 588c29.333 42 50.333 70 63 84
c35.333 40 67 60 95 60c38 0 57 -22.667 57 -68z" />
    <glyph glyph-name="agrave" unicode="&#xe0;" 
d="M437 148c-2 -8 -9.99805 -18.6699 -23.998 -32.0029c-42.667 -40 -74 -66.667 -94 -80c-47.333 -32 -83.333 -48 -108 -48c-37.333 0 -56 20 -56 60c0 8.66699 0.333008 15.334 1 20.001c-12.667 -17.333 -30 -33 -52 -47c-27.333 -17.333 -54 -26 -80 -26
c-16 0 -30 6.33301 -42 19s-18 28.334 -18 47.001c0 16.667 5.33301 33.667 16 51c17.333 28 45 52 83 72s75.333 30 112 30c35.333 0 53 -12.667 53 -38c27.333 25.333 46.666 38 57.999 38c8 0 18.333 -4.16699 31 -12.5s18.667 -16.166 18 -23.499
c-0.666992 -6 -8.33398 -17.333 -23.001 -34l-34 -36c-24 -27.333 -36 -47.333 -36 -60c0 -7.33301 4.33301 -11 13 -11c18 0 46.667 16.667 86 50c20.667 18 46.667 39.333 78 64c6 4 10.333 6 13 6c3.33301 0 5 -2 5 -6v-3zM211.002 159.997c1.33301 8 -5.66699 12 -21 12
c-27.333 0 -55.666 -14 -84.999 -42c-18 -17.333 -27 -33.333 -27 -48c0 -10.667 5.33301 -16 16 -16c21.333 0 45.666 16.667 72.999 50c14 17.333 28.667 32 44 44zM260.002 248.997l-36 -0.000976562l-114 61c-12 6.66699 -18 16.334 -18 29.001c0 20 10 30 30 30
c12.667 0 25.667 -6.66699 39 -20z" />
    <glyph glyph-name="aacute" unicode="&#xe1;" 
d="M437 148c-2 -8 -9.99805 -18.6699 -23.998 -32.0029c-42.667 -40 -74 -66.667 -94 -80c-47.333 -32 -83.333 -48 -108 -48c-37.333 0 -56 20 -56 60c0 8.66699 0.333008 15.334 1 20.001c-12.667 -17.333 -30 -33 -52 -47c-27.333 -17.333 -54 -26 -80 -26
c-16 0 -30 6.33301 -42 19s-18 28.334 -18 47.001c0 16.667 5.33301 33.667 16 51c17.333 28 45 52 83 72s75.333 30 112 30c35.333 0 53 -12.667 53 -38c27.333 25.333 46.666 38 57.999 38c8 0 18.333 -4.16699 31 -12.5s18.667 -16.166 18 -23.499
c-0.666992 -6 -8.33398 -17.333 -23.001 -34l-34 -36c-24 -27.333 -36 -47.333 -36 -60c0 -7.33301 4.33301 -11 13 -11c18 0 46.667 16.667 86 50c20.667 18 46.667 39.333 78 64c6 4 10.333 6 13 6c3.33301 0 5 -2 5 -6v-3zM211.002 159.997c1.33301 8 -5.66699 12 -21 12
c-27.333 0 -55.666 -14 -84.999 -42c-18 -17.333 -27 -33.333 -27 -48c0 -10.667 5.33301 -16 16 -16c21.333 0 45.666 16.667 72.999 50c14 17.333 28.667 32 44 44zM379.002 338.997c0 -12.667 -6 -22.333 -18 -29l-114 -61h-36l99 100c13.333 13.333 26.333 20 39 20
c20 0 30 -10 30 -30z" />
    <glyph glyph-name="acircumflex" unicode="&#xe2;" 
d="M437 148c-2 -8 -9.99805 -18.6699 -23.998 -32.0029c-42.667 -40 -74 -66.667 -94 -80c-47.333 -32 -83.333 -48 -108 -48c-37.333 0 -56 20 -56 60c0 8.66699 0.333008 15.334 1 20.001c-12.667 -17.333 -30 -33 -52 -47c-27.333 -17.333 -54 -26 -80 -26
c-16 0 -30 6.33301 -42 19s-18 28.334 -18 47.001c0 16.667 5.33301 33.667 16 51c17.333 28 45 52 83 72s75.333 30 112 30c35.333 0 53 -12.667 53 -38c27.333 25.333 46.666 38 57.999 38c8 0 18.333 -4.16699 31 -12.5s18.667 -16.166 18 -23.499
c-0.666992 -6 -8.33398 -17.333 -23.001 -34l-34 -36c-24 -27.333 -36 -47.333 -36 -60c0 -7.33301 4.33301 -11 13 -11c18 0 46.667 16.667 86 50c20.667 18 46.667 39.333 78 64c6 4 10.333 6 13 6c3.33301 0 5 -2 5 -6v-3zM211.002 159.997c1.33301 8 -5.66699 12 -21 12
c-27.333 0 -55.666 -14 -84.999 -42c-18 -17.333 -27 -33.333 -27 -48c0 -10.667 5.33301 -16 16 -16c21.333 0 45.666 16.667 72.999 50c14 17.333 28.667 32 44 44zM337.002 259.997l-23 -1.00098c-7.33301 0 -12.833 0.666992 -16.5 2s-8.5 6.33301 -14.5 15l-32 45
l-51 -45c-3.33301 -3.33301 -9 -7.66602 -17 -12.999c-7.33301 -2.66699 -17.333 -4 -30 -4h-24l75 81c17.333 18.667 34.666 28 51.999 28c20.667 0 35.334 -9.33301 44.001 -28z" />
    <glyph glyph-name="atilde" unicode="&#xe3;" 
d="M437 148c-2 -8 -9.99805 -18.6699 -23.998 -32.0029c-42.667 -40 -74 -66.667 -94 -80c-47.333 -32 -83.333 -48 -108 -48c-37.333 0 -56 20 -56 60c0 8.66699 0.333008 15.334 1 20.001c-12.667 -17.333 -30 -33 -52 -47c-27.333 -17.333 -54 -26 -80 -26
c-16 0 -30 6.33301 -42 19s-18 28.334 -18 47.001c0 16.667 5.33301 33.667 16 51c17.333 28 45 52 83 72s75.333 30 112 30c35.333 0 53 -12.667 53 -38c27.333 25.333 46.666 38 57.999 38c8 0 18.333 -4.16699 31 -12.5s18.667 -16.166 18 -23.499
c-0.666992 -6 -8.33398 -17.333 -23.001 -34l-34 -36c-24 -27.333 -36 -47.333 -36 -60c0 -7.33301 4.33301 -11 13 -11c18 0 46.667 16.667 86 50c20.667 18 46.667 39.333 78 64c6 4 10.333 6 13 6c3.33301 0 5 -2 5 -6v-3zM211.002 159.997c1.33301 8 -5.66699 12 -21 12
c-27.333 0 -55.666 -14 -84.999 -42c-18 -17.333 -27 -33.333 -27 -48c0 -10.667 5.33301 -16 16 -16c21.333 0 45.666 16.667 72.999 50c14 17.333 28.667 32 44 44zM373.002 326.997c0 -3.33301 -2.33398 -8.66699 -7.00098 -16
c-14.667 -20.667 -24.334 -33.334 -29.001 -38.001c-12 -12 -26.333 -18 -43 -18c-9.33301 0 -24.166 5.5 -44.499 16.5s-34.166 16.5 -41.499 16.5c-9.33301 0 -18.5 -3.66699 -27.5 -11s-14.5 -11 -16.5 -11c-4.66699 0 -7 1.33301 -7 4s4 9.33398 12 20.001
c24 34 49.667 51 77 51c12 0 26.167 -5.66699 42.5 -17s29.5 -17 39.5 -17c9.33301 0 17.5 4 24.5 12s11.833 12 14.5 12c4 0 6 -1.33301 6 -4z" />
    <glyph glyph-name="adieresis" unicode="&#xe4;" 
d="M437 148c-2 -8 -9.99805 -18.6699 -23.998 -32.0029c-42.667 -40 -74 -66.667 -94 -80c-47.333 -32 -83.333 -48 -108 -48c-37.333 0 -56 20 -56 60c0 8.66699 0.333008 15.334 1 20.001c-12.667 -17.333 -30 -33 -52 -47c-27.333 -17.333 -54 -26 -80 -26
c-16 0 -30 6.33301 -42 19s-18 28.334 -18 47.001c0 16.667 5.33301 33.667 16 51c17.333 28 45 52 83 72s75.333 30 112 30c35.333 0 53 -12.667 53 -38c27.333 25.333 46.666 38 57.999 38c8 0 18.333 -4.16699 31 -12.5s18.667 -16.166 18 -23.499
c-0.666992 -6 -8.33398 -17.333 -23.001 -34l-34 -36c-24 -27.333 -36 -47.333 -36 -60c0 -7.33301 4.33301 -11 13 -11c18 0 46.667 16.667 86 50c20.667 18 46.667 39.333 78 64c6 4 10.333 6 13 6c3.33301 0 5 -2 5 -6v-3zM211.002 159.997c1.33301 8 -5.66699 12 -21 12
c-27.333 0 -55.666 -14 -84.999 -42c-18 -17.333 -27 -33.333 -27 -48c0 -10.667 5.33301 -16 16 -16c21.333 0 45.666 16.667 72.999 50c14 17.333 28.667 32 44 44zM357.002 311.997c0.666992 -7.33301 -5.16797 -18.499 -17.501 -33.499s-22.5 -22.5 -30.5 -22.5
c-8.66699 0 -16.5 2.83301 -23.5 8.5s-10.5 12.167 -10.5 19.5c0 8 5.16699 18 15.5 30s20.166 19 29.499 21c6.66699 1.33301 14.334 -0.333984 23.001 -5.00098s13.334 -10.667 14.001 -18zM240 311.998c0.666992 -7.33301 -5.16797 -18.499 -17.501 -33.499
s-22.5 -22.5 -30.5 -22.5c-8.66699 0 -16.5 2.83301 -23.5 8.5s-10.5 12.167 -10.5 19.5c0 8 5.16699 18 15.5 30s20.166 19 29.499 21c6.66699 1.33301 14.334 -0.333984 23.001 -5.00098s13.334 -10.667 14.001 -18z" />
    <glyph glyph-name="aring" unicode="&#xe5;" 
d="M437 148c-2 -8 -9.99805 -18.6699 -23.998 -32.0029c-42.667 -40 -74 -66.667 -94 -80c-47.333 -32 -83.333 -48 -108 -48c-37.333 0 -56 20 -56 60c0 8.66699 0.333008 15.334 1 20.001c-12.667 -17.333 -30 -33 -52 -47c-27.333 -17.333 -54 -26 -80 -26
c-16 0 -30 6.33301 -42 19s-18 28.334 -18 47.001c0 16.667 5.33301 33.667 16 51c17.333 28 45 52 83 72s75.333 30 112 30c35.333 0 53 -12.667 53 -38c27.333 25.333 46.666 38 57.999 38c8 0 18.333 -4.16699 31 -12.5s18.667 -16.166 18 -23.499
c-0.666992 -6 -8.33398 -17.333 -23.001 -34l-34 -36c-24 -27.333 -36 -47.333 -36 -60c0 -7.33301 4.33301 -11 13 -11c18 0 46.667 16.667 86 50c20.667 18 46.667 39.333 78 64c6 4 10.333 6 13 6c3.33301 0 5 -2 5 -6v-3zM211.002 159.997c1.33301 8 -5.66699 12 -21 12
c-27.333 0 -55.666 -14 -84.999 -42c-18 -17.333 -27 -33.333 -27 -48c0 -10.667 5.33301 -16 16 -16c21.333 0 45.666 16.667 72.999 50c14 17.333 28.667 32 44 44zM362.002 355.997c0 -27.333 -11.168 -51.5 -33.501 -72.5s-47.166 -31.5 -74.499 -31.5
c-20 0 -36.5 6 -49.5 18s-19.5 28 -19.5 48c0 28 10.667 52.833 32 74.5s46 32.5 74 32.5c20 0 36.833 -6.5 50.5 -19.5s20.5 -29.5 20.5 -49.5zM324.001 347.997c0 26.667 -13.666 40.001 -40.999 40.001c-16.667 0 -31.334 -6.33301 -44.001 -19s-19 -27.334 -19 -44.001
c0 -26 13.667 -39 41 -39c16 0 30.5 6.16699 43.5 18.5s19.5 26.833 19.5 43.5z" />
    <glyph glyph-name="ae" unicode="&#xe6;" horiz-adv-x="476" 
d="M512 143c-1.33301 -6 -4.66797 -11.001 -10.001 -15.001l-94 -83c-26 -20 -46.333 -33.333 -61 -40c-24.667 -12 -52 -18 -82 -18c-28 0 -50.667 7 -68 21c-19.333 14.667 -29 36 -29 64c-44 -51.333 -92 -77 -144 -77c-16 0 -30 6.33301 -42 19s-18 28.334 -18 47.001
c0 16.667 5.33301 33.667 16 51c17.333 28 45 52 83 72s75.333 30 112 30c34.667 0 52.334 -12.333 53.001 -37c36 28.667 75 43 117 43c16 0 31.167 -4.33301 45.5 -13s21.5 -19 21.5 -31c0 -19.333 -13 -41.333 -39 -66c-28.667 -26.667 -57.667 -40 -87 -40
c-8 0 -13.667 0.333008 -17 1v-6c0 -22 11.333 -33 34 -33c34.667 0 73.667 19.333 117 58c47.333 42 75.333 64.333 84 67h2c6 0 8 -4.66699 6 -14zM364.998 172.999c0 3.33301 -1.99902 5 -5.99902 5c-8 0 -18.333 -5 -31 -15c-4.66699 -6 -19 -21.667 -43 -47l-2 -4
l-7 -14h4c21.333 0 41.666 10 60.999 30c16 18 24 33 24 45zM210.999 161.999c-0.666992 6.66699 -7.66699 10 -21 10c-27.333 0 -55.666 -14 -84.999 -42c-18 -17.333 -27 -33.333 -27 -48c0 -10.667 5.33301 -16 16 -16c21.333 0 45.666 16.667 72.999 50
c3.33301 4 18 19.333 44 46z" />
    <glyph glyph-name="ccedilla" unicode="&#xe7;" horiz-adv-x="308" 
d="M344 146c0 -6 -3.66602 -12.0029 -10.999 -18.0029l-94 -83c-50.667 -38.667 -101.667 -58 -153 -58l-16 -31c15.333 1.33301 25 2 29 2c17.333 0 26 -6.33301 26 -19c0 -30 -22 -63.333 -66 -100c-23.333 -19.333 -45 -29 -65 -29c-18.667 0 -28 7.33301 -28 22
c0 20.667 10.667 31 32 31c6 0 11.667 -2.33301 17 -7s9.33301 -7 12 -7c12.667 0 24.834 6.5 36.501 19.5s17.5 25.5 17.5 37.5c0 8.66699 -5.33301 13 -16 13s-22.667 -4 -36 -12l-14 -10.5c-4.66699 -3.66699 -8.66699 -4.83398 -12 -3.50098
c-4.66699 2 -4.33398 6.33301 0.999023 13l52 83c-51.333 8.66699 -77 36.667 -77 84c0 37.333 20 71.333 60 102c38 30 77 45 117 45c18.667 0 35.5 -3.66699 50.5 -11s22.5 -16 22.5 -26c0 -16 -6 -33.167 -18 -51.5s-24.333 -27.5 -37 -27.5
c-25.333 0 -38 6.66699 -38 20c0 4.66699 8.66699 15.334 26 32.001c9.33301 8.66699 14 14.334 14 17.001c0 3.33301 -2 5 -6 5c-9.33301 0 -21.333 -6 -36 -18c-16.667 -13.333 -29.834 -29 -39.501 -47s-14.5 -34 -14.5 -48c0 -24 12.333 -36 37 -36
c44 0 89.167 20.667 135.5 62s73.833 63.333 82.5 66c2.66699 0.666992 5 -0.166016 7 -2.49902s2.66699 -5.16602 2 -8.49902z" />
    <glyph glyph-name="egrave" unicode="&#xe8;" horiz-adv-x="288" 
d="M323 143c-1.33301 -6 -4.66602 -11.001 -9.99902 -15.001l-94 -83c-26 -20 -46.333 -33.333 -61 -40c-24.667 -12 -52 -18 -82 -18c-28 0 -50.667 7 -68 21c-19.333 15.333 -29 37 -29 65c0 34.667 18.167 67.834 54.5 99.501s77.166 47.5 122.499 47.5
c16 0 31.167 -4.33301 45.5 -13s21.5 -19 21.5 -31c0 -19.333 -13 -41.333 -39 -66c-28.667 -26.667 -57.667 -40 -87 -40c-8 0 -13.667 0.333008 -17 1v-6c0 -22 11.333 -33 34 -33c34.667 0 73.667 19.333 117 58c47.333 42 75.333 64.333 84 67h2c6 0 8 -4.66699 6 -14z
M176 172.999c0 3.33301 -1.99902 5.00098 -5.99902 5.00098c-8.66699 0 -21 -6.33301 -37 -19s-29 -28.334 -39 -47.001l-7 -14h4c21.333 0 41.666 10 60.999 30c16 18 24 33 24 45zM213.001 253l-36 -0.000976562l-114 61c-12 6.66699 -18 16.334 -18 29.001
c0 20 10 30 30 30c12.667 0 25.667 -6.66699 39 -20z" />
    <glyph glyph-name="eacute" unicode="&#xe9;" horiz-adv-x="287" 
d="M323 143c-1.33301 -6 -4.66602 -11.001 -9.99902 -15.001l-94 -83c-26 -20 -46.333 -33.333 -61 -40c-24.667 -12 -52 -18 -82 -18c-28 0 -50.667 7 -68 21c-19.333 15.333 -29 37 -29 65c0 34.667 18.167 67.834 54.5 99.501s77.166 47.5 122.499 47.5
c16 0 31.167 -4.33301 45.5 -13s21.5 -19 21.5 -31c0 -19.333 -13 -41.333 -39 -66c-28.667 -26.667 -57.667 -40 -87 -40c-8 0 -13.667 0.333008 -17 1v-6c0 -22 11.333 -33 34 -33c34.667 0 73.667 19.333 117 58c47.333 42 75.333 64.333 84 67h2c6 0 8 -4.66699 6 -14z
M176 172.999c0 3.33301 -1.99902 5.00098 -5.99902 5.00098c-8.66699 0 -21 -6.33301 -37 -19s-29 -28.334 -39 -47.001l-7 -14h4c21.333 0 41.666 10 60.999 30c16 18 24 33 24 45zM313.001 339c0 -12.667 -6 -22.333 -18 -29l-114 -61h-36l99 100
c13.333 13.333 26.333 20 39 20c20 0 30 -10 30 -30z" />
    <glyph glyph-name="ecircumflex" unicode="&#xea;" horiz-adv-x="288" 
d="M323 143c-1.33301 -6 -4.66602 -11.001 -9.99902 -15.001l-94 -83c-26 -20 -46.333 -33.333 -61 -40c-24.667 -12 -52 -18 -82 -18c-28 0 -50.667 7 -68 21c-19.333 15.333 -29 37 -29 65c0 34.667 18.167 67.834 54.5 99.501s77.166 47.5 122.499 47.5
c16 0 31.167 -4.33301 45.5 -13s21.5 -19 21.5 -31c0 -19.333 -13 -41.333 -39 -66c-28.667 -26.667 -57.667 -40 -87 -40c-8 0 -13.667 0.333008 -17 1v-6c0 -22 11.333 -33 34 -33c34.667 0 73.667 19.333 117 58c47.333 42 75.333 64.333 84 67h2c6 0 8 -4.66699 6 -14z
M176 172.999c0 3.33301 -1.99902 5.00098 -5.99902 5.00098c-8.66699 0 -21 -6.33301 -37 -19s-29 -28.334 -39 -47.001l-7 -14h4c21.333 0 41.666 10 60.999 30c16 18 24 33 24 45zM270.001 254l-23 -1.00098c-7.33301 0 -12.833 0.666992 -16.5 2s-8.5 6.33301 -14.5 15
l-32 45l-51 -45c-3.33301 -3.33301 -9 -7.66602 -17 -12.999c-7.33301 -2.66699 -17.333 -4 -30 -4h-24l75 81c17.333 18.667 34.666 28 51.999 28c20.667 0 35.334 -9.33301 44.001 -28z" />
    <glyph glyph-name="edieresis" unicode="&#xeb;" horiz-adv-x="288" 
d="M323 143c-1.33301 -6 -4.66602 -11.001 -9.99902 -15.001l-94 -83c-26 -20 -46.333 -33.333 -61 -40c-24.667 -12 -52 -18 -82 -18c-28 0 -50.667 7 -68 21c-19.333 15.333 -29 37 -29 65c0 34.667 18.167 67.834 54.5 99.501s77.166 47.5 122.499 47.5
c16 0 31.167 -4.33301 45.5 -13s21.5 -19 21.5 -31c0 -19.333 -13 -41.333 -39 -66c-28.667 -26.667 -57.667 -40 -87 -40c-8 0 -13.667 0.333008 -17 1v-6c0 -22 11.333 -33 34 -33c34.667 0 73.667 19.333 117 58c47.333 42 75.333 64.333 84 67h2c6 0 8 -4.66699 6 -14z
M176 172.999c0 3.33301 -1.99902 5.00098 -5.99902 5.00098c-8.66699 0 -21 -6.33301 -37 -19s-29 -28.334 -39 -47.001l-7 -14h4c21.333 0 41.666 10 60.999 30c16 18 24 33 24 45zM291.001 309c0.666992 -7.33301 -5.16797 -18.499 -17.501 -33.499
s-22.5 -22.5 -30.5 -22.5c-8.66699 0 -16.5 2.83301 -23.5 8.5s-10.5 12.167 -10.5 19.5c0 8 5.16699 18 15.5 30s20.166 19 29.499 21c6.66699 1.33301 14.334 -0.333984 23.001 -5.00098s13.334 -10.667 14.001 -18zM173.999 309.001
c0.666992 -7.33301 -5.16797 -18.499 -17.501 -33.499s-22.5 -22.5 -30.5 -22.5c-8.66699 0 -16.5 2.83301 -23.5 8.5s-10.5 12.167 -10.5 19.5c0 8 5.16699 18 15.5 30s20.166 19 29.499 21c6.66699 1.33301 14.334 -0.333984 23.001 -5.00098s13.334 -10.667 14.001 -18z
" />
    <glyph glyph-name="igrave" unicode="&#xec;" horiz-adv-x="217" 
d="M254 149c-2 -10 -9.99805 -20.999 -23.998 -32.999l-54 -48c-28 -24 -53.333 -42 -76 -54c-32 -16.667 -61.333 -25 -88 -25c-35.333 0 -53 14 -53 42c0 27.333 15 61 45 101c39.333 52 66 79.667 80 83c8.66699 2 19.667 3 33 3c27.333 0 45.333 -2 54 -6
c2.66699 -1.33301 4 -2.66602 4 -3.99902c0 -2.66699 -12 -16.334 -36 -41.001l-43 -42c-34 -38 -51 -64.333 -51 -79c0 -9.33301 4 -14 12 -14c24 0 57.667 18.333 101 55l79 65c5.33301 4 9.66602 5.66699 12.999 5s4.66602 -3.33398 3.99902 -8.00098zM198.002 258.001
l-36 -0.000976562l-114 61c-12 6.66699 -18 16.334 -18 29.001c0 20 10 30 30 30c12.667 0 25.667 -6.66699 39 -20z" />
    <glyph glyph-name="iacute" unicode="&#xed;" horiz-adv-x="217" 
d="M254 149c-2 -10 -9.99805 -20.999 -23.998 -32.999l-54 -48c-28 -24 -53.333 -42 -76 -54c-32 -16.667 -61.333 -25 -88 -25c-35.333 0 -53 14 -53 42c0 27.333 15 61 45 101c39.333 52 66 79.667 80 83c8.66699 2 19.667 3 33 3c27.333 0 45.333 -2 54 -6
c2.66699 -1.33301 4 -2.66602 4 -3.99902c0 -2.66699 -12 -16.334 -36 -41.001l-43 -42c-34 -38 -51 -64.333 -51 -79c0 -9.33301 4 -14 12 -14c24 0 57.667 18.333 101 55l79 65c5.33301 4 9.66602 5.66699 12.999 5s4.66602 -3.33398 3.99902 -8.00098zM294.002 345.001
c0 -12.667 -6 -22.333 -18 -29l-114 -61h-36l99 100c13.333 13.333 26.333 20 39 20c20 0 30 -10 30 -30z" />
    <glyph glyph-name="icircumflex" unicode="&#xee;" horiz-adv-x="217" 
d="M254 149c-2 -10 -9.99805 -20.999 -23.998 -32.999l-54 -48c-28 -24 -53.333 -42 -76 -54c-32 -16.667 -61.333 -25 -88 -25c-35.333 0 -53 14 -53 42c0 27.333 15 61 45 101c39.333 52 66 79.667 80 83c8.66699 2 19.667 3 33 3c27.333 0 45.333 -2 54 -6
c2.66699 -1.33301 4 -2.66602 4 -3.99902c0 -2.66699 -12 -16.334 -36 -41.001l-43 -42c-34 -38 -51 -64.333 -51 -79c0 -9.33301 4 -14 12 -14c24 0 57.667 18.333 101 55l79 65c5.33301 4 9.66602 5.66699 12.999 5s4.66602 -3.33398 3.99902 -8.00098zM241.002 259.001
l-23 -1.00098c-7.33301 0 -12.833 0.666992 -16.5 2s-8.5 6.33301 -14.5 15l-32 45l-51 -45c-3.33301 -3.33301 -9 -7.66602 -17 -12.999c-7.33301 -2.66699 -17.333 -4 -30 -4h-24l75 81c17.333 18.667 34.666 28 51.999 28c20.667 0 35.334 -9.33301 44.001 -28z" />
    <glyph glyph-name="idieresis" unicode="&#xef;" horiz-adv-x="217" 
d="M254 149c-2 -10 -9.99805 -20.999 -23.998 -32.999l-54 -48c-28 -24 -53.333 -42 -76 -54c-32 -16.667 -61.333 -25 -88 -25c-35.333 0 -53 14 -53 42c0 27.333 15 61 45 101c39.333 52 66 79.667 80 83c8.66699 2 19.667 3 33 3c27.333 0 45.333 -2 54 -6
c2.66699 -1.33301 4 -2.66602 4 -3.99902c0 -2.66699 -12 -16.334 -36 -41.001l-43 -42c-34 -38 -51 -64.333 -51 -79c0 -9.33301 4 -14 12 -14c24 0 57.667 18.333 101 55l79 65c5.33301 4 9.66602 5.66699 12.999 5s4.66602 -3.33398 3.99902 -8.00098zM268.002 314.001
c0.666992 -7.33301 -5.16797 -18.499 -17.501 -33.499s-22.5 -22.5 -30.5 -22.5c-8.66699 0 -16.5 2.83301 -23.5 8.5s-10.5 12.167 -10.5 19.5c0 8 5.16699 18 15.5 30s20.166 19 29.499 21c6.66699 1.33301 14.334 -0.333984 23.001 -5.00098s13.334 -10.667 14.001 -18z
M151 314.002c0.666992 -7.33301 -5.16797 -18.499 -17.501 -33.499s-22.5 -22.5 -30.5 -22.5c-8.66699 0 -16.5 2.83301 -23.5 8.5s-10.5 12.167 -10.5 19.5c0 8 5.16699 18 15.5 30s20.166 19 29.499 21c6.66699 1.33301 14.334 -0.333984 23.001 -5.00098
s13.334 -10.667 14.001 -18z" />
    <glyph glyph-name="eth" unicode="&#xf0;" horiz-adv-x="302" 
d="M335 153c2.66699 -8 -1.33398 -17.332 -12.001 -27.999c-33.333 -33.333 -66 -50 -98 -50c-10.667 0 -20.667 2.33301 -30 7c-14 -18.667 -32.667 -37.334 -56 -56.001c-34 -26.667 -66 -40 -96 -40c-19.333 0 -35.833 6.33301 -49.5 19s-20.5 30.334 -20.5 53.001
c0 43.333 19.667 81.333 59 114c36 30 74.667 45 116 45h7c20 28 30 65.333 30 112c0 24 -3 43.333 -9 58l-46 -32l-20 24l54 37c-11.333 18 -22.333 28.667 -33 32l-24 6c-8 2 -12 6 -12 12c0 7.33301 3.83301 15.5 11.5 24.5s15.834 13.5 24.501 13.5
c21.333 0 44.333 -21 69 -63l49 34l20 -23l-54 -38c18.667 -40.667 28 -85 28 -133c0 -46 -11 -74.333 -33 -85c-0.666992 -0.666992 -9.33398 -4 -26.001 -10c-33.333 -12.667 -62.333 -36 -87 -70c-12 -16.667 -18 -32.334 -18 -47.001c0 -14 5.66699 -21 17 -21
c16.667 0 39.667 16.667 69 50c-6 7.33301 -9 15.333 -9 24c0 14 7 29.333 21 46s28 25 42 25s21 -8.33301 21 -25c0 -18 -7.33301 -36.333 -22 -55c10 -4 19 -6 27 -6h1c12.667 0 26.334 6 41.001 18c24 19.333 36.333 29 37 29c6 3.33301 9.66699 3 11 -1z
M214.999 159.001c2.66699 5.33301 1.66797 7.99902 -2.99902 7.99902c-4 0 -8.83301 -4.66699 -14.5 -14s-6.83398 -17 -3.50098 -23c8.66699 6.66699 15.667 16.334 21 29.001z" />
    <glyph glyph-name="ntilde" unicode="&#xf1;" horiz-adv-x="414" 
d="M449 149c-2 -10 -9.99805 -21.001 -23.998 -33.001l-79 -69c-42 -32 -77 -48 -105 -48c-18.667 0 -34 6 -46 18s-18 27.333 -18 46c0 22 8 41 24 57c2 2 3 3.66699 3 5s-0.666992 2 -2 2c-2 0 -7 -2.33301 -15 -7c-40.667 -24 -89 -64 -145 -120c-2 -2 -5 -3 -9 -3
c-7.33301 0 -16.5 3.33301 -27.5 10s-16.5 13.334 -16.5 20.001c0 9.33301 17.667 34.333 53 75c26.667 30.667 40 50 40 58c-6.66699 0 -29 -13.333 -67 -40c-2.66699 -1.33301 -4.33398 -2 -5.00098 -2c-4.66699 0 -7.66699 2.66699 -9 8c-0.666992 1.33301 -1 3 -1 5
c0 4 2 8 6 12c10.667 10 30 23.333 58 40c33.333 20 57 30 71 30c8.66699 0 17.667 -4 27 -12s14 -15.667 14 -23c0 -5.33301 -5 -16 -15 -32c-2 -3.33301 -3 -6 -3 -8c0 -2.66699 1 -4 3 -4c1.33301 0 4 1.66699 8 5c12 10 34.167 25 66.5 45s51.833 29.667 58.5 29
c8.66699 -0.666992 17.667 -7 27 -19s14 -23 14 -33c0 -6 -9.33301 -19.667 -28 -41l-33 -37c-12.667 -15.333 -19 -26.666 -19 -33.999c0 -8.66699 5 -13 15 -13c14.667 0 42.334 17 83.001 51l79 65c5.33301 4 9.66602 5.66699 12.999 5
s4.66602 -3.33398 3.99902 -8.00098zM380.002 319.999c0 -3.33301 -2.33398 -8.66699 -7.00098 -16c-14.667 -20.667 -24.334 -33.334 -29.001 -38.001c-12 -12 -26.333 -18 -43 -18c-9.33301 0 -24.166 5.5 -44.499 16.5s-34.166 16.5 -41.499 16.5
c-9.33301 0 -18.5 -3.66699 -27.5 -11s-14.5 -11 -16.5 -11c-4.66699 0 -7 1.33301 -7 4s4 9.33398 12 20.001c24 34 49.667 51 77 51c12 0 26.167 -5.66699 42.5 -17s29.5 -17 39.5 -17c9.33301 0 17.5 4 24.5 12s11.833 12 14.5 12c4 0 6 -1.33301 6 -4z" />
    <glyph glyph-name="ograve" unicode="&#xf2;" horiz-adv-x="312" 
d="M345 153c2.66699 -9.33301 -1.33301 -18.666 -12 -27.999c-36.667 -31.333 -72.334 -47 -107.001 -47c-15.333 0 -25.666 1.33301 -30.999 4c-14 -18.667 -32.667 -37.334 -56 -56.001c-34 -26.667 -66 -40 -96 -40c-19.333 0 -35.833 6.33301 -49.5 19
s-20.5 30.334 -20.5 53.001c0 45.333 21 84 63 116c38.667 29.333 80.334 44 125.001 44c13.333 0 25.5 -1.83301 36.5 -5.5s16.5 -7.16699 16.5 -10.5s-1.33301 -5.33301 -4 -6c-44 -10 -81.667 -36.667 -113 -80c-12 -16.667 -18 -32.334 -18 -47.001
c0 -14 5.66699 -21 17 -21c16.667 0 39.667 16.667 69 50c-6 7.33301 -9 15.333 -9 24c0 9.33301 3 19.333 9 30c15.333 26.667 33.666 40 54.999 40c12.667 0 19 -8 19 -24c0 -22 -8 -41.667 -24 -59c4 -1.33301 10.333 -2 19 -2c16 0 33.667 5.66699 53 17
c16 10 31.667 20.333 47 31c6 4 9.66699 3.33301 11 -2zM246 245l-36 -0.000976562l-114 61c-12 6.66699 -18 16.334 -18 29.001c0 20 10 30 30 30c12.667 0 25.667 -6.66699 39 -20z" />
    <glyph glyph-name="oacute" unicode="&#xf3;" horiz-adv-x="312" 
d="M345 153c2.66699 -9.33301 -1.33301 -18.666 -12 -27.999c-36.667 -31.333 -72.334 -47 -107.001 -47c-15.333 0 -25.666 1.33301 -30.999 4c-14 -18.667 -32.667 -37.334 -56 -56.001c-34 -26.667 -66 -40 -96 -40c-19.333 0 -35.833 6.33301 -49.5 19
s-20.5 30.334 -20.5 53.001c0 45.333 21 84 63 116c38.667 29.333 80.334 44 125.001 44c13.333 0 25.5 -1.83301 36.5 -5.5s16.5 -7.16699 16.5 -10.5s-1.33301 -5.33301 -4 -6c-44 -10 -81.667 -36.667 -113 -80c-12 -16.667 -18 -32.334 -18 -47.001
c0 -14 5.66699 -21 17 -21c16.667 0 39.667 16.667 69 50c-6 7.33301 -9 15.333 -9 24c0 9.33301 3 19.333 9 30c15.333 26.667 33.666 40 54.999 40c12.667 0 19 -8 19 -24c0 -22 -8 -41.667 -24 -59c4 -1.33301 10.333 -2 19 -2c16 0 33.667 5.66699 53 17
c16 10 31.667 20.333 47 31c6 4 9.66699 3.33301 11 -2zM318 340c0 -12.667 -6 -22.333 -18 -29l-114 -61h-36l99 100c13.333 13.333 26.333 20 39 20c20 0 30 -10 30 -30z" />
    <glyph glyph-name="ocircumflex" unicode="&#xf4;" horiz-adv-x="312" 
d="M345 153c2.66699 -9.33301 -1.33301 -18.666 -12 -27.999c-36.667 -31.333 -72.334 -47 -107.001 -47c-15.333 0 -25.666 1.33301 -30.999 4c-14 -18.667 -32.667 -37.334 -56 -56.001c-34 -26.667 -66 -40 -96 -40c-19.333 0 -35.833 6.33301 -49.5 19
s-20.5 30.334 -20.5 53.001c0 45.333 21 84 63 116c38.667 29.333 80.334 44 125.001 44c13.333 0 25.5 -1.83301 36.5 -5.5s16.5 -7.16699 16.5 -10.5s-1.33301 -5.33301 -4 -6c-44 -10 -81.667 -36.667 -113 -80c-12 -16.667 -18 -32.334 -18 -47.001
c0 -14 5.66699 -21 17 -21c16.667 0 39.667 16.667 69 50c-6 7.33301 -9 15.333 -9 24c0 9.33301 3 19.333 9 30c15.333 26.667 33.666 40 54.999 40c12.667 0 19 -8 19 -24c0 -22 -8 -41.667 -24 -59c4 -1.33301 10.333 -2 19 -2c16 0 33.667 5.66699 53 17
c16 10 31.667 20.333 47 31c6 4 9.66699 3.33301 11 -2zM275 248l-23 -1.00098c-7.33301 0 -12.833 0.666992 -16.5 2s-8.5 6.33301 -14.5 15l-32 45l-51 -45c-3.33301 -3.33301 -9 -7.66602 -17 -12.999c-7.33301 -2.66699 -17.333 -4 -30 -4h-24l75 81
c17.333 18.667 34.666 28 51.999 28c20.667 0 35.334 -9.33301 44.001 -28z" />
    <glyph glyph-name="otilde" unicode="&#xf5;" horiz-adv-x="312" 
d="M345 153c2.66699 -9.33301 -1.33301 -18.666 -12 -27.999c-36.667 -31.333 -72.334 -47 -107.001 -47c-15.333 0 -25.666 1.33301 -30.999 4c-14 -18.667 -32.667 -37.334 -56 -56.001c-34 -26.667 -66 -40 -96 -40c-19.333 0 -35.833 6.33301 -49.5 19
s-20.5 30.334 -20.5 53.001c0 45.333 21 84 63 116c38.667 29.333 80.334 44 125.001 44c13.333 0 25.5 -1.83301 36.5 -5.5s16.5 -7.16699 16.5 -10.5s-1.33301 -5.33301 -4 -6c-44 -10 -81.667 -36.667 -113 -80c-12 -16.667 -18 -32.334 -18 -47.001
c0 -14 5.66699 -21 17 -21c16.667 0 39.667 16.667 69 50c-6 7.33301 -9 15.333 -9 24c0 9.33301 3 19.333 9 30c15.333 26.667 33.666 40 54.999 40c12.667 0 19 -8 19 -24c0 -22 -8 -41.667 -24 -59c4 -1.33301 10.333 -2 19 -2c16 0 33.667 5.66699 53 17
c16 10 31.667 20.333 47 31c6 4 9.66699 3.33301 11 -2zM309 312c0 -3.33301 -2.33398 -8.66699 -7.00098 -16c-14.667 -20.667 -24.334 -33.334 -29.001 -38.001c-12 -12 -26.333 -18 -43 -18c-9.33301 0 -24.166 5.5 -44.499 16.5s-34.166 16.5 -41.499 16.5
c-9.33301 0 -18.5 -3.66699 -27.5 -11s-14.5 -11 -16.5 -11c-4.66699 0 -7 1.33301 -7 4s4 9.33398 12 20.001c24 34 49.667 51 77 51c12 0 26.167 -5.66699 42.5 -17s29.5 -17 39.5 -17c9.33301 0 17.5 4 24.5 12s11.833 12 14.5 12c4 0 6 -1.33301 6 -4z" />
    <glyph glyph-name="odieresis" unicode="&#xf6;" horiz-adv-x="312" 
d="M345 153c2.66699 -9.33301 -1.33301 -18.666 -12 -27.999c-36.667 -31.333 -72.334 -47 -107.001 -47c-15.333 0 -25.666 1.33301 -30.999 4c-14 -18.667 -32.667 -37.334 -56 -56.001c-34 -26.667 -66 -40 -96 -40c-19.333 0 -35.833 6.33301 -49.5 19
s-20.5 30.334 -20.5 53.001c0 45.333 21 84 63 116c38.667 29.333 80.334 44 125.001 44c13.333 0 25.5 -1.83301 36.5 -5.5s16.5 -7.16699 16.5 -10.5s-1.33301 -5.33301 -4 -6c-44 -10 -81.667 -36.667 -113 -80c-12 -16.667 -18 -32.334 -18 -47.001
c0 -14 5.66699 -21 17 -21c16.667 0 39.667 16.667 69 50c-6 7.33301 -9 15.333 -9 24c0 9.33301 3 19.333 9 30c15.333 26.667 33.666 40 54.999 40c12.667 0 19 -8 19 -24c0 -22 -8 -41.667 -24 -59c4 -1.33301 10.333 -2 19 -2c16 0 33.667 5.66699 53 17
c16 10 31.667 20.333 47 31c6 4 9.66699 3.33301 11 -2zM296 306c0.666992 -7.33301 -5.16797 -18.499 -17.501 -33.499s-22.5 -22.5 -30.5 -22.5c-8.66699 0 -16.5 2.83301 -23.5 8.5s-10.5 12.167 -10.5 19.5c0 8 5.16699 18 15.5 30s20.166 19 29.499 21
c6.66699 1.33301 14.334 -0.333984 23.001 -5.00098s13.334 -10.667 14.001 -18zM178.998 306.001c0.666992 -7.33301 -5.16797 -18.499 -17.501 -33.499s-22.5 -22.5 -30.5 -22.5c-8.66699 0 -16.5 2.83301 -23.5 8.5s-10.5 12.167 -10.5 19.5c0 8 5.16699 18 15.5 30
s20.166 19 29.499 21c6.66699 1.33301 14.334 -0.333984 23.001 -5.00098s13.334 -10.667 14.001 -18z" />
    <glyph glyph-name="oslash" unicode="&#xf8;" horiz-adv-x="293" 
d="M326 153c2.66699 -8 -1.33301 -17.3301 -12 -27.9971c-32 -32 -63 -48.667 -93 -50c-11.333 -0.666992 -23 1.66602 -35 6.99902c-14 -18.667 -32.667 -37.334 -56 -56.001c-35.333 -27.333 -66.666 -41 -93.999 -41c-8.66699 0 -16.834 1.66699 -24.501 5
s-12.834 6.66602 -15.501 9.99902l-20 -15c-2 -1.33301 -4 -2 -6 -2c-6.66699 0 -10 3.66699 -10 11c0 3.33301 1 5.66602 3 6.99902l22 17c-4 10.667 -6 22.334 -6 35.001c0 25.333 6.83301 50.5 20.5 75.5s33.167 45.5 58.5 61.5s52.333 25 81 27s50 -2 64 -12
c5.33301 -3.33301 -4 -9.66602 -28 -18.999c-19.333 -7.33301 -39.666 -20.833 -60.999 -40.5s-35 -38.834 -41 -57.501l85 67c13.333 20 28.666 32 45.999 36l37 30c2 2 4.33301 3 7 3c6 0 9 -3.33301 9 -10c0 -2 -0.666992 -3.66699 -2 -5l-30 -24
c6.66699 -7.33301 7.33398 -20 2.00098 -38l-18 -34c4.66699 -2 13.667 -4 27 -6c12.667 0 26.667 5.66699 42 17l37 30c6 3.33301 9.66699 3 11 -1zM206 159.003c2.66699 5.33301 1.66797 8 -2.99902 8l-15 -12c-0.666992 -0.666992 -1 -1.33398 -1 -2.00098
c-4.66699 -9.33301 -5.33398 -17 -2.00098 -23c8.66699 6.66699 15.667 16.334 21 29.001zM156.001 98.0029c-6 6 -9.00098 14 -9.00098 24l-77 -61c1.33301 -4 3.33301 -7.16699 6 -9.5s6.33398 -3.5 11.001 -3.5c15.333 0 38.333 16.667 69 50z" />
    <glyph glyph-name="ugrave" unicode="&#xf9;" horiz-adv-x="389" 
d="M424 149c-2 -10 -9.99707 -20.999 -23.9971 -32.999l-54 -48c-28 -24 -53.333 -42 -76 -54c-26.667 -14 -54 -21 -82 -21s-42 12.333 -42 37c0 11.333 2.66699 24.333 8 39c-20.667 -20.667 -47 -39.334 -79 -56.001c-26 -13.333 -50.333 -20 -73 -20
c-27.333 0 -41 13 -41 39c0 30 12.667 62.667 38 98s52.333 61 81 77c8 4.66699 22 7.33398 42 8.00098c19.333 1.33301 33 0.333008 41 -3c6 -2 7.66699 -4.33301 5 -7c-19.333 -18.667 -42.333 -44.667 -69 -78c-34.667 -42 -52 -69.667 -52 -83
c0 -4.66699 2.33301 -7 7 -7c10 0 28.333 10 55 30c22.667 18.667 43.667 38 63 58l45 49c24.667 26 40.167 39.667 46.5 41s16.833 2 31.5 2c27.333 0 45 -1.66699 53 -5c5.33301 -2 7 -4.33301 5 -7c-56.667 -62 -94.334 -108.667 -113.001 -140
c-5.33301 -9.33301 -8 -16.333 -8 -21s2.33301 -7 7 -7c20 0 49.667 16.667 89 50l79 65c5.33301 4 9.66602 5.66699 12.999 5s4.66602 -3.33398 3.99902 -8.00098zM274.003 258.001l-36 -0.000976562l-114 61c-12 6.66699 -18 16.334 -18 29.001c0 20 10 30 30 30
c12.667 0 25.667 -6.66699 39 -20z" />
    <glyph glyph-name="uacute" unicode="&#xfa;" horiz-adv-x="389" 
d="M424 149c-2 -10 -9.99707 -20.999 -23.9971 -32.999l-54 -48c-28 -24 -53.333 -42 -76 -54c-26.667 -14 -54 -21 -82 -21s-42 12.333 -42 37c0 11.333 2.66699 24.333 8 39c-20.667 -20.667 -47 -39.334 -79 -56.001c-26 -13.333 -50.333 -20 -73 -20
c-27.333 0 -41 13 -41 39c0 30 12.667 62.667 38 98s52.333 61 81 77c8 4.66699 22 7.33398 42 8.00098c19.333 1.33301 33 0.333008 41 -3c6 -2 7.66699 -4.33301 5 -7c-19.333 -18.667 -42.333 -44.667 -69 -78c-34.667 -42 -52 -69.667 -52 -83
c0 -4.66699 2.33301 -7 7 -7c10 0 28.333 10 55 30c22.667 18.667 43.667 38 63 58l45 49c24.667 26 40.167 39.667 46.5 41s16.833 2 31.5 2c27.333 0 45 -1.66699 53 -5c5.33301 -2 7 -4.33301 5 -7c-56.667 -62 -94.334 -108.667 -113.001 -140
c-5.33301 -9.33301 -8 -16.333 -8 -21s2.33301 -7 7 -7c20 0 49.667 16.667 89 50l79 65c5.33301 4 9.66602 5.66699 12.999 5s4.66602 -3.33398 3.99902 -8.00098zM367.003 342.001c0 -12.667 -6 -22.333 -18 -29l-114 -61h-36l99 100c13.333 13.333 26.333 20 39 20
c20 0 30 -10 30 -30z" />
    <glyph glyph-name="ucircumflex" unicode="&#xfb;" horiz-adv-x="389" 
d="M424 149c-2 -10 -9.99707 -20.999 -23.9971 -32.999l-54 -48c-28 -24 -53.333 -42 -76 -54c-26.667 -14 -54 -21 -82 -21s-42 12.333 -42 37c0 11.333 2.66699 24.333 8 39c-20.667 -20.667 -47 -39.334 -79 -56.001c-26 -13.333 -50.333 -20 -73 -20
c-27.333 0 -41 13 -41 39c0 30 12.667 62.667 38 98s52.333 61 81 77c8 4.66699 22 7.33398 42 8.00098c19.333 1.33301 33 0.333008 41 -3c6 -2 7.66699 -4.33301 5 -7c-19.333 -18.667 -42.333 -44.667 -69 -78c-34.667 -42 -52 -69.667 -52 -83
c0 -4.66699 2.33301 -7 7 -7c10 0 28.333 10 55 30c22.667 18.667 43.667 38 63 58l45 49c24.667 26 40.167 39.667 46.5 41s16.833 2 31.5 2c27.333 0 45 -1.66699 53 -5c5.33301 -2 7 -4.33301 5 -7c-56.667 -62 -94.334 -108.667 -113.001 -140
c-5.33301 -9.33301 -8 -16.333 -8 -21s2.33301 -7 7 -7c20 0 49.667 16.667 89 50l79 65c5.33301 4 9.66602 5.66699 12.999 5s4.66602 -3.33398 3.99902 -8.00098zM327.003 269.001l-23 -1.00098c-7.33301 0 -12.833 0.666992 -16.5 2s-8.5 6.33301 -14.5 15l-32 45
l-51 -45c-3.33301 -3.33301 -9 -7.66602 -17 -12.999c-7.33301 -2.66699 -17.333 -4 -30 -4h-24l75 81c17.333 18.667 34.666 28 51.999 28c20.667 0 35.334 -9.33301 44.001 -28z" />
    <glyph glyph-name="udieresis" unicode="&#xfc;" horiz-adv-x="389" 
d="M424 149c-2 -10 -9.99707 -20.999 -23.9971 -32.999l-54 -48c-28 -24 -53.333 -42 -76 -54c-26.667 -14 -54 -21 -82 -21s-42 12.333 -42 37c0 11.333 2.66699 24.333 8 39c-20.667 -20.667 -47 -39.334 -79 -56.001c-26 -13.333 -50.333 -20 -73 -20
c-27.333 0 -41 13 -41 39c0 30 12.667 62.667 38 98s52.333 61 81 77c8 4.66699 22 7.33398 42 8.00098c19.333 1.33301 33 0.333008 41 -3c6 -2 7.66699 -4.33301 5 -7c-19.333 -18.667 -42.333 -44.667 -69 -78c-34.667 -42 -52 -69.667 -52 -83
c0 -4.66699 2.33301 -7 7 -7c10 0 28.333 10 55 30c22.667 18.667 43.667 38 63 58l45 49c24.667 26 40.167 39.667 46.5 41s16.833 2 31.5 2c27.333 0 45 -1.66699 53 -5c5.33301 -2 7 -4.33301 5 -7c-56.667 -62 -94.334 -108.667 -113.001 -140
c-5.33301 -9.33301 -8 -16.333 -8 -21s2.33301 -7 7 -7c20 0 49.667 16.667 89 50l79 65c5.33301 4 9.66602 5.66699 12.999 5s4.66602 -3.33398 3.99902 -8.00098zM332.003 311.001c0.666992 -7.33301 -5.16797 -18.499 -17.501 -33.499s-22.5 -22.5 -30.5 -22.5
c-8.66699 0 -16.5 2.83301 -23.5 8.5s-10.5 12.167 -10.5 19.5c0 8 5.16699 18 15.5 30s20.166 19 29.499 21c6.66699 1.33301 14.334 -0.333984 23.001 -5.00098s13.334 -10.667 14.001 -18zM215.001 311.002c0.666992 -7.33301 -5.16797 -18.499 -17.501 -33.499
s-22.5 -22.5 -30.5 -22.5c-8.66699 0 -16.5 2.83301 -23.5 8.5s-10.5 12.167 -10.5 19.5c0 8 5.16699 18 15.5 30s20.166 19 29.499 21c6.66699 1.33301 14.334 -0.333984 23.001 -5.00098s13.334 -10.667 14.001 -18z" />
    <glyph glyph-name="yacute" unicode="&#xfd;" horiz-adv-x="408" 
d="M442 149c0 -10.667 -18.999 -31.334 -56.999 -62.001c-26.667 -21.333 -51.334 -39.333 -74.001 -54c-33.333 -22 -63.666 -36 -90.999 -42c-3.33301 -0.666992 -8.66602 -2 -15.999 -4l-70.5 -93c-31.667 -41.333 -70.834 -80.666 -117.501 -117.999
c-59.333 -48 -108.333 -72 -147 -72c-15.333 0 -30.666 5.16699 -45.999 15.5s-23 23.166 -23 38.499c0 34.667 39 78.334 117 131.001c70 47.333 130.667 78.333 182 93l94 125c-27.333 -24 -57.333 -46.667 -90 -68c-44 -28 -77.333 -42 -100 -42
c-27.333 0 -41 14.667 -41 44c0 24.667 12 53.667 36 87c22 31.333 44 54 66 68s47.333 21 76 21c14.667 0 22 -5.33301 22 -16c0 -6 -16.167 -28 -48.5 -66s-48.5 -61 -48.5 -69c0 -3.33301 1.66699 -5 5 -5c10.667 0 30.667 9.66699 60 29
c23.333 15.333 41.666 29 54.999 41c20 21.333 49.667 49.666 89 84.999c6 4 11.333 6 16 6c8 0 15.667 -8.66699 23 -26c6 -14.667 9 -26 9 -34c0 -10 -30.667 -56.333 -92 -139c25.333 4.66699 65.666 28.334 120.999 71.001c53.333 41.333 81.333 62 84 62
c4.66699 -2 7 -4.33301 7 -7zM68.001 -64c-42.667 -18.667 -84 -41.334 -124 -68.001c-58.667 -39.333 -88 -72.666 -88 -99.999c0 -13.333 6.33301 -20 19 -20c28 0 92.333 62.667 193 188zM377.001 356c0 -12.667 -6 -22.333 -18 -29l-114 -61h-36l99 100
c13.333 13.333 26.333 20 39 20c20 0 30 -10 30 -30z" />
    <glyph glyph-name="thorn" unicode="&#xfe;" horiz-adv-x="350" 
d="M385 148c-2 -8 -10.001 -18.666 -24.001 -31.999c-44 -41.333 -75.333 -68 -94 -80c-45.333 -29.333 -81.666 -44 -108.999 -44c-10 0 -18 4.33301 -24 13c-25.333 -12 -48.333 -18 -69 -18c-46.667 0 -70 20 -70 60c-96 -104 -177.333 -212.333 -244 -325l-5 -1
c-6.66699 0 -14.167 5 -22.5 15s-12.5 18.667 -12.5 26c0 35.333 86 150 258 344s278.333 297.667 319 311c6 2 17 3 33 3c23.333 0 36 -4 38 -12c0 -0.666992 -30.667 -30.834 -92 -90.501l-117 -112.5c19.333 8.66699 39.333 13 60 13c16 0 29.5 -4.66699 40.5 -14
s16.5 -22 16.5 -38c0 -40.667 -24.667 -81.667 -74 -123c4.66699 -4 8 -6 10 -6c18 0 46.667 16.667 86 50c20.667 18 46.667 39.333 78 64c6 4 10.333 6 13 6c3.33301 0 5 -2 5 -6v-3zM190.999 174.001c0 10 -4.99902 15.001 -14.999 15.001
c-12.667 0 -39.834 -21.167 -81.501 -63.5s-62.5 -70.5 -62.5 -84.5c0 -5.33301 3.33301 -8 10 -8c16.667 0 45.667 19.167 87 57.5s62 66.166 62 83.499z" />
    <glyph glyph-name="ydieresis" unicode="&#xff;" horiz-adv-x="408" 
d="M442 149c0 -10.667 -18.999 -31.334 -56.999 -62.001c-26.667 -21.333 -51.334 -39.333 -74.001 -54c-33.333 -22 -63.666 -36 -90.999 -42c-3.33301 -0.666992 -8.66602 -2 -15.999 -4l-70.5 -93c-31.667 -41.333 -70.834 -80.666 -117.501 -117.999
c-59.333 -48 -108.333 -72 -147 -72c-15.333 0 -30.666 5.16699 -45.999 15.5s-23 23.166 -23 38.499c0 34.667 39 78.334 117 131.001c70 47.333 130.667 78.333 182 93l94 125c-27.333 -24 -57.333 -46.667 -90 -68c-44 -28 -77.333 -42 -100 -42
c-27.333 0 -41 14.667 -41 44c0 24.667 12 53.667 36 87c22 31.333 44 54 66 68s47.333 21 76 21c14.667 0 22 -5.33301 22 -16c0 -6 -16.167 -28 -48.5 -66s-48.5 -61 -48.5 -69c0 -3.33301 1.66699 -5 5 -5c10.667 0 30.667 9.66699 60 29
c23.333 15.333 41.666 29 54.999 41c20 21.333 49.667 49.666 89 84.999c6 4 11.333 6 16 6c8 0 15.667 -8.66699 23 -26c6 -14.667 9 -26 9 -34c0 -10 -30.667 -56.333 -92 -139c25.333 4.66699 65.666 28.334 120.999 71.001c53.333 41.333 81.333 62 84 62
c4.66699 -2 7 -4.33301 7 -7zM68.001 -64c-42.667 -18.667 -84 -41.334 -124 -68.001c-58.667 -39.333 -88 -72.666 -88 -99.999c0 -13.333 6.33301 -20 19 -20c28 0 92.333 62.667 193 188zM337.001 318c0.666992 -7.33301 -5.16797 -18.499 -17.501 -33.499
s-22.5 -22.5 -30.5 -22.5c-8.66699 0 -16.5 2.83301 -23.5 8.5s-10.5 12.167 -10.5 19.5c0 8 5.16699 18 15.5 30s20.166 19 29.499 21c6.66699 1.33301 14.334 -0.333984 23.001 -5.00098s13.334 -10.667 14.001 -18zM219.999 318.001
c0.666992 -7.33301 -5.16797 -18.499 -17.501 -33.499s-22.5 -22.5 -30.5 -22.5c-8.66699 0 -16.5 2.83301 -23.5 8.5s-10.5 12.167 -10.5 19.5c0 8 5.16699 18 15.5 30s20.166 19 29.499 21c6.66699 1.33301 14.334 -0.333984 23.001 -5.00098s13.334 -10.667 14.001 -18z
" />
    <glyph glyph-name="dotlessi" unicode="&#x131;" horiz-adv-x="217" 
d="M254 149c-2 -10 -9.99805 -20.999 -23.998 -32.999l-54 -48c-28 -24 -53.333 -42 -76 -54c-32 -16.667 -61.333 -25 -88 -25c-35.333 0 -53 14 -53 42c0 27.333 15 61 45 101c39.333 52 66 79.667 80 83c8.66699 2 19.667 3 33 3c27.333 0 45.333 -2 54 -6
c2.66699 -1.33301 4 -2.66602 4 -3.99902c0 -2.66699 -12 -16.334 -36 -41.001l-43 -42c-34 -38 -51 -64.333 -51 -79c0 -9.33301 4 -14 12 -14c24 0 57.667 18.333 101 55l79 65c5.33301 4 9.66602 5.66699 12.999 5s4.66602 -3.33398 3.99902 -8.00098z" />
    <glyph glyph-name="Lslash" unicode="&#x141;" horiz-adv-x="972" 
d="M1137 670c0 -61.333 -29.665 -132.667 -88.998 -214c-54 -72 -118.333 -135.667 -193 -191s-134.667 -83 -180 -83c-10 0 -15 5.66699 -15 17c0 6.66699 2.66699 11.667 8 15c44.667 0 102.667 27.333 174 82c68.667 52 128.334 112.667 179.001 182
c55.333 74.667 83 137.334 83 188.001c0 27.333 -17.667 41 -53 41c-44.667 0 -101.334 -24.333 -170.001 -73c-52.667 -38 -120.334 -96.667 -203.001 -176l147 45v-36l-201 -61l-167 -164c-62.667 -60 -116.334 -107.667 -161.001 -143
c31.333 -6.66699 100.333 -28.334 207 -65.001c79.333 -27.333 144.333 -41 195 -41c38.667 0 65.334 1.33301 80.001 4c30.667 6 57 20 79 42c3.33301 3.33301 8.33301 5 15 5c10 0 15 -3 15 -9c0 -2 -1 -4.33301 -3 -7c-24 -35.333 -56.333 -69.666 -97 -102.999
c-49.333 -41.333 -90.666 -62 -123.999 -62c-41.333 0 -108 26 -200 78c-110 62 -186 99.667 -228 113c-62.667 -41.333 -115.334 -62 -158.001 -62c-19.333 0 -35.166 4.5 -47.499 13.5s-18.5 21.5 -18.5 37.5c0 18.667 11.667 34.667 35 48c26.667 16 65 24 115 24
c26 0 52 -1.66699 78 -5c23.333 20 108 105.333 254 256l-165 -50v36l215 65c99.333 99.333 184.666 173.666 255.999 222.999c95.333 66 179.666 99 252.999 99c56.667 0 85 -23 85 -69zM187.002 66.999c-22.667 4 -45.333 6 -68 6c-36 0 -54 -8.66699 -54 -26
c0 -14 9.66699 -21 29 -21c24.667 0 55.667 13.667 93 41z" />
    <glyph glyph-name="lslash" unicode="&#x142;" horiz-adv-x="268" 
d="M496 395l-124.999 -37.9971c-16.667 -15.333 -52.667 -45.333 -108 -90c-60 -48.667 -117.333 -90.667 -172 -126c-15.333 -28.667 -23 -51 -23 -67c0 -20 11.333 -30 34 -30s48.334 9.33301 77.001 28l107 80c6 4.66699 10.333 5.66699 13 3c2 -2 3 -5 3 -9
c0 -6 -2.66699 -11.667 -8 -17c-32.667 -32.667 -69.334 -63.334 -110.001 -92.001c-42.667 -30 -82.334 -45 -119.001 -45c-23.333 0 -42.5 7.16699 -57.5 21.5s-22.5 33.166 -22.5 56.499c0 47.333 32 113.666 96 198.999l-82 -25v36l121 37c42 48.667 89 91 141 127
c55.333 38 100.333 57 135 57c33.333 0 50 -12.667 50 -38c0 -14.667 -8.66699 -33 -26 -55l76 23v-36zM403.001 452.003c-2.66699 2.66699 -8.33398 1.66699 -17.001 -3c-25.333 -12.667 -61.666 -41 -108.999 -85l80 25c36 36.667 51.333 57.667 46 63zM301.001 336.003
l-78.001 -24c-35.333 -36.667 -64 -70.667 -86 -102c56.667 37.333 104.334 73 143.001 107c7.33301 6 14.333 12.333 21 19z" />
    <glyph glyph-name="OE" unicode="&#x152;" horiz-adv-x="1405" 
d="M1771 668c0 -24 -16.4932 -56.167 -49.4932 -96.5s-60.833 -60.5 -83.5 -60.5c-42 0 -95 11.667 -159 35c-14.667 5.33301 -70.334 28.333 -167.001 69l-288 -85c15.333 -64.667 51.333 -121.334 108 -170.001c45.333 6.66699 88 10 128 10
c26 0 46.833 -5.16699 62.5 -15.5s23.5 -22.833 23.5 -37.5c0 -31.333 -25.667 -47 -77 -47c-47.333 0 -93.333 16.667 -138 50c-86.667 -21.333 -160.667 -53.666 -222 -96.999c-70 -48.667 -105 -99.667 -105 -153c0 -37.333 19 -67.333 57 -90c32 -19.333 68 -29 108 -29
c89.333 0 164 15 224 45c52.667 26.667 79 54.334 79 83.001c4 6 9.33301 9 16 9c9.33301 0 16 -5.33301 20 -16c0 -42 -33.667 -81.333 -101 -118c-70.667 -38.667 -151.334 -58 -242.001 -58c-74 0 -137 14.333 -189 43c-55.333 30.667 -86.666 72 -93.999 124
c-150.667 -88.667 -284 -133 -400 -133c-79.333 0 -141.333 18 -186 54c-46.667 37.333 -70 90.333 -70 159c0 85.333 37 175 111 269c68.667 87.333 154.5 161.166 257.5 221.499s196.5 90.5 280.5 90.5h5c18.667 0 28 -6 28 -18c0 -11.333 -5.33301 -17 -16 -17h-21
c-68.667 0 -149.834 -27.333 -243.501 -82s-172.834 -119.667 -237.501 -195c-70.667 -83.333 -106 -160 -106 -230c0 -99.333 70.667 -149 212 -149c112 0 244.667 48 398 144c151.333 94.667 256.666 194 315.999 298c-7.33301 15.333 -12.666 30.333 -15.999 45l-149 -39
c-6.66699 -1.33301 -11.334 -2 -14.001 -2c-5.33301 0 -10.333 4.16699 -15 12.5s-7 14.5 -7 18.5c0 4.66699 4 8.33398 12 11.001l168 43v10c0 34 12 65 36 93c-6.66699 8.66699 -18.834 16.667 -36.501 24s-34.834 11 -51.501 11c-64 0 -156.667 -43.333 -278 -130
c-46 -32.667 -118 -92 -216 -178c-92 -80.667 -148.667 -132.667 -170 -156c-12 -13.333 -30 -20 -54 -20c-18 0 -34.667 3.66699 -50 11c-19.333 8.66699 -29 20.667 -29 36c0 17.333 58.333 68.666 175 153.999c86.667 64 169 121 247 171c150.667 97.333 268 146 352 146
c58 0 102.333 -15.667 133 -47c38 30.667 83.333 46 136 46c45.333 0 132.666 -15 261.999 -45l89 25c56.667 16 100.667 24 132 24c30 0 55 -6.5 75 -19.5s30 -30.167 30 -51.5zM1725.01 684c0 16.667 -19.667 24.999 -59 24.999c-28.667 0 -56 -4 -82 -12
c-9.33301 -2.66699 -33 -10 -71 -22c68.667 -14 121.667 -21 159 -21c11.333 0 23 2.83301 35 8.5s18 12.834 18 21.501zM1254.01 637.999c-56.667 20 -100.332 30.001 -130.999 30.001c-32.667 0 -58.834 -9.33301 -78.501 -28s-29.5 -41.334 -29.5 -68.001zM1307.01 319
c0 13.333 -13.667 20 -41 20c-28 0 -59 -3 -93 -9c33.333 -20 67.333 -30 102 -30c21.333 0 32 6.33301 32 19zM1093.01 353c-18 18 -34.335 38 -49.002 60c-13.333 -27.333 -30.666 -55.333 -51.999 -84c32.667 9.33301 66.334 17.333 101.001 24z" />
    <glyph glyph-name="oe" unicode="&#x153;" horiz-adv-x="463" 
d="M499 143c-1.33301 -6 -4.66797 -11 -10.001 -15l-94 -83c-26 -20 -46.333 -33.333 -61 -40c-24.667 -12 -52 -18 -82 -18c-50 0 -81 19 -93 57c-7.33301 -7.33301 -14 -13.333 -20 -18c-34 -26.667 -66 -40 -96 -40c-19.333 0 -35.833 6.33301 -49.5 19
s-20.5 30.334 -20.5 53.001c0 45.333 21 84 63 116c38.667 29.333 80.334 44 125.001 44c13.333 0 25.5 -1.83301 36.5 -5.5s16.5 -7.16699 16.5 -10.5s-1.33301 -5.33301 -4 -6c-44 -10 -81.667 -36.667 -113 -80c-12 -16.667 -18 -32.334 -18 -47.001
c0 -14 5.66699 -21 17 -21c14 0 34.333 13.667 61 41c0.666992 4.66699 2 9.66699 4 15c-3.33301 5.33301 -5 11.333 -5 18c0 9.33301 3 19.333 9 30c15.333 26.667 33.666 40 54.999 40c4.66699 0 8.33398 -1 11.001 -3c32 20.667 65.667 31 101 31
c16 0 31.167 -4.33301 45.5 -13s21.5 -19 21.5 -31c0 -19.333 -13 -41.333 -39 -66c-28.667 -26.667 -57.667 -40 -87 -40c-8 0 -13.667 0.333008 -17 1v-6c0 -22 11.333 -33 34 -33c34.667 0 73.667 19.333 117 58c47.333 42 75.333 64.333 84 67h2c6 0 8 -4.66699 6 -14z
M351.998 173c0 3.33301 -1.99902 5.00098 -5.99902 5.00098c-8.66699 0 -21 -6.33301 -37 -19s-29 -28.334 -39 -47.001l-7 -14h4c21.333 0 41.666 10 60.999 30c16 18 24 33 24 45z" />
    <glyph glyph-name="Scaron" unicode="&#x160;" horiz-adv-x="785" 
d="M1151 668c0 -24 -16.4922 -56.165 -49.4922 -96.498s-60.833 -60.5 -83.5 -60.5c-42 0 -95 11.667 -159 35c-14.667 5.33301 -70.334 28.333 -167.001 69l-289 -86c12 -32.667 43 -78.334 93 -137.001c66 -77.333 107 -127.666 123 -150.999
c40.667 -60 61 -114.333 61 -163c0 -72.667 -52 -132.334 -156 -179.001c-88.667 -40 -184 -60 -286 -60c-57.333 0 -104.333 9.66699 -141 29c-39.333 20 -59 47.667 -59 83c0 54 35.333 99.333 106 136c63.333 33.333 133.666 50 210.999 50
c23.333 0 48.666 -2.33301 75.999 -7c25.333 -4 40.833 -7.83301 46.5 -11.5s8.5 -8.83398 8.5 -15.501c0 -8 -2.66699 -12 -8 -12c-4.66699 0 -9.33398 0.666992 -14.001 2c-30.667 8.66699 -65.334 13 -104.001 13c-70 0 -134.167 -14.333 -192.5 -43s-87.5 -60 -87.5 -94
c0 -40.667 30.667 -61 92 -61c88 0 175.667 23.333 263 70c94.667 50.667 142 107.667 142 171c0 33.333 -29 89.666 -87 168.999c-64 88 -102 155.667 -114 203c-30.667 -9.33301 -49.834 -14.833 -57.501 -16.5s-12.834 -2.5 -15.501 -2.5
c-5.33301 0 -10.333 4.16699 -15 12.5s-7 14.5 -7 18.5c0 4.66699 4 8.33398 12 11.001c12 3.33301 37.333 10 76 20v10c0 44 19 81.833 57 113.5s83.667 47.5 137 47.5c45.333 0 132.666 -15 261.999 -45l89 25c56.667 16 100.667 24 132 24c30 0 55 -6.5 75 -19.5
s30 -30.167 30 -51.5zM1105.01 684.002c0 16.667 -19.667 24.999 -59 24.999c-28.667 0 -56 -4 -82 -12c-9.33301 -2.66699 -33 -10 -71 -22c68.667 -14 121.667 -21 159 -21c11.333 0 23 2.83301 35 8.5s18 12.834 18 21.501zM634.008 638.001
c-56.667 20 -100.332 30.001 -130.999 30.001c-32.667 0 -58.834 -9.33301 -78.501 -28s-29.5 -41.334 -29.5 -68.001zM947.01 883.002l-75 -80.999c-17.333 -18.667 -34.666 -28 -51.999 -28c-20.667 0 -35.334 9.33301 -44.001 28l-37 80l23 1
c7.33301 0 12.833 -0.666992 16.5 -2s8.5 -6.33301 14.5 -15l32 -45l51 45c3.33301 3.33301 9 7.66602 17 12.999c7.33301 2.66699 17.333 4 30 4h24z" />
    <glyph glyph-name="scaron" unicode="&#x161;" horiz-adv-x="281" 
d="M316 149c-2 -10 -9.99707 -20.998 -23.9971 -32.998l-70 -62c-36.667 -29.333 -68.334 -47 -95.001 -53c-20 -10.667 -42.333 -16 -67 -16c-29.333 0 -53.333 5 -72 15s-28 23.667 -28 41c0 22 11 33 33 33c14 0 21 -8 21 -24c0 -2 -0.5 -6 -1.5 -12
s-1.5 -9.66699 -1.5 -11c0 -3.33301 2.66699 -5 8 -5c12 0 24.5 9.66699 37.5 29s19.5 40 19.5 62c0 17.333 -4.66699 31.333 -14 42c-1.33301 1.33301 -2.33301 2 -3 2l-57 -49c-1.33301 -1.33301 -2.66602 -2 -3.99902 -2c-9.33301 0 -14 5.66699 -14 17
c0 1.33301 0.666992 2.66602 2 3.99902c15.333 12 35.666 29 60.999 51v1c0 20.667 10.333 39.334 31 56.001s42 25 64 25c10.667 0 16 -6 16 -18c0 -6 -3.16699 -14.833 -9.5 -26.5s-9.5 -21.834 -9.5 -30.501c0 -8 6.66699 -22.5 20 -43.5s20 -40.833 20 -59.5
c0 -12.667 -2.33301 -23.667 -7 -33c8.66699 5.33301 24.667 18 48 38l79 65c5.33301 4 9.66602 5.66699 12.999 5s4.66602 -3.33398 3.99902 -8.00098zM269.003 407.002l-75 -80.999c-17.333 -18.667 -34.666 -28 -51.999 -28c-20.667 0 -35.334 9.33301 -44.001 28l-37 80
l23 1c7.33301 0 12.833 -0.666992 16.5 -2s8.5 -6.33301 14.5 -15l32 -45l51 45c3.33301 3.33301 9 7.66602 17 12.999c7.33301 2.66699 17.333 4 30 4h24z" />
    <glyph glyph-name="Ydieresis" unicode="&#x178;" horiz-adv-x="960" 
d="M1593 694c0 -30 -9.66602 -44.9971 -28.999 -44.9971c-8 0 -12 3.66699 -12 11c0 2.66699 0.833008 6.66699 2.5 12s2.5 9.66602 2.5 12.999c0 14 -13.667 21 -41 21c-22 0 -56 -14.667 -102 -44c-38 -24 -68.333 -46.667 -91 -68l-324 -328
c-141.333 -140.667 -266.666 -245.667 -375.999 -315c-148 -93.333 -290 -140 -426 -140c-123.333 0 -185 33 -185 99c0 65.333 57.667 115.666 173 150.999c84 26 168.667 39 254 39c20.667 0 44 -2 70 -6c36.667 -5.33301 55 -13 55 -23
c0 -12.667 -10.833 -33.167 -32.5 -61.5s-38.5 -42.5 -50.5 -42.5c-11.333 0 -28.833 0.666992 -52.5 2s-41.167 2 -52.5 2c-51.333 0 -111.333 -5.33301 -180 -16c-98 -14.667 -147 -35.334 -147 -62.001c0 -28 40.667 -42 122 -42c99.333 0 195 19.833 287 59.5
s172.667 95.167 242 166.5c-50 18.667 -75 59.334 -75 122.001c0 19.333 24 93.666 72 222.999l-234 -117c-96 -44 -163 -66 -201 -66c-48 0 -72 23.667 -72 71c0 44.667 40.667 103.667 122 177c75.333 67.333 162.666 127.333 261.999 180c104 54.667 185.333 82 244 82
c45.333 0 68 -24 68 -72c0 -29.333 -6.66699 -67 -20 -113l215 118c3.33301 2 6.33301 3 9 3c11.333 0 17 -9.33301 17 -28c0 -14 -10 -26 -30 -36l-228 -118l-55 -144c-28 -75.333 -42 -124.333 -42 -147c0 -46 14.667 -69 44 -69c16 0 91 66.667 225 200l265 267
c93.333 86.667 175.666 130 246.999 130c40 0 60 -15.333 60 -46zM763.001 635.003c0 24 -14.001 36.001 -42.001 36.001c-38 0 -98.333 -24.667 -181 -74c-78 -46 -148.667 -97 -212 -153c-68 -60 -102 -103.667 -102 -131c0 -26.667 15 -40 45 -40
c28.667 0 86.334 21 173.001 63c16 7.33301 106.667 53.666 272 138.999c31.333 88 47 141.333 47 160zM1304 819.004c0.666992 -7.33301 -5.16797 -18.499 -17.501 -33.499s-22.5 -22.5 -30.5 -22.5c-8.66699 0 -16.5 2.83301 -23.5 8.5s-10.5 12.167 -10.5 19.5
c0 8 5.16699 18 15.5 30s20.166 19 29.499 21c6.66699 1.33301 14.334 -0.333984 23.001 -5.00098s13.334 -10.667 14.001 -18zM1187 819.005c0.666992 -7.33301 -5.16797 -18.499 -17.501 -33.499s-22.5 -22.5 -30.5 -22.5c-8.66699 0 -16.5 2.83301 -23.5 8.5
s-10.5 12.167 -10.5 19.5c0 8 5.16699 18 15.5 30s20.166 19 29.499 21c6.66699 1.33301 14.334 -0.333984 23.001 -5.00098s13.334 -10.667 14.001 -18z" />
    <glyph glyph-name="Zcaron" unicode="&#x17d;" horiz-adv-x="963" 
d="M1101 651c0 -80 -114.002 -126.332 -342.002 -138.999c-42 -36 -120.333 -107 -235 -213c-97.333 -90 -173.333 -156.667 -228 -200c31.333 -6.66699 100.333 -28.334 207 -65.001c79.333 -27.333 144.333 -41 195 -41c38.667 0 65.334 1.33301 80.001 4
c30.667 6 57 20 79 42c3.33301 3.33301 8.33301 5 15 5c10 0 15 -3 15 -9c0 -2 -1 -4.33301 -3 -7c-24 -35.333 -56.333 -69.666 -97 -102.999c-49.333 -41.333 -90.666 -62 -123.999 -62c-41.333 0 -108 26 -200 78c-110 62 -186 99.667 -228 113
c-62.667 -41.333 -115.334 -62 -158.001 -62c-19.333 0 -35.166 4.5 -47.499 13.5s-18.5 21.5 -18.5 37.5c0 18.667 11.667 34.667 35 48c26.667 16 65 24 115 24c26 0 52 -1.66699 78 -5c33.333 27.333 101.333 87.666 204 180.999s185.667 166.333 249 219
c-16 -0.666992 -32.333 -1 -49 -1c-104 0 -199.333 8 -286 24c-76.667 14.667 -131.334 32 -164.001 52c-14 8.66699 -21 31 -21 67c0 24 3.33301 45.5 10 64.5s15.334 28.5 26.001 28.5c2.66699 0 5.66699 -1 9 -3c142 -84 342 -129.333 600 -136
c96 68.667 168 103 216 103c21.333 0 38 -5.66699 50 -17s18 -25 18 -41zM1073 649.001c0 18.667 -13.667 28 -41 28c-36 0 -87.333 -23.667 -154 -71c130 0.666992 195 15 195 43zM186.998 67.001c-22.667 4 -45.333 6 -68 6c-36 0 -54 -8.66699 -54 -26
c0 -14 9.66699 -21 29 -21c24.667 0 55.667 13.667 93 41zM829.999 850.001l-75 -80.999c-17.333 -18.667 -34.666 -28 -51.999 -28c-20.667 0 -35.334 9.33301 -44.001 28l-37 80l23 1c7.33301 0 12.833 -0.666992 16.5 -2s8.5 -6.33301 14.5 -15l32 -45l51 45
c3.33301 3.33301 9 7.66602 17 12.999c7.33301 2.66699 17.333 4 30 4h24z" />
    <glyph glyph-name="zcaron" unicode="&#x17e;" horiz-adv-x="328" 
d="M363 149c0 -10.667 -19.002 -31.333 -57.002 -62c-26.667 -22 -51 -40 -73 -54c-17.333 -11.333 -33.333 -20.333 -48 -27c-16.667 -53.333 -69.667 -117 -159 -191s-160 -111 -212 -111c-15.333 0 -30.666 5.16699 -45.999 15.5s-23 23.166 -23 38.499
c0 34.667 45.333 79.334 136 134.001c76 45.333 140 75.333 192 90c5.33301 8 8 14.333 8 19c0 5.33301 -4.33301 8 -13 8c-9.33301 0 -23.833 -3 -43.5 -9s-30.5 -9 -32.5 -9c-4 0 -7.66699 3.66699 -11 11s-5 14.333 -5 21c0 2 0.5 4.5 1.5 7.5s36.5 24.167 106.5 63.5
c66 37.333 104.667 58.333 116 63c-18.667 -4.66699 -48.667 -7 -90 -7c-11.333 0 -27 3.33301 -47 10c-2 -1.33301 -25 -21.333 -69 -60c-4.66699 -4 -9.66699 -6 -15 -6c-9.33301 0 -14 3 -14 9c0 4.66699 2.66699 9 8 13c84.667 68.667 128.334 103 131.001 103
c3.33301 0 11.333 -2.33301 24 -7s26.667 -7 42 -7c8.66699 0 24 2.33301 46 7s34.667 7 38 7c6.66699 0 14.667 -4 24 -12c10 -10 15 -20.333 15 -31c0 -7.33301 -33.333 -28 -100 -62l-131 -65l2 -4c40.667 13.333 68.334 20 83.001 20c24 0 38 -8.33301 42 -25
c13.333 6.66699 45 28 95 64c47.333 34.667 71.666 52 72.999 52c4 -2 6 -4.33301 6 -7zM45.998 -65.999c-163.333 -71.333 -245 -126.667 -245 -166c0 -13.333 6.33301 -20 19 -20c24 0 64.667 25 122 75c53.333 46 88 83 104 111zM327.998 378l-75 -80.999
c-17.333 -18.667 -34.666 -28 -51.999 -28c-20.667 0 -35.334 9.33301 -44.001 28l-37 80l23 1c7.33301 0 12.833 -0.666992 16.5 -2s8.5 -6.33301 14.5 -15l32 -45l51 45c3.33301 3.33301 9 7.66602 17 12.999c7.33301 2.66699 17.333 4 30 4h24z" />
    <glyph glyph-name="circumflex" unicode="&#x2c6;" horiz-adv-x="321" 
d="M257 661l-23 -1.00098c-7.33301 0 -12.833 0.666992 -16.5 2s-8.5 6.33301 -14.5 15l-32 45l-51 -45c-3.33301 -3.33301 -9 -7.66602 -17 -12.999c-7.33301 -2.66699 -17.333 -4 -30 -4h-24l75 81c17.333 18.667 34.666 28 51.999 28
c20.667 0 35.334 -9.33301 44.001 -28z" />
    <glyph glyph-name="caron" unicode="&#x2c7;" horiz-adv-x="321" 
d="M268 770l-75 -80.999c-17.333 -18.667 -34.666 -28 -51.999 -28c-20.667 0 -35.334 9.33301 -44.001 28l-37 80l23 1c7.33301 0 12.833 -0.666992 16.5 -2s8.5 -6.33301 14.5 -15l32 -45l51 45c3.33301 3.33301 9 7.66602 17 12.999c7.33301 2.66699 17.333 4 30 4h24z
" />
    <glyph glyph-name="breve" unicode="&#x2d8;" horiz-adv-x="303" 
d="M268 770c-8.66699 -30.667 -25.167 -56.5 -49.5 -77.5s-50.166 -31.5 -77.499 -31.5c-55.333 0 -82.333 36 -81 108h35c0 -40.667 17 -61 51 -61c20 0 37.667 5.5 53 16.5s24.666 25.833 27.999 44.5c0 0.666992 13.667 1 41 1z" />
    <glyph glyph-name="dotaccent" unicode="&#x2d9;" horiz-adv-x="191" 
d="M136 745c0.666992 -7.33301 -5.16797 -18.499 -17.501 -33.499s-22.5 -22.5 -30.5 -22.5c-8.66699 0 -16.5 2.83301 -23.5 8.5s-10.5 12.167 -10.5 19.5c0 8 5.16699 18 15.5 30s20.166 19 29.499 21c6.66699 1.33301 14.334 -0.333984 23.001 -5.00098
s13.334 -10.667 14.001 -18z" />
    <glyph glyph-name="ring" unicode="&#x2da;" horiz-adv-x="282" 
d="M228 712c0 -27.333 -11.168 -51.5 -33.501 -72.5s-47.166 -31.5 -74.499 -31.5c-20 0 -36.5 6 -49.5 18s-19.5 28 -19.5 48c0 28 10.667 52.833 32 74.5s46 32.5 74 32.5c20 0 36.833 -6.5 50.5 -19.5s20.5 -29.5 20.5 -49.5zM189.999 704
c0 26.667 -13.666 40.001 -40.999 40.001c-16.667 0 -31.334 -6.33301 -44.001 -19s-19 -27.334 -19 -44.001c0 -26 13.667 -39 41 -39c16 0 30.5 6.16699 43.5 18.5s19.5 26.833 19.5 43.5z" />
    <glyph glyph-name="ogonek" unicode="&#x2db;" horiz-adv-x="257" 
d="M187 -91c4.66699 -6 7 -12.6689 7 -20.002c0 -12 -5.66699 -23 -17 -33c-18 -16 -39 -24 -63 -24c-17.333 0 -32 4.66699 -44 14s-18 22 -18 38c0 36.667 29.333 75.334 88 116.001h22c-13.333 -12.667 -31 -32.667 -53 -60c-12 -19.333 -18 -35.666 -18 -48.999
c0 -5.33301 1.33301 -9.33301 4 -12c7.33301 -5.33301 15.666 -4 24.999 4l21.5 23.5c7.66699 8.33301 15.167 12.5 22.5 12.5c8.66699 0 16.334 -3.33301 23.001 -10z" />
    <glyph glyph-name="tilde" unicode="&#x2dc;" horiz-adv-x="321" 
d="M261 762c0 -2.66699 -2.33398 -7.66797 -7.00098 -15.001c-14.667 -21.333 -24.334 -34 -29.001 -38c-12 -12 -26.333 -18 -43 -18c-9.33301 0 -24.166 5.5 -44.499 16.5s-34.166 16.5 -41.499 16.5c-9.33301 0 -18.5 -3.66699 -27.5 -11s-14.5 -11 -16.5 -11
c-4.66699 0 -7 1.33301 -7 4s4 9.33398 12 20.001c24 33.333 49.667 50 77 50c12 0 26.333 -5.5 43 -16.5s29.667 -16.5 39 -16.5s17.5 4 24.5 12s11.833 12 14.5 12c4 0 6 -1.66699 6 -5z" />
    <glyph glyph-name="hungarumlaut" unicode="&#x2dd;" horiz-adv-x="393" 
d="M363 743c0 -12.667 -6 -22.333 -18 -29l-114 -61h-36l99 100c13.333 13.333 26.333 20 39 20c20 0 30 -10 30 -30zM214 743.001c0 -12.667 -6 -22.333 -18 -29l-114 -61h-36l99 100c13.333 13.333 26.333 20 39 20c20 0 30 -10 30 -30z" />
    <glyph glyph-name="endash" unicode="&#x2013;" horiz-adv-x="480" 
d="M428 153l-6 -16c-3.33301 -10 -10 -15 -20 -15h-313c-10 0 -13.333 5 -10 15l6 16c3.33301 10 10 15 20 15h314c10 0 13 -5 9 -15z" />
    <glyph glyph-name="emdash" unicode="&#x2014;" horiz-adv-x="686" 
d="M634 153l-6 -16c-3.33301 -10 -10 -15 -20 -15h-519c-10 0 -13.333 5 -10 15l6 16c3.33301 10 10 15 20 15h520c10 0 13 -5 9 -15z" />
    <glyph glyph-name="quoteleft" unicode="&#x2018;" horiz-adv-x="193" 
d="M200 564c-11.333 -4 -23.667 -13.3311 -37 -27.998s-20 -26.667 -20 -36c12 0 18 -8.33301 18 -25c0 -8.66699 -5.5 -19.334 -16.5 -32.001s-21.5 -20.334 -31.5 -23.001c-7.33301 -1.33301 -15.666 0.5 -24.999 5.5s-14 11.167 -14 18.5c0 19.333 13.667 45 41 77
s49.666 48 66.999 48c6 0 12 -1.66699 18 -5z" />
    <glyph glyph-name="quoteright" unicode="&#x2019;" horiz-adv-x="233" 
d="M374 558c0 -19.333 -13.666 -45.002 -40.999 -77.002s-49.666 -48 -66.999 -48c-6 0 -12 1.66699 -18 5c11.333 4 23.666 13.333 36.999 28s20 26.667 20 36c-12 0 -18 8.33301 -18 25c0 8.66699 5.5 19.334 16.5 32.001s21.5 20.334 31.5 23.001
c7.33301 1.33301 15.666 -0.5 24.999 -5.5s14 -11.167 14 -18.5z" />
    <glyph glyph-name="quotesinglbase" unicode="&#x201a;" horiz-adv-x="203" 
d="M131 52c0 -19.333 -13.666 -45.002 -40.999 -77.002s-49.666 -48 -66.999 -48c-6 0 -12 1.66699 -18 5c11.333 4 23.666 13.333 36.999 28s20 26.667 20 36c-12 0 -18 8.33301 -18 25c0 8.66699 5.5 19.334 16.5 32.001s21.5 20.334 31.5 23.001
c7.33301 1.33301 15.666 -0.5 24.999 -5.5s14 -11.167 14 -18.5z" />
    <glyph glyph-name="quotedblleft" unicode="&#x201c;" horiz-adv-x="284" 
d="M291 564c-11.333 -4 -23.667 -13.3311 -37 -27.998s-20 -26.667 -20 -36c12 0 18 -8.33301 18 -25c0 -8.66699 -5.5 -19.334 -16.5 -32.001s-21.5 -20.334 -31.5 -23.001c-7.33301 -1.33301 -15.666 0.5 -24.999 5.5s-14 11.167 -14 18.5c0 19.333 13.667 45 41 77
s49.666 48 66.999 48c6 0 12 -1.66699 18 -5zM190.999 564.002c-11.333 -4 -23.667 -13.3311 -37 -27.998s-20 -26.667 -20 -36c12 0 18 -8.33301 18 -25c0 -8.66699 -5.5 -19.334 -16.5 -32.001s-21.5 -20.334 -31.5 -23.001c-7.33301 -1.33301 -15.666 0.5 -24.999 5.5
s-14 11.167 -14 18.5c0 19.333 13.667 45 41 77s49.666 48 66.999 48c6 0 12 -1.66699 18 -5z" />
    <glyph glyph-name="quotedblright" unicode="&#x201d;" horiz-adv-x="430" 
d="M474 558c0 -19.333 -13.498 -45.002 -40.498 -77.002s-49.5 -48 -67.5 -48c-6 0 -12 1.66699 -18 5c11.333 4 23.666 13.333 36.999 28s20 26.667 20 36c-12 0 -18 8.33301 -18 25c0 8.66699 5.5 19.334 16.5 32.001s21.5 20.334 31.5 23.001
c7.33301 1.33301 15.666 -0.5 24.999 -5.5s14 -11.167 14 -18.5zM374.002 557.998c0 -19.333 -13.666 -45.002 -40.999 -77.002s-49.666 -48 -66.999 -48c-6 0 -12 1.66699 -18 5c11.333 4 23.666 13.333 36.999 28s20 26.667 20 36c-12 0 -18 8.33301 -18 25
c0 8.66699 5.5 19.334 16.5 32.001s21.5 20.334 31.5 23.001c7.33301 1.33301 15.666 -0.5 24.999 -5.5s14 -11.167 14 -18.5z" />
    <glyph glyph-name="quotedblbase" unicode="&#x201e;" horiz-adv-x="284" 
d="M231 52c0 -19.333 -13.666 -45.002 -40.999 -77.002s-49.666 -48 -66.999 -48c-6 0 -12 1.66699 -18 5c11.333 4 23.666 13.333 36.999 28s20 26.667 20 36c-12 0 -18 8.33301 -18 25c0 8.66699 5.5 19.334 16.5 32.001s21.5 20.334 31.5 23.001
c7.33301 1.33301 15.666 -0.5 24.999 -5.5s14 -11.167 14 -18.5zM131.001 51.998c0 -19.333 -13.666 -45.002 -40.999 -77.002s-49.666 -48 -66.999 -48c-6 0 -12 1.66699 -18 5c11.333 4 23.666 13.333 36.999 28s20 26.667 20 36c-12 0 -18 8.33301 -18 25
c0 8.66699 5.5 19.334 16.5 32.001s21.5 20.334 31.5 23.001c7.33301 1.33301 15.666 -0.5 24.999 -5.5s14 -11.167 14 -18.5z" />
    <glyph glyph-name="dagger" unicode="&#x2020;" horiz-adv-x="517" 
d="M606 496c0 -10.667 -3.33398 -20.168 -10.001 -28.501s-15 -12.5 -25 -12.5c-16 0 -39.333 4.16699 -70 12.5s-54 12.833 -70 13.5c-18.667 -25.333 -43 -66.666 -73 -123.999c-18 -34.667 -51.333 -79.834 -100 -135.501s-80.667 -93 -96 -112s-44 -58.167 -86 -117.5
h-19c40.667 54.667 69 94.334 85 119.001c10 15.333 34.667 57.333 74 126c20 34.667 57.667 81 113 139c18.667 19.333 47.334 54.333 86.001 105c-26.667 -2 -60.334 -8.66699 -101.001 -20c-12 -3.33301 -21.667 -5 -29 -5c-14.667 0 -22 8.33301 -22 25
c0 25.333 13.667 38 41 38c13.333 0 33.166 -4.16699 59.499 -12.5s46.833 -12.5 61.5 -12.5c20 30.667 40.333 66.667 61 108c16.667 33.333 27.334 53.666 32.001 60.999c16.667 24 34.334 36 53.001 36c16 0 24 -6 24 -18c0 -15.333 -11.667 -35.666 -35 -60.999
c-4 -4.66699 -21.667 -21.667 -53 -51c-25.333 -24 -47.333 -48.667 -66 -74h10c16 0 39 4.16699 69 12.5s50.667 12.5 62 12.5c16 0 24 -8 24 -24z" />
    </font>
</defs>
</svg>
